<svg id="Capa_1" data-name="Capa 1" xmlns="http://www.w3.org/2000/svg" viewBox="0 0 258.64 465.41"><defs><style>.cls-1{fill:#d69803;}.cls-2{fill:#ffd301;}.cls-3,.cls-4{fill:#f28f0c;}.cls-4{opacity:0.46;}.cls-5{fill:#f09201;}.cls-6{fill:#fcc30a;}.cls-7{fill:#f7e826;}.cls-8{fill:#fff;}.cls-9{fill:#161616;}.cls-10{fill:#c6d3ed;opacity:0.57;}.cls-11{fill:#e28d26;}.cls-12{fill:#c46815;}.cls-13{fill:#ec8d19;}.cls-14{fill:#f8ad1f;}</style></defs><circle class="cls-1" cx="129.32" cy="129.32" r="129.32"/><circle class="cls-2" cx="129.32" cy="129.32" r="116.82"/><circle class="cls-3" cx="129.32" cy="129.32" r="109.54"/><path class="cls-2" d="M231.92,136.25A102.6,102.6,0,1,1,212.59,76.3a.44.44,0,0,0,.08.16A101.89,101.89,0,0,1,231.92,136.25Z"/><path class="cls-4" d="M212.67,76.46C72.89,67.61,46,196.07,46,196.07A102.6,102.6,0,0,1,212.59,76.3.44.44,0,0,0,212.67,76.46Z"/><g id="Layer_2" data-name="Layer 2"><g id="Layer_1-2" data-name="Layer 1-2"><path class="cls-5" d="M104.77,119.23l24.55-24.54,24.55,24.55L168.15,105,129.32,66.13,90.49,105l14.28,14.28M66.13,129.32,80.41,115l14.28,14.28L80.41,143.6Zm38.64,10.08L129.32,164l24.55-24.56,14.29,14.27h0l-38.83,38.84L90.49,153.68l0,0,14.31-14.26M164,129.32,178.23,115l14.28,14.28L178.23,143.6Z"/><path class="cls-5" d="M143.8,129.31h0l-14.49-14.49-10.71,10.71h0l-1.23,1.23-2.54,2.54,0,0,0,0,14.48,14.48,14.49-14.49h0"/></g></g><g id="Layer_2-2" data-name="Layer 2"><g id="Layer_1-2-2" data-name="Layer 1-2"><path class="cls-6" d="M104.79,116.91l24.54-24.55,24.55,24.56,14.29-14.28L129.33,63.8,90.51,102.63l14.28,14.28M66.14,127l14.28-14.28L94.7,127,80.42,141.27Zm38.65,10.09,24.54,24.54,24.55-24.56,14.29,14.28h0l-38.84,38.83L90.51,151.36l0,0,14.3-14.27M164,127l14.28-14.28L192.52,127l-14.28,14.28Z"/><path class="cls-6" d="M143.81,127h0l-14.49-14.49L118.62,123.2h0l-1.23,1.23L114.85,127l0,0,0,0,14.48,14.48L143.82,127h0"/></g></g><g id="Layer_2-3" data-name="Layer 2"><g id="Layer_1-2-3" data-name="Layer 1-2"><path class="cls-7" d="M178.22,115,164,129.31l3.48,3.48L178.22,122l10.83,10.84,3.48-3.48Zm-24.36,24.36-24.55,24.55L104.8,139.39,90.48,153.66,94,157.14l10.8-10.83,24.55,24.55,24.55-24.55,10.84,10.83,3.48-3.48ZM80.4,115,66.13,129.31l3.48,3.48L80.4,122l10.83,10.84,3.48-3.48Zm48.91-48.91L90.48,105,94,108.39,129.31,73l35.39,35.39,3.48-3.48Z"/><polygon class="cls-7" points="143.82 129.31 140.34 132.79 129.31 121.76 118.59 132.47 118.28 132.79 114.84 129.35 114.84 129.31 117.37 126.74 129.31 114.8 143.82 129.31"/></g></g><path class="cls-8" d="M246.14,132.24h0c0-65.1-51.73-118.06-116.82-118.06S12.5,67.14,12.5,132.24h0c0-67,49.87-121.43,116.82-121.43S246.14,65.28,246.14,132.24Z"/><path class="cls-9" d="M129.32,459c-96-1.62-106.36-81.57-79.16-151.95s79.16-67.17,79.16-67.17,52-3.21,79.16,67.17S225.28,457.39,129.32,459Z"/><path class="cls-8" d="M129.32,452.33c-78.41-1.42-86.91-70.27-64.69-130.91,9.61-26.3,23-40.66,35.17-48.49a14.65,14.65,0,0,1,18.65,2.2l.25.25a14.61,14.61,0,0,0,21.24,0l.25-.25a14.63,14.63,0,0,1,18.64-2.2c12.14,7.83,25.56,22.19,35.17,48.49C216.23,382.06,207.72,450.91,129.32,452.33Z"/><path class="cls-10" d="M129.32,452.33C57.87,451,44.47,393.77,59.45,337.75c9.25,24.67,31,42,69.87,42.7,38.9-.71,60.61-18,69.86-42.7C214.17,393.77,200.77,451,129.32,452.33Z"/><path class="cls-9" d="M186.94,275.48s27.72-32,36.78-58.11,34.12,63.44-13.86,101.83Z"/><path class="cls-9" d="M71.7,275.48S44,243.5,34.91,217.37.79,280.81,48.77,319.2Z"/><circle cx="103.01" cy="300.54" r="11"/><circle cx="155.62" cy="300.54" r="11"/><circle class="cls-8" cx="106.51" cy="297.42" r="4.19"/><circle class="cls-8" cx="159.81" cy="297.42" r="4.19"/><path class="cls-11" d="M145.63,323.28s-8.45-2.19-16.31,8c-7.87-10.17-16.31-8-16.31-8,9.48-14.57,16.31-14,16.31-14S136.14,308.71,145.63,323.28Z"/><path class="cls-12" d="M129.32,309.28v22c-7.87-10.16-16.29-8-16.29-8C122.48,308.72,129.32,309.28,129.32,309.28Z"/><path class="cls-13" d="M116.8,462.79s-15.3-11.28-31.41,2.62C69.28,451.51,54,462.79,54,462.79c5.84-23.15,31.41-23.55,31.41-23.55S111,439.64,116.8,462.79Z"/><path class="cls-13" d="M204.65,462.79s-15.3-11.28-31.41,2.62c-16.1-13.9-31.4-2.62-31.4-2.62,5.83-23.15,31.4-23.55,31.4-23.55S198.81,439.64,204.65,462.79Z"/><path class="cls-14" d="M190.89,455.14s-8.6-6.34-17.65,1.47c-9.05-7.81-17.64-1.47-17.64-1.47,3.27-13,17.64-13.23,17.64-13.23S187.61,442.13,190.89,455.14Z"/><path class="cls-14" d="M103,455.14s-8.6-6.34-17.65,1.47c-9-7.81-17.65-1.47-17.65-1.47,3.28-13,17.65-13.23,17.65-13.23S99.76,442.13,103,455.14Z"/></svg>