<svg id="Capa_1" data-name="Capa 1" xmlns="http://www.w3.org/2000/svg" xmlns:xlink="http://www.w3.org/1999/xlink" viewBox="0 0 1444 812.38"><defs><style>.cls-1{fill:url(#Degradado_sin_nombre_30);}.cls-2,.cls-4{fill:#fff;}.cls-2{opacity:0.07;}.cls-3{fill:#c4e5f3;}.cls-5{fill:#d4ecf7;}.cls-6{fill:#f1f8f9;}.cls-7{fill:#bce2ef;}.cls-8{fill:url(#Degradado_sin_nombre_27);}.cls-9{fill:url(#Degradado_sin_nombre_9);}.cls-10{fill:url(#Degradado_sin_nombre_7);}.cls-11{fill:#f7fbff;}</style><linearGradient id="Degradado_sin_nombre_30" x1="722" y1="536.64" x2="722" y2="-44.91" gradientUnits="userSpaceOnUse"><stop offset="0" stop-color="#3cabdb"/><stop offset="1" stop-color="#abdaee"/></linearGradient><linearGradient id="Degradado_sin_nombre_27" x1="529.71" y1="328.32" x2="529.71" y2="524.6" gradientUnits="userSpaceOnUse"><stop offset="0" stop-color="#67c4dd"/><stop offset="1" stop-color="#a0d6eb"/></linearGradient><linearGradient id="Degradado_sin_nombre_9" x1="1264.14" y1="523.7" x2="1264.14" y2="272.78" gradientUnits="userSpaceOnUse"><stop offset="0" stop-color="#a6d8eb"/><stop offset="1" stop-color="#94d3ef"/></linearGradient><linearGradient id="Degradado_sin_nombre_7" x1="744.72" y1="568.98" x2="744.72" y2="477.67" gradientUnits="userSpaceOnUse"><stop offset="0" stop-color="#8ecee7"/><stop offset="1" stop-color="#54acc7"/></linearGradient></defs><rect class="cls-1" x="0.37" y="0.34" width="1443.26" height="549.24"/><path class="cls-2" d="M275.12,105.66l762.51,34.12,1.19.05,1.14,0h0l.81,0h.19l6.9.31h0l395.73,17.7v33.57l-278.79,26.31-86,8.11h0l-3.83.37-8.12.76-4.27.41-17.42,1.64-29.08,2.75L582.86,272.74,332.1,296.4,59.79,322.09s86.07-22,207.29-48.71c33.3-7.35,69.23-15.05,106.78-22.77h0c144.37-29.66,312.39-59.4,444.06-69l-500.65,30-87.7,5.26L63.53,226.82.37,230.6V42.77C281.47,37.17,1053.29,25.92,1249.62,66c83.55,17.08,146.88,20.58,194,17.88v26.39c-67.74,12.07-173.55,17.71-338.81,5.06C661.37,81.41,275.12,105.66,275.12,105.66Z"/><path class="cls-3" d="M1057.2,231.8l-20.32,249.62L779.7,475.93V404C843.93,397,1057.2,231.8,1057.2,231.8Z"/><path class="cls-3" d="M774.57,390.69l-3.18,85.24-262-5.59-295.94-1.62L30.69,313.47,124.48,66,368.66,250.4l198.11,8.09s148,135.43,207.8,132.2C775.62,390.63,773.42,390.81,774.57,390.69Z"/><path class="cls-4" d="M490,352.28,459.1,453l-5.21,17-9.25,30.17-7,22.79-3.52,11.49-4.62,15.09-4.23,13.78L410.71,611,116.39,635.28.37,588.35V188.76L124.48,66,229.59,182.48v77.63l37.49,13.27,65,23,61.17,21.66h0l26.58,9.4Z"/><path class="cls-5" d="M1038.16,134s96.22,308.06,12.13,371.94c0,0,74.2,30.36,121.19-70.12Z"/><path class="cls-6" d="M1038.16,134s-11.72,169.39-120.88,216.69-219.53,24.26-219.53,24.26L566.77,496l450,26.91,67.92-238Z"/><path class="cls-7" d="M1038.16,134S1073.74,429.5,994.9,518h89.76S1148.13,363.6,1038.16,134Z"/><path class="cls-8" d="M779.6,493.47s3-74.59-113.38-103.7-174.65-82-174.65-82S401,326.16,389.69,345s-110,173.88-110,173.88,448.76,14.33,475.85,0S779.6,493.47,779.6,493.47Z"/><polygon class="cls-9" points="1443.63 456.18 1443.63 549.58 1084.65 549.58 1084.65 535.02 1114.13 501.34 1115.36 499.93 1171.49 435.79 1262.94 331.26 1239.9 231.8 1356.33 428.6 1400 405.24 1443.63 456.18"/><polygon class="cls-10" points="1390.3 538.97 1295.29 494.36 1274.27 506.76 1234.92 503.53 1209.58 488.43 1181.01 500.83 1157.29 488.43 1135.73 508.38 1098 492.75 1076.44 481.96 1047.87 500.83 983.18 466.33 962.16 479.81 938.17 482.77 888.31 474.96 872.14 483.31 822 466.33 808.26 471.18 786.97 471.45 758.94 467.95 729.29 473.34 698.56 471.72 663.52 471.72 639.27 488.97 538.47 428.6 412.33 467.41 396.69 493.82 376.75 499.75 390.77 476.03 360.04 465.79 304.52 472.8 270.29 487.62 249.53 492.75 249.53 505.14 227.97 488.97 191.86 498.4 99.14 563.36 1390.3 563.36 1390.3 538.97"/><rect class="cls-11" x="0.37" y="549.58" width="1443.26" height="219.93"/><path class="cls-6" d="M1239.9,231.8s-38.4,13.75-65.9-7.27S1038.16,134,1038.16,134l133.32,301.82L1263,331.26Z"/><path class="cls-5" d="M.37,549.58S164.91,366,124.48,66L.37,188.76Z"/><path class="cls-4" d="M1443.63,540.47v271.7H.37V572c34-8,71.23-15.43,107.83-20.5,19-2.62,37.77-4.6,55.9-5.65,0,0,146.39-11,270-11.47,65.34-.21,124.34,2.54,152,11.47,44.71,14.41,152.21,7.87,252.36,0,79.19-6.23,153.78-13.29,189.12-11.48,11.95.62,31.8,1.51,57,2.47,76.23,2.91,201.5,6.46,305.65,4.94C1408.88,541.53,1426.79,541.09,1443.63,540.47Z"/></svg>