<svg id="Capa_1" data-name="Capa 1" xmlns="http://www.w3.org/2000/svg" viewBox="0 0 1095.92 310.99"><defs><style>.cls-1{fill:#161616;}.cls-2{fill:#fff;}.cls-3{fill:#c5d2ec;opacity:0.57;}.cls-4{fill:#e28c25;}.cls-5{fill:#c36816;}.cls-6{fill:#eb8c1a;}.cls-7{fill:#f7ac20;}</style></defs><path class="cls-1" d="M229.67,163.78s38.2,44.08,50.69,80.07,47-87.42-19.1-140.31Z"/><path class="cls-1" d="M150.28,302C18.05,299.74,3.72,189.57,41.2,92.6S150.28,0,150.28,0,221.92-4.38,259.35,92.6,282.5,299.74,150.28,302Z"/><path class="cls-1" d="M70.88,163.78s-38.2,44.08-50.68,80.07-47-87.42,19.1-140.31Z"/><path class="cls-2" d="M150.28,292.75c-108-1.95-119.75-96.82-89.14-180.38,13.25-36.23,31.75-56,48.47-66.81a20.17,20.17,0,0,1,25.69,3l.34.35a20.15,20.15,0,0,0,29.27,0l.34-.35a20.19,20.19,0,0,1,25.7-3c16.72,10.79,35.21,30.58,48.46,66.81C270,195.93,258.31,290.8,150.28,292.75Z"/><path class="cls-3" d="M150.28,292.76C51.83,291,33.36,212.07,54,134.87c12.75,34,42.66,57.86,96.27,58.84,53.61-1,83.52-24.84,96.27-58.84C267.19,212.07,248.73,291,150.28,292.76Z"/><circle cx="114.03" cy="83.61" r="15.15"/><circle cx="186.52" cy="83.61" r="15.15"/><circle class="cls-2" cx="118.85" cy="79.3" r="5.78"/><circle class="cls-2" cx="192.3" cy="79.3" r="5.78"/><path class="cls-4" d="M172.75,115s-11.63-3-22.47,11c-10.84-14-22.48-11-22.48-11,13.07-20.09,22.48-19.28,22.48-19.28S159.67,94.86,172.75,115Z"/><path class="cls-5" d="M150.28,95.65v30.29c-10.84-14-22.45-11-22.45-11C140.85,94.88,150.28,95.65,150.28,95.65Z"/><path class="cls-6" d="M133,307.18s-21.08-15.54-43.28,3.6c-22.19-19.14-43.28-3.6-43.28-3.6,8-31.91,43.28-32.46,43.28-32.46S125,275.27,133,307.18Z"/><path class="cls-6" d="M254.08,307.18s-21.08-15.54-43.28,3.6c-22.19-19.14-43.27-3.6-43.27-3.6,8-31.91,43.27-32.46,43.27-32.46S246,275.27,254.08,307.18Z"/><path class="cls-7" d="M235.12,296.63s-11.85-8.73-24.32,2c-12.47-10.76-24.31-2-24.31-2C191,278.71,210.8,278.4,210.8,278.4S230.6,278.71,235.12,296.63Z"/><path class="cls-7" d="M114.07,296.63s-11.85-8.73-24.32,2c-12.47-10.76-24.32-2-24.32-2C70,278.71,89.75,278.4,89.75,278.4S109.54,278.71,114.07,296.63Z"/><path d="M424.43,236.72V88h62.7v20.56H454.68v40.2h27.5V169.9h-27.5v66.82Z"/><path d="M501.61,236.72V88h30.25V216.16H566.7v20.56Z"/><path d="M580.27,236.72V88h30.06V236.72Z"/><path d="M633.07,236.72V88h47.12q13.38,0,21.81,5a30.73,30.73,0,0,1,12.56,14.6q4.13,9.54,4.13,23.13,0,16-5.41,25a29.91,29.91,0,0,1-14.76,12.76,57.05,57.05,0,0,1-21.45,3.77H663.32v64.43ZM663.32,151H674q6.6,0,10.18-2.11a10.78,10.78,0,0,0,4.86-6.7,44.93,44.93,0,0,0,1.28-11.75,54.32,54.32,0,0,0-1-11.38,11.67,11.67,0,0,0-4.49-7.16q-3.48-2.56-11-2.57H663.32Z"/><path d="M733.17,236.72V88h47.12q13.38,0,21.81,5a30.73,30.73,0,0,1,12.56,14.6q4.13,9.54,4.13,23.13,0,16-5.41,25a29.91,29.91,0,0,1-14.76,12.76,57.05,57.05,0,0,1-21.45,3.77H763.42v64.43ZM763.42,151h10.63q6.6,0,10.18-2.11a10.78,10.78,0,0,0,4.86-6.7,44.93,44.93,0,0,0,1.28-11.75,54.32,54.32,0,0,0-1-11.38,11.67,11.67,0,0,0-4.49-7.16q-3.48-2.56-11-2.57H763.42Z"/><path d="M833.27,236.72V88H898V109H863.52v39.47H890.1v21.11H863.52v46.63h34.83v20.56Z"/><path d="M913.57,236.72V88h38.5q15,0,25.76,3.39a30.1,30.1,0,0,1,16.5,12q5.77,8.63,5.77,23.86a76.56,76.56,0,0,1-1.55,16.25,31.53,31.53,0,0,1-5.5,12.3,27.13,27.13,0,0,1-11.1,8.35l20.54,72.51h-31l-17-67.37H943.82v67.37Zm30.25-85.36h8.8q7.33,0,11.55-2.39a13.11,13.11,0,0,0,6-7.25,36,36,0,0,0,1.74-12q0-10.29-3.76-15.7t-14-5.41H943.82Z"/><path d="M1058.41,238.74q-13.76,0-22.92-5.05a32,32,0,0,1-13.84-15.24q-4.68-10.19-5.41-26l26-4.41a76.34,76.34,0,0,0,1.93,15.33q1.54,6.15,4.76,9.18a11.18,11.18,0,0,0,8,3q5.86,0,8-3.67a16.62,16.62,0,0,0,2.11-8.45q0-9.36-4.49-15.69A75.35,75.35,0,0,0,1050.71,175l-15.4-13.4a62,62,0,0,1-13.48-15.79q-5.22-8.81-5.22-21.66,0-18.36,10.72-28.18t29.43-9.82q11.17,0,18.33,3.67a28,28,0,0,1,11.09,9.82,40.33,40.33,0,0,1,5.5,13.4,91.2,91.2,0,0,1,1.93,14.41l-25.85,3.86a119.69,119.69,0,0,0-1.19-11.93,16.42,16.42,0,0,0-3.31-8.08q-2.48-2.94-7.42-2.94c-3.55,0-6.17,1.32-7.88,3.95a15.6,15.6,0,0,0-2.57,8.72q0,7.89,3.57,12.94a63.67,63.67,0,0,0,9.81,10.56l15,13.21a85.83,85.83,0,0,1,16,18.45q6.69,10.38,6.69,25.61a37.76,37.76,0,0,1-4.77,18.91A34.19,34.19,0,0,1,1078.48,234Q1070,238.74,1058.41,238.74Z"/></svg>