<?xml version="1.0" encoding="UTF-8" standalone="no"?>
<!-- Generator: Gravit.io -->
<svg xmlns="http://www.w3.org/2000/svg" xmlns:xlink="http://www.w3.org/1999/xlink" style="isolation:isolate" viewBox="169 416 293 311" width="293pt" height="311pt"><defs><clipPath id="_clipPath_jzjAv2X1u2asKMtiqB4TO9GqzpIwkd9k"><rect x="169" y="416" width="292.564" height="310.81"/></clipPath></defs><g clip-path="url(#_clipPath_jzjAv2X1u2asKMtiqB4TO9GqzpIwkd9k)"><g><path d=" M 394.672 579.81 C 394.672 579.81 432.872 623.89 445.362 659.88 C 445.362 659.88 492.362 572.46 426.262 519.57 L 394.672 579.81 Z " fill="rgb(22,22,22)"/><path d=" M 315.282 718.03 C 183.052 715.77 168.722 605.6 206.202 508.63 C 243.682 411.66 315.282 416.03 315.282 416.03 C 315.282 416.03 386.922 411.65 424.352 508.63 C 461.782 605.61 447.502 715.77 315.282 718.03 Z " fill="rgb(22,22,22)"/><path d=" M 235.882 579.81 C 235.882 579.81 197.682 623.89 185.202 659.88 C 185.202 659.88 138.202 572.46 204.302 519.57 L 235.882 579.81 Z " fill="rgb(22,22,22)"/><path d=" M 315.282 708.78 C 207.282 706.83 195.532 611.96 226.142 528.4 C 239.392 492.17 257.892 472.4 274.612 461.59 C 282.774 456.245 293.591 457.509 300.302 464.59 L 300.642 464.94 C 304.448 468.961 309.74 471.239 315.277 471.239 C 320.814 471.239 326.106 468.961 329.912 464.94 L 330.252 464.59 C 336.968 457.511 347.786 456.248 355.952 461.59 C 372.672 472.38 391.162 492.17 404.412 528.4 C 435.002 611.96 423.312 706.83 315.282 708.78 Z " fill="rgb(255,255,255)"/><g opacity="0.57"><path d=" M 315.282 708.79 C 216.832 707.03 198.362 628.1 219.002 550.9 C 231.752 584.9 261.662 608.76 315.272 609.74 C 368.882 608.74 398.792 584.9 411.542 550.9 C 432.192 628.1 413.732 707.03 315.282 708.79 Z " fill="rgb(197,210,236)"/></g><circle vector-effect="non-scaling-stroke" cx="279.0320848150418" cy="499.64006101987275" r="15.149999999999977" fill="rgb(0,0,0)"/><circle vector-effect="non-scaling-stroke" cx="351.5220848150417" cy="499.64006101987275" r="15.149999999999977" fill="rgb(0,0,0)"/><circle vector-effect="non-scaling-stroke" cx="283.85208481504196" cy="495.3300610198729" r="5.779999999999973" fill="rgb(255,255,255)"/><circle vector-effect="non-scaling-stroke" cx="357.3020848150418" cy="495.3300610198729" r="5.779999999999973" fill="rgb(255,255,255)"/><path d=" M 337.752 531.03 C 337.752 531.03 326.122 528.03 315.282 542.03 C 304.442 528.03 292.802 531.03 292.802 531.03 C 305.872 510.94 315.282 511.75 315.282 511.75 C 315.282 511.75 324.672 510.89 337.752 531.03 Z " fill="rgb(226,140,37)"/><path d=" M 315.282 511.68 L 315.282 541.97 C 304.442 527.97 292.832 530.97 292.832 530.97 C 305.852 510.91 315.282 511.68 315.282 511.68 Z " fill="rgb(195,104,22)"/><path d=" M 298.002 723.21 C 298.002 723.21 276.922 707.67 254.722 726.81 C 232.532 707.67 211.442 723.21 211.442 723.21 C 219.442 691.3 254.722 690.75 254.722 690.75 C 254.722 690.75 290.002 691.3 298.002 723.21 Z " fill="rgb(235,140,26)"/><path d=" M 419.082 723.21 C 419.082 723.21 398.002 707.67 375.802 726.81 C 353.612 707.67 332.532 723.21 332.532 723.21 C 340.532 691.3 375.802 690.75 375.802 690.75 C 375.802 690.75 411.002 691.3 419.082 723.21 Z " fill="rgb(235,140,26)"/><path d=" M 400.122 712.66 C 400.122 712.66 388.272 703.93 375.802 714.66 C 363.332 703.9 351.492 712.66 351.492 712.66 C 356.002 694.74 375.802 694.43 375.802 694.43 C 375.802 694.43 395.602 694.74 400.122 712.66 Z " fill="rgb(247,172,32)"/><path d=" M 279.072 712.66 C 279.072 712.66 267.222 703.93 254.752 714.66 C 242.282 703.9 230.432 712.66 230.432 712.66 C 235.002 694.74 254.752 694.43 254.752 694.43 C 254.752 694.43 274.542 694.74 279.072 712.66 Z " fill="rgb(247,172,32)"/></g></g></svg>