<svg id="Capa_1" data-name="Capa 1" xmlns="http://www.w3.org/2000/svg" xmlns:xlink="http://www.w3.org/1999/xlink" viewBox="0 0 375 500"><defs><style>.cls-1{fill:url(#Degradado_sin_nombre_24);}.cls-2{fill:url(#Degradado_sin_nombre_24-2);}.cls-3{fill:url(#Degradado_sin_nombre_131);}</style><linearGradient id="Degradado_sin_nombre_24" x1="187.5" y1="241.94" x2="187.5" gradientUnits="userSpaceOnUse"><stop offset="0" stop-color="#e6007e"/><stop offset="1" stop-color="#662483"/></linearGradient><linearGradient id="Degradado_sin_nombre_24-2" x1="186.66" y1="379.8" x2="185.38" y2="717.59" xlink:href="#Degradado_sin_nombre_24"/><linearGradient id="Degradado_sin_nombre_131" x1="61.86" y1="327.83" x2="375" y2="327.83" gradientUnits="userSpaceOnUse"><stop offset="0" stop-color="#e6a57e"/><stop offset="1" stop-color="#d22483"/></linearGradient></defs><path class="cls-1" d="M375,0S278.25,327.78,85.48,220.29q-4.35-2.41-8.77-5.14a279,279,0,0,1-28.25-20.09A335,335,0,0,0,0,162.17V0Z"/><path class="cls-2" d="M375,0V155.67c-73.33,19.66-136.87,67.19-179.46,156.64C152.65,402.39,107,461.93,61.86,500H0V162.17a335,335,0,0,1,48.46,32.89,279,279,0,0,0,28.25,20.09q4.41,2.72,8.77,5.14C278.25,327.78,375,0,375,0Z"/><path class="cls-3" d="M375,155.67V500H61.86c45.14-38.07,90.79-97.61,133.68-187.69C238.13,222.86,301.67,175.33,375,155.67Z"/></svg>