<svg id="Capa_1" data-name="Capa 1" xmlns="http://www.w3.org/2000/svg" viewBox="0 0 65.87 369.87"><defs><style>.cls-1{fill:#e6f4ff;}.cls-2{fill:#88cefc;}.cls-3{fill:#d69803;}.cls-4{fill:#ffd301;}.cls-5{fill:#f28f0c;}.cls-6{opacity:0.46;}.cls-7{fill:#fff;}.cls-8{fill:#161616;}.cls-9{opacity:0.57;}.cls-10{fill:#c6d3ed;}.cls-11{fill:#e28d26;}.cls-12{fill:#c46815;}.cls-13{fill:#ec8d19;}.cls-14{fill:#f8ad1f;}</style></defs><circle class="cls-1" cx="33.07" cy="191.96" r="30.37"/><circle class="cls-1" cx="33.07" cy="46.38" r="30.37"/><circle class="cls-1" cx="33.08" cy="336.27" r="30.37"/><rect class="cls-1" x="28.69" y="56.86" width="8.77" height="254.56"/><path class="cls-2" d="M33.07,369.69a32.38,32.38,0,0,1-6.38-64.12v-82a32.38,32.38,0,0,1,0-63.48V79a32.38,32.38,0,1,1,12.77,0v81a32.38,32.38,0,0,1,0,63.48v82a32.38,32.38,0,0,1-6.39,64.12Zm0-350.77A28.37,28.37,0,0,0,29,75.37l1.72.24v87.85l-1.72.25a28.37,28.37,0,0,0,0,56.15l1.72.25V309l-1.72.25a28.38,28.38,0,1,0,8.2,0L35.46,309V220.11l1.71-.25a28.37,28.37,0,0,0,0-56.15l-1.71-.25V75.61l1.71-.24a28.37,28.37,0,0,0-4.1-56.45Z"/><circle class="cls-3" cx="33.07" cy="160.8" r="19.96"/><circle class="cls-4" cx="33.07" cy="160.8" r="18.03"/><circle class="cls-5" cx="33.07" cy="160.8" r="16.9"/><path class="cls-4" d="M48.91,161.87a15.86,15.86,0,1,1-3-9.25l0,0A15.74,15.74,0,0,1,48.91,161.87Z"/><g class="cls-6"><path class="cls-5" d="M45.94,152.64c-21.57-1.37-25.73,18.46-25.73,18.46a15.83,15.83,0,0,1,25.71-18.48Z"/></g><path class="cls-7" d="M51.1,161.25h0a18,18,0,1,0-36.06,0h0c0-10.34,7.7-18.74,18-18.74S51.1,150.91,51.1,161.25Z"/><path class="cls-8" d="M33.07,211.68c-14.81-.25-16.41-12.59-12.21-23.45s12.21-10.37,12.21-10.37,8-.49,12.22,10.37S47.88,211.43,33.07,211.68Z"/><path class="cls-7" d="M33.07,210.65c-12.1-.22-13.41-10.85-10-20.21,1.48-4.06,3.56-6.27,5.43-7.48a2.26,2.26,0,0,1,2.88.34l0,0a2.26,2.26,0,0,0,3.28,0l0,0a2.26,2.26,0,0,1,2.88-.34c1.87,1.21,3.94,3.42,5.43,7.48C46.49,199.8,45.17,210.43,33.07,210.65Z"/><g class="cls-9"><path class="cls-10" d="M33.07,210.65c-11-.2-13.09-9-10.78-17.69,1.43,3.81,4.78,6.48,10.78,6.59,6-.11,9.36-2.78,10.79-6.59C46.17,201.61,44.1,210.45,33.07,210.65Z"/></g><path class="cls-8" d="M42,183.35s4.27-4.93,5.67-9,5.27,9.79-2.14,15.71Z"/><path class="cls-8" d="M24.18,183.35s-4.28-4.93-5.68-9-5.26,9.79,2.14,15.71Z"/><circle cx="29.01" cy="187.22" r="1.7"/><circle cx="37.13" cy="187.22" r="1.7"/><circle class="cls-7" cx="29.55" cy="186.74" r="0.65"/><circle class="cls-7" cx="37.78" cy="186.74" r="0.65"/><path class="cls-11" d="M35.59,190.73A2.56,2.56,0,0,0,33.07,192a2.55,2.55,0,0,0-2.51-1.23c1.46-2.25,2.51-2.16,2.51-2.16S34.13,188.48,35.59,190.73Z"/><path class="cls-12" d="M33.07,188.57V192a2.55,2.55,0,0,0-2.51-1.23C32,188.48,33.07,188.57,33.07,188.57Z"/><path class="cls-13" d="M31.14,212.26a3.89,3.89,0,0,0-4.85.41,3.88,3.88,0,0,0-4.84-.41c.9-3.57,4.84-3.63,4.84-3.63S30.24,208.69,31.14,212.26Z"/><path class="cls-13" d="M44.7,212.26a3.89,3.89,0,0,0-4.85.41,3.88,3.88,0,0,0-4.84-.41c.9-3.57,4.84-3.63,4.84-3.63S43.8,208.69,44.7,212.26Z"/><path class="cls-14" d="M42.58,211.08a2.19,2.19,0,0,0-2.73.23,2.18,2.18,0,0,0-2.72-.23,2.84,2.84,0,0,1,5.45,0Z"/><path class="cls-14" d="M29,211.08a2.19,2.19,0,0,0-2.73.23,2.18,2.18,0,0,0-2.72-.23,2.84,2.84,0,0,1,5.45,0Z"/><path class="cls-5" d="M31.47,166.42v1.47H35.1v-2.41h7.57v5.78H23.89V168.1c0-5.42,5.63-7.15,7.79-7.41a3.72,3.72,0,0,0,3.42-3.47,1.5,1.5,0,0,0-1.46-1.62H31.42v2.18H23.93v-5.31H36.16c1.13,0,6.51-.26,6.51,4.3s-5.52,5.45-7.65,6.16S31.47,164.73,31.47,166.42Z"/><path class="cls-4" d="M31.47,164.11v1.47H35.1v-2.41h7.57v5.77H23.89v-3.15c0-5.43,5.63-7.15,7.79-7.41a3.73,3.73,0,0,0,3.42-3.47,1.5,1.5,0,0,0-1.46-1.62H31.42v2.17H23.93v-5.3H36.16c1.13,0,6.51-.26,6.51,4.3s-5.52,5.44-7.65,6.16S31.47,162.42,31.47,164.11Z"/><circle class="cls-3" cx="33.08" cy="19.96" r="19.96"/><circle class="cls-4" cx="33.08" cy="19.96" r="18.03"/><circle class="cls-5" cx="33.08" cy="19.96" r="16.9"/><path class="cls-4" d="M48.91,21a15.84,15.84,0,1,1-3-9.25v0A15.76,15.76,0,0,1,48.91,21Z"/><g class="cls-6"><path class="cls-5" d="M45.94,11.8C24.37,10.43,20.21,30.26,20.21,30.26A15.84,15.84,0,0,1,45.93,11.78Z"/></g><path class="cls-7" d="M51.1,20.41h0a18,18,0,1,0-36,0h0c0-10.33,7.69-18.74,18-18.74S51.1,10.08,51.1,20.41Z"/><path class="cls-8" d="M33.08,70.84c-14.81-.25-16.42-12.59-12.22-23.45S33.08,37,33.08,37s8-.49,12.21,10.37S47.89,70.59,33.08,70.84Z"/><path class="cls-7" d="M33.08,69.81C21,69.59,19.66,59,23.09,49.6c1.49-4.05,3.56-6.27,5.43-7.48a2.26,2.26,0,0,1,2.88.34l0,0a2.26,2.26,0,0,0,3.28,0l0,0a2.26,2.26,0,0,1,2.88-.34c1.87,1.21,3.95,3.43,5.43,7.48C46.49,59,45.18,69.59,33.08,69.81Z"/><g class="cls-9"><path class="cls-10" d="M33.08,69.81c-11-.2-13.1-9-10.79-17.69,1.43,3.81,4.78,6.48,10.79,6.59,6-.11,9.35-2.78,10.78-6.59C46.17,60.77,44.1,69.61,33.08,69.81Z"/></g><path class="cls-8" d="M42,42.51s4.28-4.93,5.68-9,5.26,9.79-2.14,15.71Z"/><path class="cls-8" d="M24.18,42.51s-4.27-4.93-5.67-9-5.27,9.79,2.14,15.71Z"/><circle cx="29.02" cy="46.38" r="1.7"/><circle cx="37.14" cy="46.38" r="1.7"/><circle class="cls-7" cx="29.56" cy="45.9" r="0.65"/><circle class="cls-7" cx="37.78" cy="45.9" r="0.65"/><path class="cls-11" d="M35.59,49.89a2.55,2.55,0,0,0-2.51,1.23,2.56,2.56,0,0,0-2.52-1.23c1.46-2.25,2.52-2.16,2.52-2.16S34.13,47.64,35.59,49.89Z"/><path class="cls-12" d="M33.08,47.73v3.39a2.56,2.56,0,0,0-2.52-1.23C32,47.64,33.08,47.73,33.08,47.73Z"/><path class="cls-13" d="M31.14,71.42a3.88,3.88,0,0,0-4.84.41,3.89,3.89,0,0,0-4.85-.41c.9-3.57,4.85-3.63,4.85-3.63S30.24,67.85,31.14,71.42Z"/><path class="cls-13" d="M44.7,71.42a3.88,3.88,0,0,0-4.84.41A3.89,3.89,0,0,0,35,71.42c.9-3.57,4.85-3.63,4.85-3.63S43.8,67.85,44.7,71.42Z"/><path class="cls-14" d="M42.58,70.24a2.18,2.18,0,0,0-2.72.23,2.19,2.19,0,0,0-2.73-.23,2.84,2.84,0,0,1,5.45,0Z"/><path class="cls-14" d="M29,70.24a2.18,2.18,0,0,0-2.72.23,2.19,2.19,0,0,0-2.73-.23,2.84,2.84,0,0,1,5.45,0Z"/><path class="cls-5" d="M37.73,13.13V31.91H30.22V16.26H25.47V13.13Z"/><path class="cls-4" d="M37.73,11.93V30.72H30.22V15.06H25.47V11.93Z"/><circle class="cls-3" cx="33.07" cy="308.5" r="19.96"/><circle class="cls-4" cx="33.07" cy="308.5" r="18.03"/><circle class="cls-5" cx="33.07" cy="308.5" r="16.9"/><path class="cls-4" d="M48.91,309.56a15.84,15.84,0,1,1-3-9.25l0,0A15.73,15.73,0,0,1,48.91,309.56Z"/><g class="cls-6"><path class="cls-5" d="M45.94,300.34C24.37,299,20.21,318.8,20.21,318.8a15.83,15.83,0,0,1,25.71-18.49Z"/></g><path class="cls-7" d="M51.1,309h0A18,18,0,1,0,15,309h0c0-10.34,7.7-18.74,18-18.74S51.1,298.61,51.1,309Z"/><path class="cls-8" d="M33.07,359.38c-14.81-.25-16.41-12.59-12.21-23.45s12.21-10.37,12.21-10.37,8-.5,12.22,10.37S47.88,359.13,33.07,359.38Z"/><path class="cls-7" d="M33.07,358.34c-12.1-.21-13.41-10.84-10-20.2,1.48-4.06,3.56-6.27,5.43-7.48a2.26,2.26,0,0,1,2.88.34l0,0a2.26,2.26,0,0,0,3.28,0l0,0a2.26,2.26,0,0,1,2.88-.34c1.87,1.21,3.94,3.42,5.43,7.48C46.49,347.5,45.17,358.13,33.07,358.34Z"/><g class="cls-9"><path class="cls-10" d="M33.07,358.35c-11-.21-13.09-9-10.78-17.69,1.43,3.81,4.78,6.48,10.78,6.59,6-.11,9.36-2.78,10.79-6.59C46.17,349.31,44.1,358.14,33.07,358.35Z"/></g><path class="cls-8" d="M42,331.05s4.27-4.93,5.67-9,5.27,9.8-2.14,15.72Z"/><path class="cls-8" d="M24.18,331.05s-4.28-4.93-5.68-9-5.26,9.8,2.14,15.72Z"/><circle cx="29.01" cy="334.92" r="1.7"/><circle cx="37.13" cy="334.92" r="1.7"/><circle class="cls-7" cx="29.55" cy="334.44" r="0.65"/><circle class="cls-7" cx="37.78" cy="334.44" r="0.65"/><path class="cls-11" d="M35.59,338.43a2.56,2.56,0,0,0-2.52,1.23,2.55,2.55,0,0,0-2.51-1.23c1.46-2.25,2.51-2.16,2.51-2.16S34.13,336.18,35.59,338.43Z"/><path class="cls-12" d="M33.07,336.27v3.39a2.55,2.55,0,0,0-2.51-1.23C32,336.18,33.07,336.27,33.07,336.27Z"/><path class="cls-13" d="M31.14,360a3.9,3.9,0,0,0-4.85.4,3.89,3.89,0,0,0-4.84-.4c.9-3.57,4.84-3.64,4.84-3.64S30.24,356.39,31.14,360Z"/><path class="cls-13" d="M44.7,360a3.9,3.9,0,0,0-4.85.4A3.89,3.89,0,0,0,35,360c.9-3.57,4.84-3.64,4.84-3.64S43.8,356.39,44.7,360Z"/><path class="cls-14" d="M42.58,358.78a2.19,2.19,0,0,0-2.73.23,2.18,2.18,0,0,0-2.72-.23,2.84,2.84,0,0,1,5.45,0Z"/><path class="cls-14" d="M29,358.78a2.19,2.19,0,0,0-2.73.23,2.18,2.18,0,0,0-2.72-.23,2.84,2.84,0,0,1,5.45,0Z"/><path class="cls-5" d="M39.13,309.38A6,6,0,0,1,42.52,313a6.3,6.3,0,0,1,.28,1.81v4.47H24v-5.78h7.57v2.41h3.63V314a3,3,0,0,0-1.63-2.7,4.8,4.8,0,0,0-2-.72v-2.28a6,6,0,0,0,2-.5,2.88,2.88,0,0,0,1.63-2.62v-1.58H31.6v2.18H24.09V300.5H42.8v4a5.49,5.49,0,0,1-.08.94,4.27,4.27,0,0,1-.26,1A5.52,5.52,0,0,1,39.13,309.38Z"/><path class="cls-4" d="M39.13,307.15a6,6,0,0,1,3.39,3.63,6.3,6.3,0,0,1,.28,1.81v4.47H24v-5.78h7.57v2.41h3.63V311.8a3,3,0,0,0-1.63-2.71,5,5,0,0,0-2-.71V306.1a6,6,0,0,0,2-.5A2.88,2.88,0,0,0,35.22,303V301.4H31.6v2.18H24.09v-5.31H42.8v4a5.49,5.49,0,0,1-.08.94,4.27,4.27,0,0,1-.26,1A5.52,5.52,0,0,1,39.13,307.15Z"/></svg>