<svg id="Capa_1" data-name="Capa 1" xmlns="http://www.w3.org/2000/svg" viewBox="0 0 1184.17 301.12"><defs><style>.cls-1{fill:#e6f4ff;}.cls-2{fill:#88cefc;}.cls-3{fill:#d69803;}.cls-4{fill:#ffd301;}.cls-5{fill:#f28f0c;}.cls-6{opacity:0.46;}.cls-7{fill:#fff;}.cls-8{fill:#161616;}.cls-9{opacity:0.57;}.cls-10{fill:#c6d3ed;}.cls-11{fill:#e28d26;}.cls-12{fill:#c46815;}.cls-13{fill:#ec8d19;}.cls-14{fill:#f8ad1f;}</style></defs><rect class="cls-1" x="196.64" y="177.62" width="844.95" height="29.12"/><circle class="cls-1" cx="108.98" cy="192.18" r="100.82"/><circle class="cls-1" cx="592.02" cy="192.18" r="100.82"/><circle class="cls-1" cx="1071.66" cy="192.18" r="100.82"/><path class="cls-2" d="M1073.36,300a107.85,107.85,0,0,1-105.65-86.27H699.39a107.83,107.83,0,0,1-211.31,0H216.34a107.77,107.77,0,1,1,0-43.12H488.08a107.84,107.84,0,0,1,211.31,0H967.71A107.82,107.82,0,1,1,1073.36,300ZM687.44,199.73H979.65l.87,6c6.61,45.76,46.53,80.27,92.84,80.27a93.82,93.82,0,1,0,0-187.64c-46.31,0-86.23,34.5-92.84,80.26l-.87,6H687.44l-.87-6c-6.61-45.76-46.52-80.26-92.84-80.26s-86.23,34.5-92.84,80.26l-.87,6H204.39l-.87-6c-6.61-45.76-46.52-80.26-92.84-80.26a93.82,93.82,0,0,0,0,187.64c46.32,0,86.23-34.51,92.84-80.27l.87-6H500l.87,6C507.5,251.49,547.42,286,593.73,286s86.23-34.51,92.84-80.27Z"/><circle class="cls-3" cx="592.02" cy="66.24" r="66.24"/><circle class="cls-4" cx="592.02" cy="66.24" r="59.84"/><circle class="cls-5" cx="592.02" cy="66.24" r="56.11"/><path class="cls-4" d="M644.58,69.79a52.56,52.56,0,1,1-9.9-30.7.22.22,0,0,0,0,.08A52.16,52.16,0,0,1,644.58,69.79Z"/><g class="cls-6"><path class="cls-5" d="M634.72,39.17c-71.6-4.54-85.39,61.27-85.39,61.27a52.56,52.56,0,0,1,85.35-61.35A.22.22,0,0,0,634.72,39.17Z"/></g><path class="cls-7" d="M651.86,67.74h0c0-33.35-26.49-60.48-59.84-60.48s-59.84,27.13-59.84,60.48h0c0-34.3,25.54-62.2,59.84-62.2S651.86,33.44,651.86,67.74Z"/><path class="cls-8" d="M592,235.13c-49.16-.83-54.48-41.78-40.55-77.83S592,122.88,592,122.88s26.64-1.64,40.55,34.42S641.18,234.3,592,235.13Z"/><path class="cls-7" d="M592,231.71c-40.16-.73-44.52-36-33.13-67.06,4.92-13.47,11.8-20.83,18-24.84a7.49,7.49,0,0,1,9.55,1.13l.13.13a7.49,7.49,0,0,0,10.88,0l.13-.13a7.49,7.49,0,0,1,9.55-1.13c6.22,4,13.09,11.37,18,24.84C636.54,195.71,632.19,231,592,231.71Z"/><g class="cls-9"><path class="cls-10" d="M592,231.71c-36.6-.67-43.46-30-35.79-58.7,4.74,12.64,15.86,21.51,35.79,21.88,19.93-.37,31.05-9.24,35.79-21.88C635.49,201.71,628.62,231,592,231.71Z"/></g><path class="cls-8" d="M621.54,141.12s14.2-16.39,18.84-29.77,17.48,32.5-7.1,52.16Z"/><path class="cls-8" d="M562.51,141.12s-14.21-16.39-18.85-29.77-17.48,32.5,7.1,52.16Z"/><circle cx="578.55" cy="153.96" r="5.63"/><circle cx="605.5" cy="153.96" r="5.63"/><circle class="cls-7" cx="580.34" cy="152.35" r="2.15"/><circle class="cls-7" cx="607.64" cy="152.35" r="2.15"/><path class="cls-11" d="M600.38,165.61s-4.33-1.13-8.36,4.08c-4-5.21-8.35-4.08-8.35-4.08,4.85-7.47,8.35-7.17,8.35-7.17S595.52,158.14,600.38,165.61Z"/><path class="cls-12" d="M592,158.43v11.26c-4-5.2-8.34-4.09-8.34-4.09C588.52,158.15,592,158.43,592,158.43Z"/><path class="cls-13" d="M585.61,237.07s-7.84-5.78-16.09,1.34c-8.25-7.12-16.09-1.34-16.09-1.34,3-11.86,16.09-12.07,16.09-12.07S582.62,225.21,585.61,237.07Z"/><path class="cls-13" d="M630.61,237.07s-7.84-5.78-16.09,1.34c-8.25-7.12-16.09-1.34-16.09-1.34,3-11.86,16.09-12.07,16.09-12.07S627.62,225.21,630.61,237.07Z"/><path class="cls-14" d="M623.56,233.15a7.25,7.25,0,0,0-9,.75,7.26,7.26,0,0,0-9-.75c1.68-6.66,9-6.78,9-6.78S621.88,226.49,623.56,233.15Z"/><path class="cls-14" d="M578.56,233.15a7.25,7.25,0,0,0-9,.75,7.25,7.25,0,0,0-9-.75c1.68-6.66,9-6.78,9-6.78S576.88,226.49,578.56,233.15Z"/><path class="cls-5" d="M586.7,84.91v4.88h12v-8h25.12V101H561.54V90.49c0-18,18.67-23.72,25.83-24.58,5.65-.69,11.36-5.11,11.36-11.52,0-2.69-1.67-5.37-4.84-5.37h-7.37v7.21H561.67V38.64h40.57c3.75,0,21.62-.87,21.62,14.27S605.55,71,598.47,73.34C591.75,75.59,586.7,79.31,586.7,84.91Z"/><path class="cls-4" d="M586.7,77.23v4.88h12v-8h25.12V93.28H561.54V82.81c0-18,18.67-23.71,25.83-24.58,5.65-.68,11.36-5.11,11.36-11.52,0-2.69-1.67-5.36-4.84-5.36h-7.37v7.21H561.67V31h40.57c3.75,0,21.62-.87,21.62,14.27s-18.31,18.06-25.39,20.43C591.75,67.91,586.7,71.64,586.7,77.23Z"/><circle class="cls-3" cx="108.98" cy="66.24" r="66.24"/><circle class="cls-4" cx="108.98" cy="66.24" r="59.84"/><circle class="cls-5" cx="108.98" cy="66.24" r="56.11"/><path class="cls-4" d="M161.54,69.79a52.59,52.59,0,1,1-9.91-30.7.22.22,0,0,0,0,.08A52.17,52.17,0,0,1,161.54,69.79Z"/><g class="cls-6"><path class="cls-5" d="M151.67,39.17c-71.6-4.54-85.39,61.27-85.39,61.27a52.56,52.56,0,0,1,85.35-61.35A.22.22,0,0,0,151.67,39.17Z"/></g><path class="cls-7" d="M168.82,67.74h0c0-33.35-26.5-60.48-59.84-60.48S49.14,34.39,49.14,67.74h0c0-34.3,25.54-62.2,59.84-62.2S168.82,33.44,168.82,67.74Z"/><path class="cls-8" d="M109,235.13c-49.16-.83-54.49-41.78-40.55-77.83S109,122.88,109,122.88s26.63-1.64,40.55,34.42S158.14,234.3,109,235.13Z"/><path class="cls-7" d="M109,231.71c-40.17-.73-44.52-36-33.14-67.06,4.93-13.47,11.8-20.83,18-24.84a7.49,7.49,0,0,1,9.55,1.13l.13.13a7.49,7.49,0,0,0,10.88,0l.12-.13a7.51,7.51,0,0,1,9.56-1.13c6.21,4,13.09,11.37,18,24.84C153.5,195.71,149.14,231,109,231.71Z"/><g class="cls-9"><path class="cls-10" d="M109,231.71c-36.6-.67-43.47-30-35.79-58.7,4.74,12.64,15.86,21.51,35.79,21.88,19.93-.37,31.05-9.24,35.79-21.88C152.44,201.71,145.58,231,109,231.71Z"/></g><path class="cls-8" d="M138.49,141.12s14.2-16.39,18.85-29.77,17.48,32.5-7.1,52.16Z"/><path class="cls-8" d="M79.46,141.12s-14.2-16.39-18.84-29.77-17.48,32.5,7.1,52.16Z"/><circle cx="95.5" cy="153.96" r="5.63"/><circle cx="122.45" cy="153.96" r="5.63"/><circle class="cls-7" cx="97.3" cy="152.35" r="2.15"/><circle class="cls-7" cx="124.6" cy="152.35" r="2.15"/><path class="cls-11" d="M117.33,165.61s-4.32-1.13-8.35,4.08c-4-5.21-8.36-4.08-8.36-4.08,4.86-7.47,8.36-7.17,8.36-7.17S112.47,158.14,117.33,165.61Z"/><path class="cls-12" d="M109,158.43v11.26c-4-5.2-8.35-4.09-8.35-4.09C105.47,158.15,109,158.43,109,158.43Z"/><path class="cls-13" d="M102.57,237.07s-7.84-5.78-16.09,1.34c-8.25-7.12-16.09-1.34-16.09-1.34,3-11.86,16.09-12.07,16.09-12.07S99.57,225.21,102.57,237.07Z"/><path class="cls-13" d="M147.57,237.07s-7.84-5.78-16.09,1.34c-8.25-7.12-16.09-1.34-16.09-1.34,3-11.86,16.09-12.07,16.09-12.07S144.58,225.21,147.57,237.07Z"/><path class="cls-14" d="M140.52,233.15a7.25,7.25,0,0,0-9,.75,7.25,7.25,0,0,0-9-.75c1.68-6.66,9-6.78,9-6.78S138.84,226.49,140.52,233.15Z"/><path class="cls-14" d="M95.52,233.15a7.26,7.26,0,0,0-9,.75,7.25,7.25,0,0,0-9-.75c1.68-6.66,9-6.78,9-6.78S93.83,226.49,95.52,233.15Z"/><path class="cls-5" d="M124.42,43.59v62.32H99.49V54H83.73V43.59Z"/><path class="cls-4" d="M124.42,39.63V102H99.49V50H83.73V39.63Z"/><circle class="cls-3" cx="1071.66" cy="66.24" r="66.24"/><circle class="cls-4" cx="1071.66" cy="66.24" r="59.84"/><circle class="cls-5" cx="1071.66" cy="66.24" r="56.11"/><path class="cls-4" d="M1124.22,69.79a52.59,52.59,0,1,1-9.91-30.7.22.22,0,0,0,0,.08A52.17,52.17,0,0,1,1124.22,69.79Z"/><g class="cls-6"><path class="cls-5" d="M1114.35,39.17c-71.6-4.54-85.39,61.27-85.39,61.27a52.56,52.56,0,0,1,85.35-61.35A.22.22,0,0,0,1114.35,39.17Z"/></g><path class="cls-7" d="M1131.5,67.74h0c0-33.35-26.5-60.48-59.85-60.48s-59.84,27.13-59.84,60.48h0c0-34.3,25.55-62.2,59.84-62.2S1131.5,33.44,1131.5,67.74Z"/><path class="cls-8" d="M1071.66,235.13c-49.16-.83-54.49-41.78-40.55-77.83s40.55-34.42,40.55-34.42,26.63-1.64,40.54,34.42S1120.81,234.3,1071.66,235.13Z"/><path class="cls-7" d="M1071.66,231.71c-40.17-.73-44.52-36-33.14-67.06,4.92-13.47,11.8-20.83,18-24.84a7.51,7.51,0,0,1,9.56,1.13l.12.13a7.51,7.51,0,0,0,10.89,0l.12-.13a7.51,7.51,0,0,1,9.56-1.13c6.21,4,13.09,11.37,18,24.84C1116.17,195.71,1111.82,231,1071.66,231.71Z"/><g class="cls-9"><path class="cls-10" d="M1071.66,231.71c-36.6-.67-43.47-30-35.79-58.7,4.74,12.64,15.85,21.51,35.79,21.88,19.93-.37,31-9.24,35.78-21.88C1115.12,201.71,1108.26,231,1071.66,231.71Z"/></g><path class="cls-8" d="M1101.17,141.12s14.2-16.39,18.84-29.77,17.48,32.5-7.1,52.16Z"/><path class="cls-8" d="M1042.14,141.12s-14.2-16.39-18.84-29.77-17.48,32.5,7.1,52.16Z"/><circle cx="1058.18" cy="153.96" r="5.63"/><circle cx="1085.13" cy="153.96" r="5.63"/><circle class="cls-7" cx="1059.97" cy="152.35" r="2.15"/><circle class="cls-7" cx="1087.28" cy="152.35" r="2.15"/><path class="cls-11" d="M1080,165.61s-4.32-1.13-8.35,4.08c-4-5.21-8.36-4.08-8.36-4.08,4.86-7.47,8.36-7.17,8.36-7.17S1075.15,158.14,1080,165.61Z"/><path class="cls-12" d="M1071.66,158.43v11.26c-4-5.2-8.35-4.09-8.35-4.09C1068.15,158.15,1071.66,158.43,1071.66,158.43Z"/><path class="cls-13" d="M1065.24,237.07s-7.84-5.78-16.09,1.34c-8.25-7.12-16.09-1.34-16.09-1.34,3-11.86,16.09-12.07,16.09-12.07S1062.25,225.21,1065.24,237.07Z"/><path class="cls-13" d="M1110.25,237.07s-7.84-5.78-16.09,1.34c-8.25-7.12-16.09-1.34-16.09-1.34,3-11.86,16.09-12.07,16.09-12.07S1107.25,225.21,1110.25,237.07Z"/><path class="cls-14" d="M1103.2,233.15a54.86,54.86,0,0,1-18.08,0c1.68-6.66,9-6.78,9-6.78S1101.51,226.49,1103.2,233.15Z"/><path class="cls-14" d="M1058.19,233.15a54.86,54.86,0,0,1-18.08,0c1.68-6.66,9-6.78,9-6.78S1056.51,226.49,1058.19,233.15Z"/><path class="cls-5" d="M1091.75,69.2c4.86,2.27,9.38,6,11.25,12a21.16,21.16,0,0,1,.91,6c0,.11,0,.23,0,.35v14.45H1041.6V82.89h25.12v8h12V84.62c0-3.82-1.76-6.77-5.4-9-1.19-.71-4.4-2.38-6.66-2.38V65.7a19.86,19.86,0,0,0,6.66-1.66,9.52,9.52,0,0,0,5.4-8.67V50.12h-12v7.21h-24.9V39.74h62.07V53a19.15,19.15,0,0,1-.25,3.12,15.58,15.58,0,0,1-.88,3.23C1100.8,64.4,1096.42,67.31,1091.75,69.2Z"/><path class="cls-4" d="M1091.75,61.79c4.86,2.27,9.38,6,11.25,12a21.09,21.09,0,0,1,.91,6c0,.12,0,.23,0,.35V94.65H1041.6V75.49h25.12v8h12V77.22c0-3.83-1.76-6.78-5.4-9-1.19-.72-4.4-2.39-6.66-2.39V58.29a19.62,19.62,0,0,0,6.66-1.66,9.51,9.51,0,0,0,5.4-8.67V42.72h-12v7.21h-24.9V32.33h62.07V45.56a19.37,19.37,0,0,1-.25,3.13,15.75,15.75,0,0,1-.88,3.23C1100.8,57,1096.42,59.91,1091.75,61.79Z"/></svg>