<?xml version="1.0" encoding="UTF-8" standalone="no"?>
<!-- Generator: Gravit.io -->
<svg xmlns="http://www.w3.org/2000/svg" xmlns:xlink="http://www.w3.org/1999/xlink" style="isolation:isolate" viewBox="1645.201 863 867 378" width="867pt" height="378pt"><defs><clipPath id="_clipPath_rrOmUSphcj5fJlYloq2pzwYaTEp1fz1I"><rect x="1645.201" y="863" width="866.631" height="378"/></clipPath></defs><g clip-path="url(#_clipPath_rrOmUSphcj5fJlYloq2pzwYaTEp1fz1I)"><clipPath id="_clipPath_GzJchPE6uvdJjM0rrjiRGNNLzjXWl5r9"><rect x="1689" y="863" width="822.832" height="376.57" transform="matrix(1,0,0,1,0,0)" fill="rgb(255,255,255)"/></clipPath><g clip-path="url(#_clipPath_GzJchPE6uvdJjM0rrjiRGNNLzjXWl5r9)"><g><g><circle vector-effect="non-scaling-stroke" cx="2242.34" cy="891.5099999999999" r="28.51000000000022" fill="rgb(77,201,255)"/><circle vector-effect="non-scaling-stroke" cx="2242.34" cy="971.39" r="28.51000000000022" fill="rgb(0,159,175)"/><circle vector-effect="non-scaling-stroke" cx="2242.34" cy="1051.2800000000002" r="28.51000000000022" fill="rgb(41,225,255)"/><circle vector-effect="non-scaling-stroke" cx="2242.34" cy="1131.17" r="28.51000000000022" fill="rgb(197,244,255)"/><circle vector-effect="non-scaling-stroke" cx="2242.34" cy="1211.06" r="28.51000000000022" fill="rgb(131,223,255)"/><path d=" M 1474.09 1376.081 C 1370.38 1376.081 1286 1291.711 1286 1187.991 C 1286 1084.271 1370.38 999.901 1474.09 999.901 C 1503.504 999.814 1532.52 1006.699 1558.76 1019.991 C 1584.467 1033.023 1606.867 1051.74 1624.26 1074.721 C 1640.426 1096.045 1651.808 1122.603 1657.63 1148.721 C 1660.66 1162.282 1662.186 1176.136 1662.18 1190.031 C 1662.18 1293.711 1577.76 1376.081 1474.09 1376.081 Z  M 1474.09 1022.901 C 1383.09 1022.901 1309 1096.961 1309 1187.991 C 1309 1279.021 1383.06 1353.081 1474.09 1353.081 C 1565.12 1353.081 1639.18 1279.031 1639.18 1187.991 C 1639.183 1175.787 1637.842 1163.621 1635.18 1151.711 C 1630.062 1128.811 1620.076 1107.28 1605.9 1088.581 C 1590.62 1068.405 1570.951 1051.971 1548.38 1040.521 C 1525.356 1028.863 1499.897 1022.825 1474.09 1022.901 L 1474.09 1022.901 Z " fill="rgb(29,29,27)"/><path d=" M 1474.09 1011.401 L 1474.09 1364.591 C 1377.078 1363.861 1298.819 1285.011 1298.819 1187.996 C 1298.819 1090.981 1377.078 1012.131 1474.09 1011.401 L 1474.09 1011.401 Z " fill="rgb(29,29,27)"/><path d=" M 1476.59 1367.091 L 1474.09 1367.091 C 1375.34 1367.091 1295 1286.751 1295 1188.001 C 1295 1089.251 1375.34 1008.901 1474.09 1008.901 L 1476.59 1008.901 L 1476.59 1367.091 Z  M 1471.59 1013.921 C 1376.76 1015.261 1300 1092.831 1300 1188.001 C 1300 1283.171 1376.76 1360.731 1471.59 1362.071 L 1471.59 1013.921 Z " fill="rgb(255,255,255)"/><path d=" M 1650.68 1189.001 C 1650.68 1235.836 1632.075 1279.752 1598.958 1312.869 C 1565.841 1345.986 1520.925 1364.591 1474.09 1364.591 L 1474.09 1187.991 L 1646.4 1149.191 C 1649.252 1161.931 1650.687 1175.946 1650.68 1189.001 L 1650.68 1189.001 Z " fill="rgb(29,29,27)"/><path d=" M 1474.09 1367.091 L 1471.59 1367.091 L 1471.59 1185.991 L 1648.29 1147.201 L 1648.84 1149.651 C 1651.729 1162.568 1653.185 1175.765 1653.18 1189.001 C 1653.18 1287.751 1572.84 1367.091 1474.09 1367.091 Z  M 1476.59 1189.991 L 1476.59 1362.071 C 1571.44 1360.731 1648.18 1284.161 1648.18 1189.001 C 1648.184 1176.969 1646.947 1163.969 1644.49 1152.191 L 1476.59 1189.991 Z " fill="rgb(255,255,255)"/><path d=" M 1553.57 1030.261 L 1474.09 1187.991 L 1474.09 1011.401 C 1501.696 1011.363 1528.924 1017.823 1553.57 1030.261 L 1553.57 1030.261 Z " fill="rgb(29,29,27)"/><path d=" M 1471.59 1198.471 L 1471.59 1008.901 L 1474.09 1008.901 C 1502.091 1008.82 1529.712 1015.375 1554.69 1028.031 L 1556.92 1029.151 L 1471.59 1198.471 Z  M 1476.59 1013.881 L 1476.59 1177.471 L 1550.2 1031.381 C 1527.263 1020.172 1502.118 1014.208 1476.59 1013.921 L 1476.59 1013.881 Z " fill="rgb(255,255,255)"/><path d=" M 1615.08 1081.661 L 1474.08 1187.991 L 1553.57 1030.261 C 1577.729 1042.473 1598.771 1060.055 1615.08 1081.661 L 1615.08 1081.661 Z " fill="rgb(29,29,27)"/><path d=" M 1467.03 1196.471 L 1552.46 1026.901 L 1554.69 1028.031 C 1579.176 1040.438 1600.513 1058.263 1617.08 1080.151 L 1618.59 1082.151 L 1467.03 1196.471 Z  M 1554.66 1033.631 L 1481.15 1179.541 L 1611.56 1081.181 C 1596.194 1061.462 1576.795 1045.251 1554.66 1033.631 L 1554.66 1033.631 Z " fill="rgb(255,255,255)"/><path d=" M 1646.4 1149.191 L 1474.09 1187.991 L 1615.09 1081.661 C 1630.232 1101.675 1640.908 1124.702 1646.4 1149.191 L 1646.4 1149.191 Z " fill="rgb(29,29,27)"/><path d=" M 1463.33 1192.981 L 1615.57 1078.161 L 1617.08 1080.161 C 1632.467 1100.446 1643.299 1124.81 1648.84 1149.661 L 1649.39 1152.091 L 1463.33 1192.981 Z  M 1614.58 1085.171 L 1484.85 1183.011 L 1643.4 1147.311 C 1638.052 1124.877 1628.251 1103.745 1614.58 1085.171 L 1614.58 1085.171 Z " fill="rgb(255,255,255)"/><path d=" M 1474.09 1011.401 L 1474.09 1364.591 C 1377.078 1363.861 1298.819 1285.011 1298.819 1187.996 C 1298.819 1090.981 1377.078 1012.131 1474.09 1011.401 L 1474.09 1011.401 Z " fill="rgb(77,201,255)"/><path d=" M 1650.68 1189.001 C 1650.68 1235.836 1632.075 1279.752 1598.958 1312.869 C 1565.841 1345.986 1520.925 1364.591 1474.09 1364.591 L 1474.09 1187.991 L 1646.4 1149.191 C 1649.252 1161.931 1650.687 1175.946 1650.68 1189.001 L 1650.68 1189.001 Z " fill="rgb(0,159,175)"/><path d=" M 1553.57 1030.261 L 1525.757 1085.456 L 1474.09 1187.991 L 1474.09 1011.401 C 1501.696 1011.363 1528.924 1017.823 1553.57 1030.261 L 1553.57 1030.261 Z " fill="rgb(131,223,255)"/><path d=" M 1615.08 1081.661 L 1474.08 1187.991 L 1553.57 1030.261 C 1577.729 1042.473 1598.771 1060.055 1615.08 1081.661 L 1615.08 1081.661 Z " fill="rgb(197,244,255)"/><path d=" M 1646.4 1149.191 L 1474.09 1187.991 L 1615.09 1081.661 C 1630.232 1101.675 1640.908 1124.702 1646.4 1149.191 L 1646.4 1149.191 Z " fill="rgb(41,225,255)"/><path d=" M 1364.18 1214.611 L 1372.38 1181.221 L 1361.76 1181.221 L 1361.76 1175.521 L 1379.76 1175.521 L 1379.76 1180.471 L 1371.51 1214.641 L 1364.18 1214.611 Z " fill="rgb(0,0,0)"/><path d=" M 1392.27 1197.471 Q 1387.53 1197.471 1385.51 1194.911 C 1384.16 1193.211 1383.51 1190.681 1383.51 1187.341 L 1383.51 1185.341 Q 1383.51 1180.231 1385.51 1177.831 Q 1387.51 1175.431 1392.32 1175.451 C 1395.56 1175.451 1397.85 1176.231 1399.17 1177.791 C 1400.49 1179.351 1401.17 1181.791 1401.17 1185.191 L 1401.17 1187.471 Q 1401.17 1192.391 1399.17 1194.931 Q 1397.17 1197.471 1392.27 1197.471 Z  M 1392.27 1192.691 C 1392.949 1192.751 1393.62 1192.506 1394.1 1192.021 C 1394.532 1191.466 1394.783 1190.793 1394.82 1190.091 C 1394.929 1189.095 1394.98 1188.093 1394.97 1187.091 L 1394.97 1185.471 C 1395.012 1184.171 1394.891 1182.871 1394.61 1181.601 C 1394.37 1180.741 1393.61 1180.301 1392.27 1180.301 C 1390.93 1180.301 1390.21 1180.731 1389.95 1181.581 C 1389.643 1182.854 1389.512 1184.163 1389.56 1185.471 L 1389.56 1187.201 C 1389.552 1188.177 1389.609 1189.152 1389.73 1190.121 C 1389.794 1190.816 1390.054 1191.478 1390.48 1192.031 C 1390.955 1192.493 1391.611 1192.721 1392.27 1192.651 L 1392.27 1192.691 Z  M 1397 1214.691 L 1408.76 1175.521 L 1413.15 1175.521 L 1401.43 1214.611 L 1397 1214.691 Z  M 1417.84 1214.791 Q 1413.07 1214.791 1411.06 1212.231 Q 1409.05 1209.671 1409.06 1204.701 L 1409.06 1202.701 C 1409.06 1199.321 1409.71 1196.821 1411.01 1195.221 C 1412.31 1193.621 1414.59 1192.801 1417.84 1192.801 C 1421.09 1192.801 1423.38 1193.581 1424.7 1195.141 C 1426.02 1196.701 1426.7 1199.141 1426.7 1202.551 L 1426.7 1204.771 Q 1426.7 1209.771 1424.7 1212.301 Q 1422.7 1214.831 1417.84 1214.711 L 1417.84 1214.791 Z  M 1417.84 1210.011 C 1418.514 1210.077 1419.181 1209.83 1419.65 1209.341 C 1420.061 1208.782 1420.313 1208.122 1420.38 1207.431 C 1420.5 1206.479 1420.556 1205.52 1420.55 1204.561 L 1420.55 1202.771 C 1420.598 1201.466 1420.467 1200.16 1420.16 1198.891 C 1419.9 1198.041 1419.16 1197.611 1417.84 1197.611 C 1416.52 1197.611 1415.78 1198.041 1415.53 1198.911 C 1415.226 1200.174 1415.095 1201.473 1415.14 1202.771 L 1415.14 1204.471 C 1415.133 1205.43 1415.183 1206.388 1415.29 1207.341 C 1415.332 1208.039 1415.591 1208.707 1416.03 1209.251 C 1416.506 1209.73 1417.166 1209.979 1417.84 1209.931 L 1417.84 1210.011 Z " fill="rgb(0,0,0)"/><path d=" M 1527.06 1279.861 L 1527.06 1270.741 L 1515.18 1270.741 L 1515.18 1264.901 L 1525.37 1240.771 L 1534.05 1240.771 L 1534.05 1265.041 L 1537.82 1265.041 L 1537.82 1270.741 L 1534.05 1270.741 L 1534.05 1279.861 L 1527.06 1279.861 Z  M 1521.06 1265.041 L 1527.06 1265.041 L 1527.06 1248.471 L 1521.06 1265.041 Z " fill="rgb(0,0,0)"/><path d=" M 1549.54 1262.681 Q 1544.82 1262.681 1542.79 1260.121 Q 1540.76 1257.561 1540.79 1252.541 L 1540.79 1250.541 C 1540.79 1247.131 1541.45 1244.621 1542.79 1243.031 C 1544.13 1241.441 1546.38 1240.641 1549.59 1240.641 C 1552.8 1240.641 1555.13 1241.421 1556.45 1242.981 C 1557.77 1244.541 1558.45 1246.981 1558.45 1250.391 L 1558.45 1252.661 Q 1558.45 1257.581 1556.45 1260.121 C 1555.04 1261.831 1552.76 1262.681 1549.54 1262.681 Z  M 1549.54 1257.901 C 1550.223 1257.963 1550.897 1257.717 1551.38 1257.231 C 1551.802 1256.671 1552.052 1256 1552.1 1255.301 C 1552.207 1254.321 1552.258 1253.336 1552.25 1252.351 L 1552.25 1250.661 C 1552.294 1249.364 1552.17 1248.066 1551.88 1246.801 C 1551.64 1245.931 1550.88 1245.501 1549.54 1245.501 C 1548.2 1245.501 1547.48 1245.931 1547.23 1246.781 C 1546.923 1248.05 1546.792 1249.356 1546.84 1250.661 L 1546.84 1252.401 C 1546.832 1253.377 1546.889 1254.352 1547.01 1255.321 C 1547.069 1256.017 1547.329 1256.681 1547.76 1257.231 C 1548.222 1257.711 1548.876 1257.957 1549.54 1257.901 L 1549.54 1257.901 Z  M 1554.27 1279.901 L 1566 1240.811 L 1570.39 1240.811 L 1558.66 1279.861 L 1554.27 1279.901 Z  M 1575.12 1280.001 C 1571.94 1280.001 1569.68 1279.141 1568.34 1277.441 C 1567 1275.741 1566.34 1273.221 1566.34 1269.911 L 1566.34 1267.911 C 1566.34 1264.541 1566.99 1262.041 1568.29 1260.431 C 1569.59 1258.821 1571.87 1258.021 1575.12 1258.021 C 1578.37 1258.021 1580.65 1258.801 1581.97 1260.361 C 1583.29 1261.921 1583.97 1264.361 1583.97 1267.771 L 1583.97 1269.991 C 1583.97 1273.341 1583.3 1275.841 1581.97 1277.521 C 1580.64 1279.201 1578.31 1279.961 1575.12 1279.961 L 1575.12 1280.001 Z  M 1575.12 1275.221 C 1575.796 1275.284 1576.463 1275.034 1576.93 1274.541 C 1577.342 1273.987 1577.591 1273.329 1577.65 1272.641 C 1577.775 1271.69 1577.831 1270.73 1577.82 1269.771 L 1577.82 1267.981 C 1577.866 1266.677 1577.738 1265.372 1577.44 1264.101 C 1577.18 1263.241 1576.44 1262.821 1575.12 1262.821 C 1573.8 1262.821 1573.06 1263.251 1572.81 1264.121 C 1572.506 1265.384 1572.374 1266.683 1572.42 1267.981 L 1572.42 1269.771 C 1572.415 1270.729 1572.462 1271.688 1572.56 1272.641 C 1572.61 1273.336 1572.872 1273.999 1573.31 1274.541 C 1573.792 1275.007 1574.452 1275.24 1575.12 1275.181 L 1575.12 1275.221 Z " fill="rgb(0,0,0)"/><path d=" M 1549.92 1095.151 L 1549.92 1070.561 C 1549.626 1070.721 1549.318 1070.855 1549 1070.961 C 1548.6 1071.091 1548.18 1071.251 1547.73 1071.411 L 1546.44 1071.861 C 1546.04 1072.001 1545.72 1072.121 1545.5 1072.221 L 1545.5 1067.911 L 1546.72 1067.301 C 1547.24 1067.051 1547.79 1066.781 1548.37 1066.471 C 1548.939 1066.17 1549.49 1065.836 1550.02 1065.471 C 1550.453 1065.184 1550.853 1064.849 1551.21 1064.471 L 1555.76 1064.471 L 1555.76 1095.151 L 1549.92 1095.151 Z " fill="rgb(0,0,0)"/><path d=" M 1567.86 1081.681 Q 1564.15 1081.681 1562.56 1079.681 Q 1560.97 1077.681 1560.97 1073.741 L 1560.97 1072.191 Q 1560.97 1068.191 1562.52 1066.301 C 1563.52 1065.051 1565.33 1064.431 1567.86 1064.431 C 1570.39 1064.431 1572.2 1065.041 1573.23 1066.261 C 1574.26 1067.481 1574.76 1069.471 1574.76 1072.071 L 1574.76 1073.851 C 1574.905 1075.922 1574.352 1077.981 1573.19 1079.701 Q 1571.64 1081.681 1567.86 1081.681 Z  M 1567.86 1077.941 C 1568.394 1077.984 1568.921 1077.79 1569.3 1077.411 C 1569.634 1076.971 1569.829 1076.442 1569.86 1075.891 C 1569.946 1075.127 1569.986 1074.359 1569.98 1073.591 L 1569.98 1072.261 C 1570.009 1071.253 1569.912 1070.245 1569.69 1069.261 Q 1569.4 1068.261 1567.86 1068.261 C 1566.86 1068.261 1566.24 1068.601 1566.04 1069.261 C 1565.807 1070.243 1565.706 1071.252 1565.74 1072.261 L 1565.74 1073.621 C 1565.731 1074.386 1565.774 1075.152 1565.87 1075.911 C 1565.917 1076.458 1566.122 1076.979 1566.46 1077.411 C 1566.824 1077.788 1567.338 1077.983 1567.86 1077.941 L 1567.86 1077.941 Z  M 1571.57 1095.151 L 1580.76 1064.471 L 1584.2 1064.471 L 1575.01 1095.121 L 1571.57 1095.151 Z  M 1587.91 1095.231 Q 1584.16 1095.231 1582.6 1093.231 C 1581.431 1091.495 1580.874 1089.419 1581.02 1087.331 L 1581.02 1085.731 C 1581.02 1083.081 1581.54 1081.131 1582.56 1079.871 C 1583.58 1078.611 1585.36 1077.971 1587.91 1077.971 C 1590.46 1077.971 1592.25 1078.591 1593.28 1079.811 C 1594.31 1081.031 1594.84 1082.971 1594.84 1085.621 L 1594.84 1087.361 Q 1594.84 1091.291 1593.25 1093.261 Q 1591.66 1095.231 1587.91 1095.231 Z  M 1587.91 1091.481 C 1588.44 1091.535 1588.965 1091.339 1589.33 1090.951 C 1589.651 1090.515 1589.848 1090 1589.9 1089.461 C 1589.995 1088.715 1590.038 1087.963 1590.03 1087.211 L 1590.03 1085.811 C 1590.063 1084.802 1589.962 1083.793 1589.73 1082.811 C 1589.52 1082.141 1588.92 1081.811 1587.91 1081.811 C 1586.9 1081.811 1586.3 1082.151 1586.1 1082.811 C 1585.859 1083.792 1585.755 1084.802 1585.79 1085.811 L 1585.79 1087.211 C 1585.784 1087.963 1585.824 1088.714 1585.91 1089.461 C 1585.944 1090.006 1586.147 1090.527 1586.49 1090.951 C 1586.863 1091.326 1587.383 1091.516 1587.91 1091.471 L 1587.91 1091.481 Z " fill="rgb(0,0,0)"/><path d=" M 1573.81 1149.191 L 1573.81 1145.071 L 1581.27 1133.611 C 1581.82 1132.751 1582.35 1131.931 1582.84 1131.151 C 1583.316 1130.386 1583.721 1129.58 1584.05 1128.741 C 1584.366 1127.9 1584.525 1127.009 1584.52 1126.111 C 1584.571 1125.32 1584.371 1124.533 1583.95 1123.861 C 1583.573 1123.35 1582.965 1123.061 1582.33 1123.091 C 1581.689 1123.048 1581.059 1123.272 1580.59 1123.711 C 1580.16 1124.171 1579.868 1124.743 1579.75 1125.361 C 1579.596 1126.094 1579.522 1126.842 1579.53 1127.591 L 1579.53 1129.031 L 1573.81 1129.031 L 1573.81 1127.471 C 1573.785 1125.818 1574.073 1124.176 1574.66 1122.631 C 1575.187 1121.273 1576.128 1120.115 1577.35 1119.321 C 1578.808 1118.467 1580.482 1118.054 1582.17 1118.131 C 1584.87 1118.131 1586.9 1118.831 1588.27 1120.251 C 1589.696 1121.889 1590.415 1124.024 1590.27 1126.191 C 1590.282 1127.356 1590.089 1128.513 1589.7 1129.611 C 1589.315 1130.663 1588.816 1131.669 1588.21 1132.611 C 1587.59 1133.611 1586.93 1134.611 1586.21 1135.611 L 1580.31 1144.501 L 1589.43 1144.501 L 1589.43 1149.111 L 1573.81 1149.191 Z " fill="rgb(0,0,0)"/><path d=" M 1599.92 1135.721 C 1597.45 1135.721 1595.68 1135.061 1594.62 1133.721 C 1593.56 1132.381 1593.03 1130.401 1593.03 1127.781 L 1593.03 1126.231 Q 1593.03 1122.231 1594.59 1120.341 Q 1596.15 1118.451 1599.92 1118.471 Q 1603.74 1118.471 1605.29 1120.311 C 1606.29 1121.531 1606.84 1123.461 1606.84 1126.111 L 1606.84 1127.891 C 1606.985 1129.962 1606.432 1132.021 1605.27 1133.741 C 1604.23 1135.061 1602.44 1135.721 1599.92 1135.721 Z  M 1599.92 1131.981 C 1600.455 1132.028 1600.983 1131.834 1601.36 1131.451 C 1601.693 1131.014 1601.891 1130.489 1601.93 1129.941 C 1602.007 1129.173 1602.044 1128.402 1602.04 1127.631 L 1602.04 1126.301 C 1602.067 1125.293 1601.973 1124.286 1601.76 1123.301 C 1601.57 1122.611 1600.95 1122.301 1599.92 1122.301 C 1598.89 1122.301 1598.31 1122.641 1598.1 1123.301 C 1597.868 1124.283 1597.767 1125.292 1597.8 1126.301 L 1597.8 1127.671 C 1597.796 1128.433 1597.84 1129.194 1597.93 1129.951 C 1597.979 1130.497 1598.184 1131.018 1598.52 1131.451 C 1598.884 1131.828 1599.398 1132.023 1599.92 1131.981 L 1599.92 1131.981 Z  M 1603.63 1149.191 L 1612.82 1118.551 L 1616.27 1118.551 L 1607.07 1149.191 L 1603.63 1149.191 Z  M 1619.97 1149.271 C 1617.48 1149.271 1615.7 1148.601 1614.66 1147.271 C 1613.62 1145.941 1613.09 1143.971 1613.09 1141.371 L 1613.09 1139.771 Q 1613.09 1135.771 1614.62 1133.911 C 1615.62 1132.651 1617.43 1132.021 1619.97 1132.021 C 1622.51 1132.021 1624.31 1132.631 1625.35 1133.851 C 1626.39 1135.071 1626.9 1137.011 1626.9 1139.661 L 1626.9 1141.401 Q 1626.9 1145.331 1625.31 1147.301 Q 1623.72 1149.271 1619.97 1149.271 Z  M 1619.97 1145.521 C 1620.5 1145.575 1621.025 1145.379 1621.39 1144.991 C 1621.711 1144.555 1621.908 1144.04 1621.96 1143.501 C 1622.055 1142.755 1622.098 1142.003 1622.09 1141.251 L 1622.09 1139.851 C 1622.122 1138.842 1622.021 1137.833 1621.79 1136.851 C 1621.59 1136.181 1620.98 1135.851 1619.97 1135.851 C 1618.96 1135.851 1618.36 1136.191 1618.16 1136.851 C 1617.924 1137.833 1617.82 1138.842 1617.85 1139.851 L 1617.85 1141.251 C 1617.844 1142.003 1617.884 1142.754 1617.97 1143.501 C 1618.003 1144.048 1618.21 1144.57 1618.56 1144.991 C 1618.927 1145.37 1619.444 1145.565 1619.97 1145.521 L 1619.97 1145.521 Z " fill="rgb(0,0,0)"/><path d=" M 1483.52 1077.471 L 1483.52 1052.861 C 1483.219 1053.011 1482.908 1053.141 1482.59 1053.251 L 1481.32 1053.711 L 1480.04 1054.161 C 1479.63 1054.301 1479.32 1054.421 1479.09 1054.521 L 1479.09 1050.211 L 1480.32 1049.601 C 1480.84 1049.351 1481.39 1049.071 1481.97 1048.771 C 1482.537 1048.472 1483.085 1048.138 1483.61 1047.771 C 1484.046 1047.483 1484.449 1047.148 1484.81 1046.771 L 1489.35 1046.771 L 1489.35 1077.471 L 1483.52 1077.471 Z " fill="rgb(0,0,0)"/><path d=" M 1501.45 1063.981 Q 1497.75 1063.981 1496.16 1061.981 Q 1494.57 1059.981 1494.57 1056.041 L 1494.57 1054.471 C 1494.57 1051.801 1495.08 1049.841 1496.12 1048.591 C 1497.16 1047.341 1498.93 1046.721 1501.45 1046.721 C 1503.97 1046.721 1505.79 1047.331 1506.83 1048.551 C 1507.87 1049.771 1508.38 1051.711 1508.38 1054.361 L 1508.38 1056.141 C 1508.521 1058.208 1507.969 1060.263 1506.81 1061.981 C 1505.76 1063.321 1503.98 1063.981 1501.45 1063.981 Z  M 1501.45 1060.231 C 1501.986 1060.282 1502.516 1060.087 1502.89 1059.701 C 1503.225 1059.265 1503.423 1058.739 1503.46 1058.191 C 1503.543 1057.424 1503.579 1056.653 1503.57 1055.881 L 1503.57 1054.561 C 1503.602 1053.553 1503.508 1052.545 1503.29 1051.561 C 1503.1 1050.881 1502.49 1050.561 1501.45 1050.561 C 1500.41 1050.561 1499.84 1050.891 1499.64 1051.561 C 1499.404 1052.56 1499.303 1053.585 1499.34 1054.611 L 1499.34 1055.971 C 1499.331 1056.736 1499.375 1057.501 1499.47 1058.261 C 1499.518 1058.803 1499.719 1059.319 1500.05 1059.751 C 1500.421 1060.113 1500.935 1060.289 1501.45 1060.231 L 1501.45 1060.231 Z  M 1505.16 1077.471 L 1514.36 1046.821 L 1517.76 1046.821 L 1508.61 1077.471 L 1505.16 1077.471 Z  M 1521.51 1077.551 Q 1517.76 1077.551 1516.19 1075.551 C 1515.025 1073.813 1514.473 1071.737 1514.62 1069.651 L 1514.62 1068.031 C 1514.62 1065.381 1515.13 1063.431 1516.15 1062.161 C 1517.17 1060.891 1518.96 1060.271 1521.51 1060.271 C 1524.06 1060.271 1525.85 1060.881 1526.88 1062.111 C 1527.91 1063.341 1528.43 1065.271 1528.43 1067.921 L 1528.43 1069.661 Q 1528.43 1073.591 1526.84 1075.561 C 1525.76 1076.871 1524.01 1077.531 1521.51 1077.531 L 1521.51 1077.551 Z  M 1521.51 1073.801 C 1522.039 1073.848 1522.561 1073.653 1522.93 1073.271 C 1523.254 1072.837 1523.448 1072.321 1523.49 1071.781 C 1523.588 1071.032 1523.635 1070.277 1523.63 1069.521 L 1523.63 1068.121 C 1523.666 1067.111 1523.562 1066.102 1523.32 1065.121 C 1523.12 1064.451 1522.52 1064.121 1521.51 1064.121 C 1520.5 1064.121 1519.89 1064.461 1519.69 1065.121 C 1519.458 1066.103 1519.357 1067.112 1519.39 1068.121 L 1519.39 1069.471 C 1519.386 1070.226 1519.423 1070.98 1519.5 1071.731 C 1519.538 1072.277 1519.744 1072.797 1520.09 1073.221 C 1520.458 1073.608 1520.977 1073.813 1521.51 1073.781 L 1521.51 1073.801 Z " fill="rgb(0,0,0)"/><path d=" M 2304.19 903.66 L 2304.19 873.36 L 2311.86 873.36 C 2313.088 873.351 2314.314 873.462 2315.52 873.69 C 2316.589 873.891 2317.608 874.298 2318.52 874.89 C 2319.401 875.476 2320.095 876.302 2320.52 877.27 C 2321.025 878.52 2321.26 879.863 2321.21 881.21 C 2321.24 882.277 2321.063 883.34 2320.69 884.34 C 2320.376 885.128 2319.859 885.818 2319.19 886.34 C 2318.485 886.86 2317.665 887.203 2316.8 887.34 C 2317.89 887.464 2318.926 887.878 2319.8 888.54 C 2320.609 889.183 2321.227 890.033 2321.59 891 C 2322.017 892.189 2322.221 893.447 2322.19 894.71 C 2322.221 896.066 2322.025 897.418 2321.61 898.71 C 2321.272 899.752 2320.689 900.699 2319.91 901.47 C 2319.126 902.221 2318.177 902.779 2317.14 903.1 C 2315.903 903.48 2314.614 903.663 2313.32 903.64 L 2304.19 903.66 Z  M 2310.36 885.59 L 2311.89 885.59 C 2312.73 885.641 2313.569 885.479 2314.33 885.12 C 2314.88 884.812 2315.288 884.303 2315.47 883.7 C 2315.7 882.942 2315.808 882.152 2315.79 881.36 C 2315.822 880.592 2315.661 879.829 2315.32 879.14 C 2315.01 878.571 2314.506 878.131 2313.9 877.9 C 2313.123 877.629 2312.303 877.503 2311.48 877.53 L 2310.36 877.53 L 2310.36 885.59 Z  M 2310.36 899.32 L 2312.08 899.32 C 2313.27 899.463 2314.458 899.032 2315.28 898.16 C 2315.942 897.126 2316.251 895.905 2316.16 894.68 C 2316.193 893.71 2316.054 892.742 2315.75 891.82 C 2315.506 891.156 2315.035 890.6 2314.42 890.25 C 2313.659 889.879 2312.816 889.706 2311.97 889.75 L 2310.36 889.75 L 2310.36 899.32 Z " fill="rgb(48,86,140)"/><path d=" M 2329 904.04 C 2328.216 904.067 2327.445 903.831 2326.81 903.37 C 2326.213 902.907 2325.761 902.282 2325.51 901.57 C 2325.231 900.777 2325.092 899.941 2325.1 899.1 L 2325.1 882.04 L 2330.76 882.04 L 2330.76 898.28 C 2330.73 898.753 2330.834 899.224 2331.06 899.64 C 2331.315 899.978 2331.729 900.157 2332.15 900.11 C 2332.498 900.111 2332.84 900.028 2333.15 899.87 C 2333.494 899.696 2333.828 899.503 2334.15 899.29 L 2334.15 882.04 L 2339.76 882.04 L 2339.76 903.66 L 2334.11 903.66 L 2334.11 901.66 C 2333.418 902.349 2332.626 902.929 2331.76 903.38 C 2330.908 903.822 2329.96 904.048 2329 904.04 Z " fill="rgb(48,86,140)"/><path d=" M 2344.04 909.76 L 2344.04 905.76 C 2344.71 905.77 2345.379 905.72 2346.04 905.61 C 2346.477 905.548 2346.887 905.36 2347.22 905.07 C 2347.494 904.767 2347.634 904.367 2347.61 903.96 C 2347.588 903.443 2347.508 902.929 2347.37 902.43 C 2347.2 901.78 2347.02 901.06 2346.82 900.26 L 2341.88 882 L 2347.23 882 L 2350 895.28 L 2352.25 882 L 2357.64 882 L 2352.64 904.3 C 2352.435 905.499 2351.925 906.625 2351.16 907.57 C 2350.495 908.345 2349.63 908.922 2348.66 909.24 C 2347.549 909.578 2346.391 909.74 2345.23 909.72 L 2344.04 909.76 Z " fill="rgb(48,86,140)"/><path d=" M 2370.08 904.04 C 2369.274 904.036 2368.479 903.845 2367.76 903.48 C 2366.989 903.089 2366.273 902.598 2365.63 902.02 L 2365.63 903.66 L 2359.98 903.66 L 2359.98 873.36 L 2365.63 873.36 L 2365.63 883.65 C 2366.282 883.051 2367.024 882.558 2367.83 882.19 C 2368.583 881.844 2369.401 881.663 2370.23 881.66 C 2371.007 881.638 2371.774 881.839 2372.44 882.24 C 2373.043 882.637 2373.544 883.172 2373.9 883.8 C 2374.281 884.474 2374.545 885.208 2374.68 885.97 C 2374.833 886.771 2374.91 887.585 2374.91 888.4 L 2374.91 896.9 C 2374.929 898.157 2374.75 899.409 2374.38 900.61 C 2374.074 901.571 2373.515 902.431 2372.76 903.1 C 2372.016 903.737 2371.059 904.073 2370.08 904.04 Z  M 2367.57 900.26 C 2367.967 900.284 2368.353 900.125 2368.62 899.83 C 2368.888 899.502 2369.064 899.108 2369.13 898.69 C 2369.217 898.171 2369.26 897.646 2369.26 897.12 L 2369.26 888.06 C 2369.265 887.582 2369.215 887.106 2369.11 886.64 C 2369.026 886.269 2368.851 885.925 2368.6 885.64 C 2368.336 885.375 2367.973 885.234 2367.6 885.25 C 2367.253 885.252 2366.911 885.335 2366.6 885.49 C 2366.274 885.657 2365.963 885.851 2365.67 886.07 L 2365.67 899.59 C 2365.961 899.785 2366.273 899.946 2366.6 900.07 C 2366.909 900.192 2367.238 900.257 2367.57 900.26 Z " fill="rgb(48,86,140)"/><path d=" M 2382.76 904.04 C 2381.818 904.068 2380.892 903.791 2380.12 903.25 C 2379.396 902.743 2378.82 902.053 2378.45 901.25 C 2378.084 900.478 2377.893 899.634 2377.89 898.78 C 2377.849 897.597 2378.121 896.424 2378.68 895.38 C 2379.197 894.471 2379.907 893.686 2380.76 893.08 C 2381.639 892.432 2382.593 891.892 2383.6 891.47 C 2384.65 891.02 2385.7 890.61 2386.74 890.23 L 2386.74 888.23 C 2386.749 887.817 2386.712 887.405 2386.63 887 C 2386.579 886.69 2386.428 886.406 2386.2 886.19 C 2385.939 885.985 2385.611 885.885 2385.28 885.91 C 2384.959 885.888 2384.639 885.972 2384.37 886.15 C 2384.144 886.333 2383.985 886.586 2383.92 886.87 C 2383.826 887.196 2383.769 887.531 2383.75 887.87 L 2383.64 889.37 L 2378.29 889.15 Q 2378.47 885.32 2380.29 883.5 Q 2382.11 881.68 2385.76 881.66 C 2387.573 881.511 2389.359 882.179 2390.63 883.48 C 2391.719 884.824 2392.278 886.521 2392.2 888.25 L 2392.2 898.31 C 2392.2 899.16 2392.2 899.92 2392.25 900.58 C 2392.3 901.24 2392.34 901.83 2392.4 902.34 C 2392.46 902.85 2392.52 903.34 2392.57 903.66 L 2387.48 903.66 C 2387.41 903.12 2387.32 902.52 2387.22 901.87 C 2387.12 901.22 2387.05 900.78 2387 900.56 C 2386.739 901.473 2386.247 902.304 2385.57 902.97 C 2384.824 903.703 2383.805 904.091 2382.76 904.04 Z  M 2384.76 900.04 C 2385.034 900.038 2385.305 899.973 2385.55 899.85 C 2385.796 899.725 2386.019 899.559 2386.21 899.36 C 2386.376 899.184 2386.53 898.997 2386.67 898.8 L 2386.67 892.9 C 2386.15 893.23 2385.67 893.54 2385.21 893.9 C 2384.785 894.186 2384.395 894.522 2384.05 894.9 C 2383.734 895.268 2383.484 895.687 2383.31 896.14 C 2383.123 896.628 2383.031 897.147 2383.04 897.67 C 2383.007 898.295 2383.164 898.915 2383.49 899.45 C 2383.785 899.85 2384.264 900.072 2384.76 900.04 Z " fill="rgb(48,86,140)"/><path d=" M 2402.6 904.04 C 2401.209 904.086 2399.831 903.769 2398.6 903.12 C 2397.546 902.525 2396.704 901.616 2396.19 900.52 C 2395.626 899.264 2395.352 897.897 2395.39 896.52 L 2395.39 889.22 C 2395.344 887.81 2395.617 886.409 2396.19 885.12 C 2396.706 884.036 2397.549 883.14 2398.6 882.56 C 2399.835 881.924 2401.212 881.614 2402.6 881.66 C 2403.934 881.623 2405.26 881.872 2406.49 882.39 C 2407.494 882.836 2408.318 883.608 2408.83 884.58 C 2409.376 885.724 2409.636 886.983 2409.59 888.25 L 2409.59 890.31 L 2404.21 890.31 L 2404.21 888.1 C 2404.225 887.588 2404.167 887.076 2404.04 886.58 C 2403.963 886.27 2403.774 886 2403.51 885.82 C 2403.235 885.657 2402.919 885.578 2402.6 885.59 C 2402.276 885.57 2401.956 885.67 2401.7 885.87 C 2401.438 886.121 2401.265 886.451 2401.21 886.81 C 2401.095 887.406 2401.045 888.013 2401.06 888.62 L 2401.06 897.12 C 2400.988 897.931 2401.126 898.747 2401.46 899.49 C 2401.708 899.895 2402.156 900.132 2402.63 900.11 C 2402.963 900.129 2403.294 900.038 2403.57 899.85 C 2403.818 899.633 2403.99 899.342 2404.06 899.02 C 2404.171 898.555 2404.221 898.078 2404.21 897.6 L 2404.21 894.98 L 2409.59 894.98 L 2409.59 897.34 C 2409.628 898.615 2409.36 899.88 2408.81 901.03 C 2408.299 902.026 2407.468 902.822 2406.45 903.29 C 2405.238 903.823 2403.923 904.079 2402.6 904.04 Z " fill="rgb(48,86,140)"/><path d=" M 2412.89 903.66 L 2412.89 873.36 L 2418.5 873.36 L 2418.5 890.42 L 2423.93 882.04 L 2430.21 882.04 L 2424.6 890.83 L 2430.14 903.66 L 2424.04 903.66 L 2420.18 893.23 L 2418.5 895.43 L 2418.5 903.66 L 2412.89 903.66 Z " fill="rgb(48,86,140)"/><path d=" M 2442.45 903.66 L 2442.45 885.9 L 2440.28 885.9 L 2440.28 882.04 L 2442.45 882.04 L 2442.45 880.54 C 2442.43 879.404 2442.562 878.271 2442.84 877.17 C 2443.074 876.26 2443.641 875.471 2444.43 874.96 C 2445.557 874.363 2446.828 874.093 2448.1 874.18 C 2448.6 874.18 2449.1 874.18 2449.5 874.18 C 2449.9 874.18 2450.43 874.25 2450.98 874.33 L 2450.98 878.52 C 2450.763 878.463 2450.542 878.42 2450.32 878.39 C 2450.092 878.35 2449.861 878.33 2449.63 878.33 C 2449.191 878.297 2448.762 878.471 2448.47 878.8 C 2448.186 879.238 2448.055 879.759 2448.1 880.28 L 2448.1 882 L 2450.98 882 L 2450.98 885.9 L 2448.1 885.9 L 2448.1 903.66 L 2442.45 903.66 Z " fill="rgb(48,86,140)"/><path d=" M 2460.11 904.04 C 2458.724 904.087 2457.348 903.784 2456.11 903.16 C 2455.048 902.578 2454.197 901.675 2453.68 900.58 C 2453.1 899.293 2452.82 897.891 2452.86 896.48 L 2452.86 889.22 C 2452.812 887.799 2453.092 886.385 2453.68 885.09 C 2454.21 883.998 2455.076 883.105 2456.15 882.54 C 2457.39 881.921 2458.764 881.619 2460.15 881.66 C 2461.54 881.599 2462.92 881.91 2464.15 882.56 C 2465.176 883.158 2465.974 884.079 2466.42 885.18 C 2466.938 886.515 2467.186 887.939 2467.15 889.37 L 2467.15 893.15 L 2458.47 893.15 L 2458.47 897.34 C 2458.453 897.861 2458.52 898.381 2458.67 898.88 C 2458.766 899.216 2458.97 899.511 2459.25 899.72 C 2459.825 900.04 2460.525 900.04 2461.1 899.72 C 2461.378 899.539 2461.583 899.267 2461.68 898.95 C 2461.822 898.504 2461.887 898.038 2461.87 897.57 L 2461.87 895.51 L 2467.11 895.51 L 2467.11 897.3 C 2467.233 899.145 2466.581 900.957 2465.31 902.3 C 2463.877 903.548 2462.006 904.174 2460.11 904.04 Z  M 2458.43 890.46 L 2461.83 890.46 L 2461.83 888.32 C 2461.847 887.81 2461.783 887.3 2461.64 886.81 C 2461.552 886.473 2461.346 886.179 2461.06 885.98 C 2460.756 885.808 2460.409 885.724 2460.06 885.74 C 2459.734 885.728 2459.412 885.819 2459.14 886 C 2458.869 886.243 2458.68 886.565 2458.6 886.92 C 2458.462 887.527 2458.401 888.148 2458.42 888.77 L 2458.43 890.46 Z " fill="rgb(48,86,140)"/><path d=" M 2477.32 904.04 C 2475.934 904.09 2474.557 903.787 2473.32 903.16 C 2472.253 902.584 2471.401 901.679 2470.89 900.58 C 2470.307 899.294 2470.023 897.892 2470.06 896.48 L 2470.06 889.22 C 2470.015 887.798 2470.299 886.384 2470.89 885.09 C 2471.417 883.999 2472.279 883.105 2473.35 882.54 C 2474.59 881.921 2475.964 881.619 2477.35 881.66 C 2478.74 881.599 2480.12 881.91 2481.35 882.56 C 2482.376 883.158 2483.174 884.079 2483.62 885.18 C 2484.138 886.515 2484.386 887.939 2484.35 889.37 L 2484.35 893.15 L 2475.67 893.15 L 2475.67 897.34 C 2475.658 897.861 2475.725 898.38 2475.87 898.88 C 2475.966 899.216 2476.17 899.511 2476.45 899.72 C 2477.025 900.04 2477.725 900.04 2478.3 899.72 C 2478.581 899.543 2478.787 899.269 2478.88 898.95 C 2479.022 898.504 2479.087 898.038 2479.07 897.57 L 2479.07 895.51 L 2484.31 895.51 L 2484.31 897.3 C 2484.433 899.145 2483.781 900.957 2482.51 902.3 C 2481.08 903.547 2479.213 904.174 2477.32 904.04 Z  M 2475.64 890.46 L 2479.04 890.46 L 2479.04 888.32 C 2479.057 887.81 2478.993 887.3 2478.85 886.81 C 2478.766 886.471 2478.559 886.175 2478.27 885.98 C 2477.966 885.808 2477.619 885.724 2477.27 885.74 C 2476.947 885.727 2476.628 885.818 2476.36 886 C 2476.082 886.239 2475.889 886.562 2475.81 886.92 C 2475.672 887.527 2475.611 888.148 2475.63 888.77 L 2475.64 890.46 Z " fill="rgb(48,86,140)"/><path d=" M 2304.07 983.6 L 2304.6 953.29 L 2311.15 953.29 L 2314.89 972.41 L 2318.89 953.29 L 2325.22 953.29 L 2325.76 983.6 L 2321.27 983.6 L 2320.76 963.06 L 2316.91 983.6 L 2313.05 983.6 L 2309.05 962.91 L 2308.64 983.6 L 2304.07 983.6 Z " fill="rgb(48,86,140)"/><path d=" M 2334.16 983.98 C 2333.219 984.001 2332.295 983.724 2331.52 983.19 C 2330.798 982.681 2330.223 981.991 2329.85 981.19 C 2329.485 980.417 2329.294 979.574 2329.29 978.72 C 2329.254 977.534 2329.526 976.359 2330.08 975.31 C 2330.595 974.4 2331.297 973.609 2332.14 972.99 C 2333.023 972.348 2333.976 971.808 2334.98 971.38 Q 2336.55 970.7 2338.13 970.15 L 2338.13 968.15 C 2338.136 967.733 2338.096 967.318 2338.01 966.91 C 2337.961 966.602 2337.809 966.321 2337.58 966.11 C 2337.322 965.907 2336.998 965.807 2336.67 965.83 C 2336.345 965.809 2336.023 965.893 2335.75 966.07 C 2335.527 966.252 2335.369 966.501 2335.3 966.78 C 2335.211 967.107 2335.154 967.442 2335.13 967.78 L 2335.02 969.28 L 2329.67 969.05 C 2329.79 966.51 2330.46 964.62 2331.67 963.4 C 2332.88 962.18 2334.67 961.57 2337.15 961.57 C 2338.962 961.417 2340.748 962.081 2342.02 963.38 C 2343.109 964.724 2343.668 966.421 2343.59 968.15 L 2343.59 978.22 C 2343.59 979.07 2343.59 979.82 2343.59 980.48 C 2343.59 981.14 2343.68 981.73 2343.74 982.24 C 2343.8 982.75 2343.86 983.24 2343.91 983.57 L 2338.82 983.57 C 2338.75 983.02 2338.66 982.42 2338.56 981.78 C 2338.46 981.14 2338.39 980.69 2338.34 980.47 C 2338.077 981.38 2337.589 982.209 2336.92 982.88 C 2336.189 983.608 2335.192 984.005 2334.16 983.98 L 2334.16 983.98 Z  M 2336.22 979.98 C 2336.492 979.981 2336.759 979.916 2337 979.79 C 2337.248 979.672 2337.471 979.509 2337.66 979.31 C 2337.84 979.11 2338 978.92 2338.13 978.75 L 2338.13 972.75 C 2337.6 973.07 2337.13 973.39 2336.67 973.75 C 2336.243 974.034 2335.853 974.369 2335.51 974.75 C 2335.188 975.111 2334.933 975.528 2334.76 975.98 C 2334.577 976.472 2334.488 976.995 2334.5 977.52 C 2334.464 978.144 2334.618 978.764 2334.94 979.3 C 2335.221 979.731 2335.706 979.984 2336.22 979.97 L 2336.22 979.98 Z " fill="rgb(48,86,140)"/><path d=" M 2347.33 983.6 L 2347.33 961.97 L 2352.98 961.97 L 2352.98 965.45 C 2353.534 964.396 2354.26 963.443 2355.13 962.63 C 2355.83 962.021 2356.732 961.693 2357.66 961.71 L 2358.13 961.71 C 2358.264 961.721 2358.395 961.751 2358.52 961.8 L 2358.52 967.49 C 2358.215 967.359 2357.901 967.252 2357.58 967.17 C 2357.226 967.086 2356.864 967.043 2356.5 967.04 C 2355.825 967.032 2355.161 967.22 2354.59 967.58 C 2353.961 967.995 2353.415 968.524 2352.98 969.14 L 2352.98 983.6 L 2347.33 983.6 Z " fill="rgb(48,86,140)"/><path d=" M 2361.1 983.6 L 2361.1 953.29 L 2366.76 953.29 L 2366.76 970.35 L 2372.19 961.97 L 2378.47 961.97 L 2372.86 970.77 L 2378.4 983.6 L 2372.3 983.6 L 2368.45 973.16 L 2366.76 975.37 L 2366.76 983.6 L 2361.1 983.6 Z " fill="rgb(48,86,140)"/><path d=" M 2387.11 983.98 C 2385.724 984.023 2384.35 983.721 2383.11 983.1 C 2382.045 982.517 2381.194 981.61 2380.68 980.51 C 2380.1 979.226 2379.82 977.828 2379.86 976.42 L 2379.86 969.16 C 2379.812 967.735 2380.092 966.319 2380.68 965.02 C 2381.208 963.929 2382.074 963.038 2383.15 962.48 C 2384.389 961.856 2385.764 961.554 2387.15 961.6 C 2388.54 961.54 2389.92 961.851 2391.15 962.5 C 2392.173 963.098 2392.968 964.02 2393.41 965.12 C 2393.933 966.453 2394.182 967.878 2394.14 969.31 L 2394.14 973.09 L 2385.46 973.09 L 2385.46 977.28 C 2385.445 977.798 2385.516 978.315 2385.67 978.81 C 2385.76 979.149 2385.965 979.446 2386.25 979.65 C 2386.527 979.826 2386.852 979.914 2387.18 979.9 C 2387.505 979.909 2387.825 979.822 2388.1 979.65 C 2388.375 979.471 2388.58 979.202 2388.68 978.89 C 2388.818 978.44 2388.882 977.971 2388.87 977.5 L 2388.87 975.44 L 2394.11 975.44 L 2394.11 977.24 C 2394.237 979.085 2393.584 980.899 2392.31 982.24 C 2390.876 983.486 2389.005 984.112 2387.11 983.98 L 2387.11 983.98 Z  M 2385.42 970.39 L 2388.83 970.39 L 2388.83 968.26 C 2388.841 967.747 2388.777 967.235 2388.64 966.74 C 2388.548 966.407 2388.343 966.117 2388.06 965.92 C 2387.756 965.748 2387.409 965.664 2387.06 965.68 C 2386.734 965.667 2386.411 965.758 2386.14 965.94 C 2385.86 966.176 2385.669 966.501 2385.6 966.86 C 2385.452 967.465 2385.388 968.088 2385.41 968.71 L 2385.42 970.39 Z " fill="rgb(48,86,140)"/><path d=" M 2403.98 983.83 C 2402.767 983.892 2401.557 983.652 2400.46 983.13 C 2399.648 982.705 2399.024 981.991 2398.71 981.13 C 2398.357 980.108 2398.191 979.031 2398.22 977.95 L 2398.22 965.68 L 2396.09 965.68 L 2396.09 961.97 L 2398.22 961.97 L 2398.22 955.42 L 2403.94 955.42 L 2403.94 961.97 L 2407.09 961.97 L 2407.09 965.68 L 2403.94 965.68 L 2403.94 977.43 C 2403.888 977.962 2404.075 978.49 2404.45 978.87 C 2404.851 979.174 2405.347 979.327 2405.85 979.3 C 2406.138 979.301 2406.425 979.281 2406.71 979.24 L 2407.46 979.15 L 2407.46 983.56 C 2407.11 983.56 2406.61 983.67 2405.96 983.73 C 2405.31 983.79 2404.65 983.83 2403.98 983.83 Z " fill="rgb(48,86,140)"/><path d=" M 2410.42 958.42 L 2410.42 954.19 L 2416.1 954.19 L 2416.1 958.42 L 2410.42 958.42 Z  M 2410.42 983.6 L 2410.42 961.97 L 2416.07 961.97 L 2416.07 983.6 L 2410.42 983.6 Z " fill="rgb(48,86,140)"/><path d=" M 2420 983.6 L 2420 961.97 L 2425.65 961.97 L 2425.65 964.14 C 2426.371 963.406 2427.197 962.783 2428.1 962.29 C 2428.944 961.833 2429.89 961.596 2430.85 961.6 C 2431.635 961.564 2432.409 961.801 2433.04 962.27 C 2433.611 962.739 2434.043 963.354 2434.29 964.05 C 2434.572 964.849 2434.711 965.692 2434.7 966.54 L 2434.7 983.6 L 2429.09 983.6 L 2429.09 967.47 C 2429.122 967.006 2429.025 966.542 2428.81 966.13 C 2428.559 965.8 2428.151 965.628 2427.74 965.68 C 2427.393 965.689 2427.053 965.77 2426.74 965.92 C 2426.349 966.097 2425.98 966.319 2425.64 966.58 L 2425.64 983.58 L 2420 983.6 Z " fill="rgb(48,86,140)"/><path d=" M 2445.18 990.9 C 2443.798 990.923 2442.419 990.762 2441.08 990.42 C 2440.072 990.171 2439.141 989.676 2438.37 988.98 C 2437.708 988.339 2437.346 987.451 2437.37 986.53 C 2437.358 985.897 2437.506 985.271 2437.8 984.71 C 2438.093 984.164 2438.499 983.687 2438.99 983.31 C 2439.512 982.922 2440.072 982.587 2440.66 982.31 C 2439.899 982.115 2439.207 981.713 2438.66 981.15 C 2438.166 980.604 2437.904 979.886 2437.93 979.15 C 2437.906 978.355 2438.13 977.572 2438.57 976.91 C 2439.068 976.201 2439.657 975.559 2440.32 975 C 2439.578 974.376 2439.001 973.579 2438.64 972.68 C 2438.237 971.565 2438.047 970.385 2438.08 969.2 C 2438.037 967.778 2438.332 966.366 2438.94 965.08 C 2439.491 963.98 2440.377 963.083 2441.47 962.52 C 2442.711 961.903 2444.085 961.6 2445.47 961.64 C 2446.464 961.616 2447.454 961.775 2448.39 962.11 C 2449.173 962.391 2449.876 962.858 2450.44 963.47 C 2450.752 963.032 2451.118 962.636 2451.53 962.29 C 2452.02 961.87 2452.561 961.514 2453.14 961.23 L 2453.89 960.89 L 2455.23 963.73 C 2454.98 963.81 2454.64 963.93 2454.23 964.11 C 2453.82 964.29 2453.35 964.47 2452.92 964.67 C 2452.49 964.87 2452.11 965.06 2451.81 965.23 C 2452.084 965.827 2452.285 966.455 2452.41 967.1 C 2452.56 967.814 2452.637 968.541 2452.64 969.27 C 2452.673 970.645 2452.404 972.011 2451.85 973.27 C 2451.357 974.359 2450.531 975.262 2449.49 975.85 C 2448.257 976.492 2446.879 976.803 2445.49 976.75 C 2444.893 976.753 2444.298 976.703 2443.71 976.6 C 2443.173 976.504 2442.642 976.377 2442.12 976.22 C 2441.967 976.425 2441.836 976.647 2441.73 976.88 C 2441.616 977.106 2441.558 977.357 2441.56 977.61 C 2441.557 977.909 2441.724 978.184 2441.99 978.32 C 2442.477 978.546 2443.004 978.672 2443.54 978.69 L 2448.74 979.26 C 2450.242 979.33 2451.665 979.949 2452.74 981 C 2453.64 982.067 2454.101 983.436 2454.03 984.83 C 2454.067 986.017 2453.754 987.189 2453.13 988.2 C 2452.435 989.195 2451.429 989.93 2450.27 990.29 C 2448.62 990.781 2446.899 990.987 2445.18 990.9 Z  M 2445.85 986.75 C 2446.913 986.791 2447.976 986.666 2449 986.38 C 2449.66 986.21 2450.111 985.601 2450.08 984.92 C 2450.092 984.603 2449.993 984.292 2449.8 984.04 C 2449.531 983.752 2449.183 983.551 2448.8 983.46 C 2448.17 983.282 2447.523 983.168 2446.87 983.12 L 2442.98 982.75 C 2442.737 982.942 2442.51 983.152 2442.3 983.38 C 2442.114 983.598 2441.953 983.836 2441.82 984.09 C 2441.69 984.347 2441.625 984.632 2441.63 984.92 C 2441.641 985.54 2442.042 986.085 2442.63 986.28 C 2443.656 986.672 2444.753 986.843 2445.85 986.78 L 2445.85 986.75 Z  M 2445.48 973.21 C 2445.828 973.229 2446.175 973.149 2446.48 972.98 C 2446.743 972.815 2446.941 972.564 2447.04 972.27 C 2447.185 971.861 2447.272 971.433 2447.3 971 C 2447.3 970.47 2447.38 969.85 2447.38 969.13 C 2447.38 968.41 2447.38 967.79 2447.3 967.28 C 2447.27 966.844 2447.182 966.413 2447.04 966 C 2446.944 965.699 2446.746 965.441 2446.48 965.27 C 2446.174 965.105 2445.827 965.028 2445.48 965.05 C 2445.133 965.031 2444.787 965.107 2444.48 965.27 C 2444.211 965.434 2444.007 965.684 2443.9 965.98 C 2443.76 966.394 2443.673 966.824 2443.64 967.26 C 2443.64 967.78 2443.57 968.4 2443.57 969.13 C 2443.57 969.86 2443.57 970.43 2443.64 970.94 C 2443.675 971.372 2443.762 971.799 2443.9 972.21 C 2444.003 972.515 2444.203 972.779 2444.47 972.96 C 2444.768 973.16 2445.122 973.258 2445.48 973.24 L 2445.48 973.21 Z " fill="rgb(48,86,140)"/><path d=" M 2466.88 983.6 L 2466.88 965.83 L 2464.76 965.83 L 2464.76 961.97 L 2466.93 961.97 L 2466.93 960.48 C 2466.91 959.344 2467.042 958.211 2467.32 957.11 C 2467.559 956.199 2468.129 955.411 2468.92 954.9 C 2470.042 954.299 2471.31 954.025 2472.58 954.11 C 2473.08 954.11 2473.58 954.11 2473.99 954.11 C 2474.4 954.11 2474.91 954.19 2475.46 954.26 L 2475.46 958.45 C 2475.26 958.45 2475.05 958.36 2474.81 958.32 C 2474.58 958.301 2474.35 958.301 2474.12 958.32 C 2473.682 958.281 2473.252 958.452 2472.96 958.78 C 2472.674 959.218 2472.541 959.738 2472.58 960.26 L 2472.58 961.98 L 2475.46 961.98 L 2475.46 965.84 L 2472.58 965.84 L 2472.58 983.6 L 2466.88 983.6 Z " fill="rgb(48,86,140)"/><path d=" M 2484.54 983.98 C 2483.154 984.024 2481.779 983.722 2480.54 983.1 C 2479.475 982.517 2478.624 981.61 2478.11 980.51 C 2477.527 979.227 2477.243 977.829 2477.28 976.42 L 2477.28 969.16 C 2477.235 967.735 2477.519 966.318 2478.11 965.02 C 2478.638 963.929 2479.504 963.038 2480.58 962.48 C 2481.818 961.855 2483.194 961.552 2484.58 961.6 C 2485.969 961.542 2487.349 961.853 2488.58 962.5 C 2489.601 963.101 2490.395 964.022 2490.84 965.12 C 2491.363 966.453 2491.612 967.878 2491.57 969.31 L 2491.57 973.09 L 2482.86 973.09 L 2482.86 977.28 C 2482.845 977.798 2482.916 978.315 2483.07 978.81 C 2483.16 979.149 2483.365 979.446 2483.65 979.65 C 2483.927 979.827 2484.252 979.915 2484.58 979.9 C 2484.905 979.909 2485.225 979.822 2485.5 979.65 C 2485.775 979.471 2485.98 979.202 2486.08 978.89 C 2486.214 978.439 2486.275 977.97 2486.26 977.5 L 2486.26 975.44 L 2491.5 975.44 L 2491.5 977.24 C 2491.625 979.083 2490.976 980.895 2489.71 982.24 C 2488.283 983.478 2486.425 984.103 2484.54 983.98 Z  M 2482.86 970.39 L 2486.26 970.39 L 2486.26 968.26 C 2486.274 967.747 2486.213 967.235 2486.08 966.74 C 2485.988 966.407 2485.783 966.117 2485.5 965.92 C 2485.195 965.749 2484.849 965.666 2484.5 965.68 C 2484.174 965.667 2483.851 965.758 2483.58 965.94 C 2483.3 966.176 2483.109 966.501 2483.04 966.86 C 2482.892 967.465 2482.828 968.088 2482.85 968.71 L 2482.86 970.39 Z " fill="rgb(48,86,140)"/><path d=" M 2501.76 983.98 C 2500.374 984.023 2499 983.721 2497.76 983.1 C 2496.695 982.517 2495.844 981.61 2495.33 980.51 C 2494.75 979.226 2494.47 977.828 2494.51 976.42 L 2494.51 969.16 C 2494.462 967.735 2494.742 966.319 2495.33 965.02 C 2495.858 963.929 2496.724 963.038 2497.8 962.48 C 2499.039 961.856 2500.414 961.554 2501.8 961.6 C 2503.19 961.54 2504.57 961.851 2505.8 962.5 C 2506.823 963.098 2507.618 964.02 2508.06 965.12 C 2508.583 966.453 2508.832 967.878 2508.79 969.31 L 2508.79 973.09 L 2500.11 973.09 L 2500.11 977.28 C 2500.095 977.798 2500.166 978.315 2500.32 978.81 C 2500.41 979.149 2500.615 979.446 2500.9 979.65 C 2501.177 979.826 2501.502 979.914 2501.83 979.9 C 2502.155 979.909 2502.475 979.822 2502.75 979.65 C 2503.025 979.471 2503.23 979.202 2503.33 978.89 C 2503.468 978.44 2503.532 977.971 2503.52 977.5 L 2503.52 975.44 L 2508.76 975.44 L 2508.76 977.24 C 2508.887 979.085 2508.234 980.899 2506.96 982.24 C 2505.526 983.486 2503.655 984.112 2501.76 983.98 L 2501.76 983.98 Z  M 2500.07 970.39 L 2503.48 970.39 L 2503.48 968.26 C 2503.491 967.747 2503.427 967.235 2503.29 966.74 C 2503.215 966.407 2503.028 966.111 2502.76 965.9 C 2502.456 965.728 2502.109 965.644 2501.76 965.66 C 2501.434 965.647 2501.111 965.738 2500.84 965.92 C 2500.56 966.156 2500.369 966.481 2500.3 966.84 C 2500.152 967.445 2500.088 968.068 2500.11 968.69 L 2500.07 970.39 Z " fill="rgb(48,86,140)"/><path d=" M 2304.19 1064.28 L 2304.19 1033.97 L 2311.6 1033.97 C 2313.648 1033.881 2315.692 1034.222 2317.6 1034.97 C 2318.96 1035.581 2320.034 1036.691 2320.6 1038.07 C 2321.254 1039.796 2321.56 1041.635 2321.5 1043.48 L 2321.5 1054.48 C 2321.561 1056.367 2321.255 1058.249 2320.6 1060.02 C 2320.04 1061.427 2318.968 1062.57 2317.6 1063.22 C 2315.73 1063.979 2313.716 1064.321 2311.7 1064.22 L 2304.19 1064.28 Z  M 2310.36 1059.97 L 2311.67 1059.97 C 2312.522 1060.042 2313.377 1059.854 2314.12 1059.43 C 2314.627 1059.035 2314.957 1058.457 2315.04 1057.82 C 2315.172 1056.946 2315.232 1056.063 2315.22 1055.18 L 2315.22 1042.68 C 2315.24 1041.833 2315.16 1040.988 2314.98 1040.16 C 2314.855 1039.575 2314.493 1039.068 2313.98 1038.76 C 2313.239 1038.406 2312.419 1038.251 2311.6 1038.31 L 2310.36 1038.31 L 2310.36 1059.97 Z " fill="rgb(48,86,140)"/><path d=" M 2332.1 1064.65 C 2330.714 1064.7 2329.337 1064.397 2328.1 1063.77 C 2327.033 1063.194 2326.181 1062.289 2325.67 1061.19 C 2325.087 1059.904 2324.803 1058.502 2324.84 1057.09 L 2324.84 1049.83 C 2324.795 1048.408 2325.079 1046.994 2325.67 1045.7 C 2326.197 1044.606 2327.064 1043.712 2328.14 1043.15 C 2329.379 1042.528 2330.754 1042.226 2332.14 1042.27 C 2333.53 1042.209 2334.91 1042.52 2336.14 1043.17 C 2337.166 1043.768 2337.964 1044.689 2338.41 1045.79 C 2338.928 1047.125 2339.176 1048.549 2339.14 1049.98 L 2339.14 1053.76 L 2330.46 1053.76 L 2330.46 1057.95 C 2330.446 1058.471 2330.514 1058.99 2330.66 1059.49 C 2330.754 1059.827 2330.958 1060.123 2331.24 1060.33 C 2331.523 1060.5 2331.85 1060.583 2332.18 1060.57 C 2332.503 1060.576 2332.821 1060.493 2333.1 1060.33 C 2333.375 1060.146 2333.579 1059.875 2333.68 1059.56 C 2333.814 1059.113 2333.874 1058.647 2333.86 1058.18 L 2333.86 1056.12 L 2339.1 1056.12 L 2339.1 1057.9 C 2339.223 1059.745 2338.571 1061.557 2337.3 1062.9 C 2335.869 1064.154 2333.997 1064.784 2332.1 1064.65 Z  M 2330.42 1051.07 L 2333.82 1051.07 L 2333.82 1048.9 C 2333.834 1048.391 2333.773 1047.882 2333.64 1047.39 C 2333.549 1047.054 2333.344 1046.761 2333.06 1046.56 C 2332.755 1046.391 2332.409 1046.308 2332.06 1046.32 C 2331.737 1046.307 2331.418 1046.398 2331.15 1046.58 C 2330.872 1046.819 2330.679 1047.142 2330.6 1047.5 C 2330.462 1048.107 2330.401 1048.728 2330.42 1049.35 L 2330.42 1051.07 Z " fill="rgb(48,86,140)"/><path d=" M 2345.31 1064.28 L 2340.97 1042.65 L 2346.43 1042.65 L 2348.43 1057.2 L 2350.3 1042.65 L 2355.76 1042.65 L 2351.38 1064.28 L 2345.31 1064.28 Z " fill="rgb(48,86,140)"/><path d=" M 2368.17 1064.28 L 2368.17 1046.5 L 2366 1046.5 L 2366 1042.65 L 2368.17 1042.65 L 2368.17 1041.15 C 2368.15 1040.014 2368.282 1038.881 2368.56 1037.78 C 2368.799 1036.872 2369.37 1036.087 2370.16 1035.58 C 2371.28 1034.974 2372.55 1034.7 2373.82 1034.79 C 2374.32 1034.79 2374.82 1034.79 2375.23 1034.79 C 2375.64 1034.79 2376.15 1034.86 2376.7 1034.94 L 2376.7 1039.13 C 2376.486 1039.073 2376.269 1039.03 2376.05 1039 C 2375.822 1038.961 2375.591 1038.941 2375.36 1038.94 C 2374.921 1038.905 2374.491 1039.08 2374.2 1039.41 C 2373.912 1039.847 2373.778 1040.368 2373.82 1040.89 L 2373.82 1042.61 L 2376.7 1042.61 L 2376.7 1046.46 L 2373.82 1046.46 L 2373.82 1064.24 L 2368.17 1064.28 Z " fill="rgb(48,86,140)"/><path d=" M 2385.83 1064.65 C 2384.444 1064.699 2383.068 1064.396 2381.83 1063.77 C 2380.768 1063.188 2379.917 1062.285 2379.4 1061.19 C 2378.817 1059.904 2378.533 1058.502 2378.57 1057.09 L 2378.57 1049.83 C 2378.525 1048.408 2378.809 1046.994 2379.4 1045.7 C 2379.93 1044.608 2380.796 1043.715 2381.87 1043.15 C 2383.11 1042.53 2384.484 1042.227 2385.87 1042.27 C 2387.259 1042.212 2388.639 1042.523 2389.87 1043.17 C 2390.891 1043.771 2391.685 1044.692 2392.13 1045.79 C 2392.652 1047.123 2392.901 1048.548 2392.86 1049.98 L 2392.86 1053.76 L 2384.18 1053.76 L 2384.18 1057.95 C 2384.165 1058.471 2384.236 1058.992 2384.39 1059.49 C 2384.48 1059.829 2384.685 1060.126 2384.97 1060.33 C 2385.25 1060.499 2385.573 1060.583 2385.9 1060.57 C 2386.223 1060.577 2386.542 1060.494 2386.82 1060.33 C 2387.095 1060.146 2387.299 1059.875 2387.4 1059.56 C 2387.538 1059.113 2387.602 1058.647 2387.59 1058.18 L 2387.59 1056.12 L 2392.76 1056.12 L 2392.76 1057.9 C 2392.882 1059.743 2392.234 1061.554 2390.97 1062.9 C 2389.552 1064.135 2387.706 1064.763 2385.83 1064.65 Z  M 2384.15 1051.07 L 2387.56 1051.07 L 2387.56 1048.9 C 2387.571 1048.39 2387.507 1047.881 2387.37 1047.39 C 2387.279 1047.054 2387.074 1046.761 2386.79 1046.56 C 2386.485 1046.389 2386.139 1046.306 2385.79 1046.32 C 2385.464 1046.307 2385.141 1046.398 2384.87 1046.58 C 2384.593 1046.818 2384.402 1047.142 2384.33 1047.5 C 2384.183 1048.105 2384.119 1048.728 2384.14 1049.35 L 2384.15 1051.07 Z " fill="rgb(48,86,140)"/><path d=" M 2403.05 1064.65 C 2401.664 1064.698 2400.288 1064.396 2399.05 1063.77 C 2397.988 1063.188 2397.137 1062.285 2396.62 1061.19 C 2396.04 1059.903 2395.76 1058.501 2395.8 1057.09 L 2395.8 1049.83 C 2395.752 1048.409 2396.032 1046.995 2396.62 1045.7 C 2397.15 1044.608 2398.016 1043.715 2399.09 1043.15 C 2400.33 1042.531 2401.704 1042.229 2403.09 1042.27 C 2404.48 1042.21 2405.86 1042.521 2407.09 1043.17 C 2408.113 1043.768 2408.908 1044.69 2409.35 1045.79 C 2409.872 1047.123 2410.121 1048.548 2410.08 1049.98 L 2410.08 1053.76 L 2401.36 1053.76 L 2401.36 1057.95 C 2401.345 1058.471 2401.416 1058.992 2401.57 1059.49 C 2401.66 1059.829 2401.865 1060.126 2402.15 1060.33 C 2402.43 1060.498 2402.753 1060.582 2403.08 1060.57 C 2403.403 1060.577 2403.722 1060.494 2404 1060.33 C 2404.275 1060.146 2404.479 1059.875 2404.58 1059.56 C 2404.718 1059.113 2404.782 1058.647 2404.77 1058.18 L 2404.77 1056.12 L 2410.01 1056.12 L 2410.01 1057.9 C 2410.133 1059.745 2409.481 1061.557 2408.21 1062.9 C 2406.788 1064.141 2404.933 1064.769 2403.05 1064.65 L 2403.05 1064.65 Z  M 2401.36 1051.07 L 2404.76 1051.07 L 2404.76 1048.9 C 2404.771 1048.39 2404.707 1047.881 2404.57 1047.39 C 2404.479 1047.054 2404.274 1046.761 2403.99 1046.56 C 2403.686 1046.388 2403.339 1046.304 2402.99 1046.32 C 2402.664 1046.307 2402.341 1046.398 2402.07 1046.58 C 2401.793 1046.818 2401.602 1047.142 2401.53 1047.5 C 2401.383 1048.105 2401.319 1048.728 2401.34 1049.35 L 2401.36 1051.07 Z " fill="rgb(48,86,140)"/><path d=" M 2304.19 1145.29 L 2304.19 1114.98 L 2311.86 1114.98 C 2313.088 1114.97 2314.315 1115.084 2315.52 1115.32 C 2316.589 1115.513 2317.609 1115.917 2318.52 1116.51 C 2319.398 1117.098 2320.092 1117.924 2320.52 1118.89 C 2321.025 1120.144 2321.26 1121.489 2321.21 1122.84 C 2321.239 1123.904 2321.062 1124.963 2320.69 1125.96 C 2320.376 1126.748 2319.859 1127.438 2319.19 1127.96 C 2318.487 1128.484 2317.667 1128.828 2316.8 1128.96 C 2317.887 1129.093 2318.921 1129.506 2319.8 1130.16 C 2320.609 1130.806 2321.227 1131.66 2321.59 1132.63 C 2322.018 1133.816 2322.221 1135.07 2322.19 1136.33 C 2322.222 1137.686 2322.026 1139.039 2321.61 1140.33 C 2321.272 1141.375 2320.689 1142.325 2319.91 1143.1 C 2319.122 1143.847 2318.175 1144.404 2317.14 1144.73 C 2315.903 1145.11 2314.614 1145.293 2313.32 1145.27 L 2304.19 1145.29 Z  M 2310.36 1127.22 L 2311.89 1127.22 C 2312.73 1127.268 2313.568 1127.107 2314.33 1126.75 C 2314.878 1126.44 2315.286 1125.932 2315.47 1125.33 C 2315.699 1124.572 2315.807 1123.782 2315.79 1122.99 C 2315.822 1122.219 2315.66 1121.452 2315.32 1120.76 C 2315.005 1120.201 2314.502 1119.772 2313.9 1119.55 C 2313.124 1119.275 2312.303 1119.146 2311.48 1119.17 L 2310.36 1119.17 L 2310.36 1127.22 Z  M 2310.36 1140.95 L 2312.08 1140.95 C 2313.27 1141.088 2314.455 1140.658 2315.28 1139.79 C 2315.942 1138.756 2316.251 1137.535 2316.16 1136.31 C 2316.193 1135.34 2316.054 1134.372 2315.75 1133.45 C 2315.508 1132.783 2315.036 1132.223 2314.42 1131.87 C 2313.657 1131.505 2312.815 1131.334 2311.97 1131.37 L 2310.36 1131.37 L 2310.36 1140.95 Z " fill="rgb(48,86,140)"/><path d=" M 2334.2 1145.7 C 2332.342 1145.806 2330.491 1145.397 2328.85 1144.52 C 2327.578 1143.745 2326.627 1142.538 2326.17 1141.12 C 2325.619 1139.371 2325.359 1137.543 2325.4 1135.71 L 2325.4 1114.98 L 2331.5 1114.98 L 2331.5 1136.57 C 2331.501 1137.31 2331.558 1138.049 2331.67 1138.78 C 2331.747 1139.426 2332.008 1140.037 2332.42 1140.54 C 2332.883 1141.019 2333.536 1141.265 2334.2 1141.21 C 2334.873 1141.268 2335.537 1141.023 2336.01 1140.54 C 2336.42 1140.037 2336.674 1139.425 2336.74 1138.78 C 2336.841 1138.048 2336.891 1137.309 2336.89 1136.57 L 2336.89 1114.98 L 2342.99 1114.98 L 2342.99 1135.71 C 2343.031 1137.543 2342.771 1139.371 2342.22 1141.12 C 2341.764 1142.535 2340.817 1143.741 2339.55 1144.52 C 2337.908 1145.395 2336.058 1145.803 2334.2 1145.7 Z " fill="rgb(48,86,140)"/><path d=" M 2355.15 1145.7 C 2353.531 1145.768 2351.92 1145.423 2350.47 1144.7 C 2349.212 1144.008 2348.22 1142.918 2347.65 1141.6 C 2346.946 1139.92 2346.569 1138.121 2346.54 1136.3 L 2351.86 1135.4 C 2351.885 1136.454 2352.016 1137.502 2352.25 1138.53 C 2352.401 1139.235 2352.748 1139.883 2353.25 1140.4 C 2353.691 1140.813 2354.276 1141.035 2354.88 1141.02 C 2355.521 1141.096 2356.15 1140.806 2356.51 1140.27 C 2356.8 1139.744 2356.948 1139.151 2356.94 1138.55 C 2356.978 1137.413 2356.656 1136.293 2356.02 1135.35 C 2355.322 1134.391 2354.513 1133.518 2353.61 1132.75 L 2350.46 1130.02 C 2349.375 1129.103 2348.446 1128.016 2347.71 1126.8 C 2346.964 1125.449 2346.598 1123.922 2346.65 1122.38 C 2346.511 1120.239 2347.31 1118.144 2348.84 1116.64 C 2350.51 1115.229 2352.658 1114.513 2354.84 1114.64 C 2356.13 1114.594 2357.414 1114.847 2358.59 1115.38 C 2359.508 1115.834 2360.288 1116.524 2360.85 1117.38 C 2361.385 1118.215 2361.765 1119.14 2361.97 1120.11 C 2362.178 1121.078 2362.309 1122.061 2362.36 1123.05 L 2357.09 1123.83 C 2357.053 1123.016 2356.969 1122.205 2356.84 1121.4 C 2356.773 1120.799 2356.541 1120.228 2356.17 1119.75 C 2355.784 1119.33 2355.228 1119.109 2354.66 1119.15 C 2354.016 1119.108 2353.4 1119.418 2353.05 1119.96 C 2352.701 1120.488 2352.517 1121.107 2352.52 1121.74 C 2352.483 1122.671 2352.738 1123.591 2353.25 1124.37 C 2353.835 1125.162 2354.506 1125.886 2355.25 1126.53 L 2358.32 1129.22 C 2359.587 1130.311 2360.691 1131.577 2361.6 1132.98 C 2362.552 1134.55 2363.025 1136.365 2362.96 1138.2 C 2362.972 1139.549 2362.627 1140.877 2361.96 1142.05 C 2361.325 1143.184 2360.387 1144.119 2359.25 1144.75 C 2357.988 1145.415 2356.576 1145.743 2355.15 1145.7 L 2355.15 1145.7 Z " fill="rgb(48,86,140)"/><path d=" M 2365.7 1145.29 L 2365.7 1114.98 L 2373.11 1114.98 C 2375.158 1114.893 2377.201 1115.233 2379.11 1115.98 C 2380.469 1116.597 2381.542 1117.71 2382.11 1119.09 C 2382.757 1120.818 2383.06 1122.656 2383 1124.5 L 2383 1135.5 C 2383.06 1137.387 2382.758 1139.267 2382.11 1141.04 C 2381.55 1142.447 2380.478 1143.59 2379.11 1144.24 C 2377.245 1145.004 2375.233 1145.346 2373.22 1145.24 L 2365.7 1145.29 Z  M 2371.88 1140.99 L 2373.19 1140.99 C 2374.044 1141.063 2374.899 1140.871 2375.64 1140.44 C 2376.145 1140.046 2376.473 1139.466 2376.55 1138.83 C 2376.691 1137.961 2376.754 1137.081 2376.74 1136.2 L 2376.74 1123.7 C 2376.76 1122.85 2376.68 1122.001 2376.5 1121.17 C 2376.366 1120.589 2376.006 1120.085 2375.5 1119.77 C 2374.763 1119.415 2373.946 1119.26 2373.13 1119.32 L 2371.86 1119.32 L 2371.88 1140.99 Z " fill="rgb(48,86,140)"/><path d=" M 2396.24 1145.29 L 2396.24 1123.66 L 2401.89 1123.66 L 2401.89 1127.14 C 2402.444 1126.086 2403.17 1125.133 2404.04 1124.32 C 2404.738 1123.713 2405.635 1123.385 2406.56 1123.4 L 2407.03 1123.4 C 2407.164 1123.409 2407.296 1123.439 2407.42 1123.49 L 2407.42 1129.18 C 2407.119 1129.048 2406.808 1128.941 2406.49 1128.86 C 2406.134 1128.771 2405.767 1128.727 2405.4 1128.73 C 2404.728 1128.723 2404.068 1128.91 2403.5 1129.27 C 2402.871 1129.685 2402.325 1130.214 2401.89 1130.83 L 2401.89 1145.27 L 2396.24 1145.29 Z " fill="rgb(48,86,140)"/><path d=" M 2416.82 1145.66 C 2415.435 1145.706 2414.06 1145.407 2412.82 1144.79 C 2411.755 1144.207 2410.904 1143.3 2410.39 1142.2 C 2409.81 1140.916 2409.53 1139.518 2409.57 1138.11 L 2409.57 1130.9 C 2409.522 1129.475 2409.802 1128.059 2410.39 1126.76 C 2410.918 1125.669 2411.784 1124.778 2412.86 1124.22 C 2414.099 1123.596 2415.474 1123.294 2416.86 1123.34 C 2418.25 1123.28 2419.63 1123.591 2420.86 1124.24 C 2421.883 1124.834 2422.678 1125.753 2423.12 1126.85 C 2423.642 1128.187 2423.891 1129.615 2423.85 1131.05 L 2423.85 1134.83 L 2415.17 1134.83 L 2415.17 1139.02 C 2415.155 1139.538 2415.226 1140.055 2415.38 1140.55 C 2415.47 1140.889 2415.675 1141.186 2415.96 1141.39 C 2416.239 1141.562 2416.562 1141.649 2416.89 1141.64 C 2417.214 1141.644 2417.533 1141.558 2417.81 1141.39 C 2418.083 1141.208 2418.287 1140.941 2418.39 1140.63 C 2418.527 1140.18 2418.592 1139.711 2418.58 1139.24 L 2418.58 1137.18 L 2423.76 1137.18 L 2423.76 1138.9 C 2423.887 1140.745 2423.234 1142.559 2421.96 1143.9 C 2420.544 1145.139 2418.698 1145.771 2416.82 1145.66 Z  M 2415.13 1132.08 L 2418.54 1132.08 L 2418.54 1129.95 C 2418.551 1129.437 2418.487 1128.925 2418.35 1128.43 C 2418.258 1128.097 2418.053 1127.807 2417.77 1127.61 C 2417.466 1127.438 2417.119 1127.354 2416.77 1127.37 C 2416.443 1127.353 2416.119 1127.444 2415.85 1127.63 C 2415.573 1127.864 2415.382 1128.184 2415.31 1128.54 C 2415.163 1129.149 2415.099 1129.774 2415.12 1130.4 L 2415.13 1132.08 Z " fill="rgb(48,86,140)"/><path d=" M 2429.35 1145.29 L 2426.1 1123.66 L 2430.81 1123.66 L 2432.53 1136.72 L 2434.53 1123.66 L 2438.64 1123.66 L 2440.4 1136.95 L 2442.35 1123.66 L 2446.76 1123.66 L 2443.43 1145.29 L 2438.56 1145.29 L 2436.46 1132.46 L 2434.18 1145.29 L 2429.35 1145.29 Z " fill="rgb(48,86,140)"/><path d=" M 2453.76 1145.66 C 2452.819 1145.687 2451.895 1145.414 2451.12 1144.88 C 2450.4 1144.368 2449.825 1143.679 2449.45 1142.88 C 2449.085 1142.107 2448.894 1141.264 2448.89 1140.41 C 2448.849 1139.224 2449.121 1138.047 2449.68 1137 C 2450.177 1136.095 2450.858 1135.305 2451.68 1134.68 C 2452.566 1134.038 2453.522 1133.498 2454.53 1133.07 C 2455.53 1132.62 2456.62 1132.21 2457.67 1131.84 L 2457.67 1129.84 C 2457.674 1129.424 2457.637 1129.009 2457.56 1128.6 C 2457.507 1128.294 2457.356 1128.013 2457.13 1127.8 C 2456.869 1127.595 2456.541 1127.495 2456.21 1127.52 C 2455.889 1127.498 2455.569 1127.582 2455.3 1127.76 C 2455.071 1127.936 2454.911 1128.187 2454.85 1128.47 C 2454.756 1128.796 2454.699 1129.131 2454.68 1129.47 L 2454.57 1130.97 L 2449.22 1130.74 C 2449.34 1128.2 2450.01 1126.31 2451.22 1125.09 C 2452.43 1123.87 2454.22 1123.26 2456.7 1123.26 C 2458.509 1123.108 2460.291 1123.771 2461.56 1125.07 C 2462.659 1126.41 2463.222 1128.109 2463.14 1129.84 L 2463.14 1139.9 C 2463.14 1140.75 2463.14 1141.5 2463.14 1142.16 C 2463.14 1142.82 2463.23 1143.41 2463.29 1143.92 C 2463.35 1144.43 2463.41 1144.92 2463.46 1145.25 L 2458.37 1145.25 C 2458.3 1144.7 2458.21 1144.1 2458.11 1143.45 C 2458.01 1142.8 2457.93 1142.37 2457.88 1142.14 C 2457.623 1143.056 2457.134 1143.889 2456.46 1144.56 C 2455.745 1145.276 2454.772 1145.673 2453.76 1145.66 L 2453.76 1145.66 Z  M 2455.81 1141.66 C 2456.085 1141.663 2456.356 1141.597 2456.6 1141.47 C 2456.846 1141.354 2457.067 1141.191 2457.25 1140.99 C 2457.42 1140.815 2457.577 1140.628 2457.72 1140.43 L 2457.72 1134.48 C 2457.2 1134.8 2456.72 1135.12 2456.26 1135.43 C 2455.833 1135.713 2455.443 1136.049 2455.1 1136.43 C 2454.785 1136.797 2454.532 1137.212 2454.35 1137.66 C 2454.17 1138.153 2454.082 1138.675 2454.09 1139.2 C 2454.057 1139.825 2454.214 1140.445 2454.54 1140.98 C 2454.82 1141.424 2455.316 1141.683 2455.84 1141.66 L 2455.81 1141.66 Z " fill="rgb(48,86,140)"/><path d=" M 2466.96 1145.29 L 2466.96 1123.66 L 2472.61 1123.66 L 2472.61 1127.14 C 2473.164 1126.086 2473.89 1125.133 2474.76 1124.32 C 2475.458 1123.713 2476.355 1123.385 2477.28 1123.4 L 2477.75 1123.4 C 2477.884 1123.409 2478.016 1123.439 2478.14 1123.49 L 2478.14 1129.18 C 2477.839 1129.048 2477.528 1128.941 2477.21 1128.86 C 2476.854 1128.771 2476.487 1128.727 2476.12 1128.73 C 2475.448 1128.724 2474.788 1128.911 2474.22 1129.27 C 2473.591 1129.685 2473.045 1130.214 2472.61 1130.83 L 2472.61 1145.27 L 2466.96 1145.29 Z " fill="rgb(48,86,140)"/><path d=" M 2485.48 1145.66 C 2484.002 1145.74 2482.58 1145.085 2481.68 1143.91 C 2480.68 1142.298 2480.214 1140.412 2480.35 1138.52 L 2480.35 1130.58 C 2480.331 1129.313 2480.514 1128.05 2480.89 1126.84 C 2481.199 1125.837 2481.777 1124.938 2482.56 1124.24 C 2483.374 1123.587 2484.397 1123.249 2485.44 1123.29 C 2486.203 1123.288 2486.957 1123.452 2487.65 1123.77 C 2488.34 1124.094 2488.983 1124.511 2489.56 1125.01 L 2489.56 1115.01 L 2495.21 1115.01 L 2495.21 1145.32 L 2489.56 1145.32 L 2489.56 1143.71 C 2488.965 1144.282 2488.292 1144.767 2487.56 1145.15 C 2486.918 1145.486 2486.204 1145.661 2485.48 1145.66 Z  M 2487.76 1141.9 C 2488.048 1141.896 2488.333 1141.838 2488.6 1141.73 C 2488.949 1141.612 2489.284 1141.458 2489.6 1141.27 L 2489.6 1127.52 C 2489.321 1127.371 2489.034 1127.237 2488.74 1127.12 C 2488.452 1127.014 2488.147 1126.96 2487.84 1126.96 C 2487.256 1126.918 2486.708 1127.245 2486.47 1127.78 C 2486.192 1128.409 2486.059 1129.093 2486.08 1129.78 L 2486.08 1138.9 C 2486.074 1139.421 2486.125 1139.94 2486.23 1140.45 C 2486.297 1140.855 2486.477 1141.233 2486.75 1141.54 C 2487.025 1141.79 2487.389 1141.92 2487.76 1141.9 Z " fill="rgb(48,86,140)"/><path d=" M 2505.35 1145.66 C 2503.712 1145.722 2502.099 1145.245 2500.76 1144.3 C 2499.42 1143.209 2498.435 1141.743 2497.93 1140.09 L 2501.93 1138.44 C 2502.214 1139.338 2502.672 1140.171 2503.28 1140.89 C 2503.727 1141.443 2504.399 1141.766 2505.11 1141.77 C 2505.533 1141.8 2505.952 1141.676 2506.29 1141.42 C 2506.56 1141.16 2506.703 1140.794 2506.68 1140.42 C 2506.684 1139.828 2506.47 1139.255 2506.08 1138.81 C 2505.426 1138.087 2504.713 1137.418 2503.95 1136.81 L 2501.95 1135.09 C 2501.006 1134.301 2500.157 1133.405 2499.42 1132.42 C 2498.743 1131.447 2498.393 1130.285 2498.42 1129.1 C 2498.394 1128.014 2498.701 1126.946 2499.3 1126.04 C 2499.889 1125.174 2500.701 1124.483 2501.65 1124.04 C 2502.645 1123.551 2503.741 1123.301 2504.85 1123.31 C 2506.442 1123.243 2508 1123.783 2509.21 1124.82 C 2510.395 1125.906 2511.201 1127.343 2511.51 1128.92 L 2507.85 1130.57 C 2507.704 1130.031 2507.503 1129.508 2507.25 1129.01 C 2507.004 1128.542 2506.663 1128.13 2506.25 1127.8 C 2505.896 1127.482 2505.436 1127.307 2504.96 1127.31 C 2504.559 1127.292 2504.168 1127.441 2503.88 1127.72 C 2503.604 1127.998 2503.456 1128.378 2503.47 1128.77 C 2503.514 1129.313 2503.76 1129.82 2504.16 1130.19 C 2504.766 1130.829 2505.411 1131.43 2506.09 1131.99 L 2508.09 1133.78 C 2508.69 1134.31 2509.27 1134.86 2509.85 1135.45 C 2510.418 1136.044 2510.896 1136.718 2511.27 1137.45 C 2511.654 1138.209 2511.846 1139.05 2511.83 1139.9 C 2511.862 1141.027 2511.548 1142.137 2510.93 1143.08 C 2510.338 1143.955 2509.514 1144.647 2508.55 1145.08 C 2507.537 1145.5 2506.446 1145.698 2505.35 1145.66 L 2505.35 1145.66 Z " fill="rgb(48,86,140)"/><path d=" M 2311.93 1230.47 C 2310.215 1230.562 2308.514 1230.11 2307.07 1229.18 C 2305.834 1228.271 2304.931 1226.982 2304.5 1225.51 C 2303.963 1223.72 2303.707 1221.858 2303.74 1219.99 L 2303.74 1209.9 C 2303.701 1208 2303.964 1206.107 2304.52 1204.29 C 2304.985 1202.796 2305.958 1201.512 2307.27 1200.66 C 2308.89 1199.729 2310.744 1199.285 2312.61 1199.38 C 2314.389 1199.296 2316.159 1199.671 2317.75 1200.47 C 2318.975 1201.156 2319.931 1202.239 2320.46 1203.54 C 2321.045 1205.04 2321.327 1206.641 2321.29 1208.25 L 2321.29 1210.01 L 2315.29 1210.01 L 2315.29 1207.88 C 2315.296 1207.17 2315.246 1206.462 2315.14 1205.76 C 2315.073 1205.218 2314.831 1204.712 2314.45 1204.32 C 2313.959 1203.928 2313.335 1203.742 2312.71 1203.8 C 2312.045 1203.74 2311.387 1203.973 2310.91 1204.44 C 2310.521 1204.899 2310.274 1205.462 2310.2 1206.06 C 2310.097 1206.762 2310.047 1207.471 2310.05 1208.18 L 2310.05 1221.61 C 2310.043 1222.376 2310.12 1223.141 2310.28 1223.89 C 2310.386 1224.489 2310.681 1225.039 2311.12 1225.46 C 2312.181 1226.245 2313.629 1226.245 2314.69 1225.46 C 2315.142 1225.019 2315.449 1224.45 2315.57 1223.83 C 2315.742 1223.062 2315.826 1222.277 2315.82 1221.49 L 2315.82 1218.27 L 2312.82 1218.27 L 2312.82 1214.53 L 2321.35 1214.53 L 2321.35 1230.1 L 2317.35 1230.1 L 2316.98 1227.37 C 2316.591 1228.275 2315.97 1229.062 2315.18 1229.65 C 2314.216 1230.272 2313.074 1230.56 2311.93 1230.47 L 2311.93 1230.47 Z " fill="rgb(48,86,140)"/><path d=" M 2329.56 1230.39 C 2328.619 1230.417 2327.695 1230.144 2326.92 1229.61 C 2326.199 1229.1 2325.624 1228.41 2325.25 1227.61 C 2324.884 1226.838 2324.693 1225.994 2324.69 1225.14 C 2324.65 1223.957 2324.922 1222.784 2325.48 1221.74 C 2325.992 1220.828 2326.695 1220.036 2327.54 1219.42 C 2328.419 1218.772 2329.373 1218.232 2330.38 1217.81 C 2331.38 1217.36 2332.47 1216.95 2333.52 1216.57 L 2333.52 1214.57 C 2333.524 1214.157 2333.487 1213.745 2333.41 1213.34 C 2333.359 1213.03 2333.208 1212.746 2332.98 1212.53 C 2332.717 1212.329 2332.39 1212.23 2332.06 1212.25 C 2331.737 1212.231 2331.418 1212.319 2331.15 1212.5 C 2330.921 1212.676 2330.761 1212.927 2330.7 1213.21 C 2330.606 1213.536 2330.549 1213.871 2330.53 1214.21 L 2330.42 1215.7 L 2325.07 1215.48 Q 2325.25 1211.65 2327.07 1209.83 C 2328.28 1208.61 2330.07 1208 2332.55 1208 C 2334.359 1207.848 2336.141 1208.511 2337.41 1209.81 C 2338.509 1211.15 2339.072 1212.849 2338.99 1214.58 L 2338.99 1224.65 C 2338.99 1225.49 2338.99 1226.25 2338.99 1226.91 C 2338.99 1227.57 2339.08 1228.16 2339.14 1228.67 C 2339.2 1229.18 2339.26 1229.62 2339.31 1230 L 2334.22 1230 C 2334.15 1229.45 2334.06 1228.85 2333.96 1228.2 C 2333.86 1227.55 2333.78 1227.12 2333.73 1226.89 C 2333.471 1227.805 2332.982 1228.638 2332.31 1229.31 C 2331.58 1230.031 2330.586 1230.421 2329.56 1230.39 Z  M 2331.61 1226.39 C 2331.885 1226.393 2332.156 1226.327 2332.4 1226.2 C 2332.648 1226.078 2332.872 1225.912 2333.06 1225.71 C 2333.226 1225.534 2333.38 1225.347 2333.52 1225.15 L 2333.52 1219.2 C 2333 1219.53 2332.52 1219.85 2332.06 1220.2 C 2331.633 1220.483 2331.243 1220.819 2330.9 1221.2 C 2330.227 1221.963 2329.869 1222.953 2329.9 1223.97 C 2329.867 1224.592 2330.024 1225.209 2330.35 1225.74 C 2330.627 1226.163 2331.105 1226.409 2331.61 1226.39 L 2331.61 1226.39 Z " fill="rgb(48,86,140)"/><path d=" M 2342.65 1230.02 L 2342.65 1208.39 L 2348.15 1208.39 L 2348.15 1210.19 C 2348.836 1209.453 2349.671 1208.87 2350.6 1208.48 C 2351.442 1208.152 2352.337 1207.982 2353.24 1207.98 C 2354.045 1207.963 2354.836 1208.19 2355.51 1208.63 C 2356.183 1209.125 2356.675 1209.828 2356.91 1210.63 C 2357.64 1209.778 2358.548 1209.095 2359.57 1208.63 C 2360.465 1208.236 2361.432 1208.031 2362.41 1208.03 C 2363.163 1208.017 2363.904 1208.225 2364.54 1208.63 C 2365.19 1209.055 2365.698 1209.665 2366 1210.38 C 2366.375 1211.282 2366.556 1212.253 2366.53 1213.23 L 2366.53 1230.07 L 2361.02 1230.07 L 2361.02 1213.74 C 2361.071 1213.222 2360.947 1212.701 2360.67 1212.26 C 2360.397 1211.961 2360.003 1211.803 2359.6 1211.83 C 2359.227 1211.849 2358.861 1211.937 2358.52 1212.09 C 2358.083 1212.275 2357.678 1212.528 2357.32 1212.84 L 2357.32 1230.02 L 2351.89 1230.02 L 2351.89 1213.74 C 2351.941 1213.219 2351.81 1212.696 2351.52 1212.26 C 2351.238 1211.963 2350.839 1211.806 2350.43 1211.83 C 2350.05 1211.846 2349.677 1211.934 2349.33 1212.09 C 2348.903 1212.282 2348.505 1212.535 2348.15 1212.84 L 2348.15 1230.02 L 2342.65 1230.02 Z " fill="rgb(48,86,140)"/><path d=" M 2377.04 1230.39 C 2375.654 1230.44 2374.277 1230.137 2373.04 1229.51 C 2371.968 1228.937 2371.112 1228.032 2370.6 1226.93 C 2370.024 1225.642 2369.744 1224.241 2369.78 1222.83 L 2369.78 1215.57 C 2369.738 1214.149 2370.018 1212.737 2370.6 1211.44 C 2371.133 1210.35 2371.998 1209.458 2373.07 1208.89 C 2374.311 1208.275 2375.685 1207.976 2377.07 1208.02 C 2378.459 1207.956 2379.839 1208.263 2381.07 1208.91 C 2382.094 1209.51 2382.892 1210.431 2383.34 1211.53 C 2383.857 1212.865 2384.105 1214.289 2384.07 1215.72 L 2384.07 1219.5 L 2375.36 1219.5 L 2375.36 1223.69 C 2375.346 1224.211 2375.414 1224.73 2375.56 1225.23 C 2375.654 1225.567 2375.858 1225.863 2376.14 1226.07 C 2376.715 1226.39 2377.415 1226.39 2377.99 1226.07 C 2378.271 1225.893 2378.477 1225.619 2378.57 1225.3 C 2378.715 1224.848 2378.779 1224.374 2378.76 1223.9 L 2378.76 1221.9 L 2384 1221.9 L 2384 1223.7 C 2384.125 1225.545 2383.472 1227.358 2382.2 1228.7 C 2380.77 1229.922 2378.916 1230.529 2377.04 1230.39 Z  M 2375.36 1216.81 L 2378.76 1216.81 L 2378.76 1214.68 C 2378.777 1214.167 2378.713 1213.654 2378.57 1213.16 C 2378.488 1212.823 2378.281 1212.529 2377.99 1212.34 C 2377.689 1212.159 2377.341 1212.072 2376.99 1212.09 C 2376.665 1212.075 2376.344 1212.17 2376.08 1212.36 C 2375.802 1212.595 2375.609 1212.915 2375.53 1213.27 C 2375.392 1213.877 2375.332 1214.498 2375.35 1215.12 L 2375.36 1216.81 Z " fill="rgb(48,86,140)"/><path d=" M 2397.66 1230.02 L 2397.66 1212.24 L 2395.49 1212.24 L 2395.49 1208.39 L 2397.66 1208.39 L 2397.66 1206.9 C 2397.64 1205.768 2397.771 1204.638 2398.05 1203.54 C 2398.281 1202.628 2398.849 1201.839 2399.64 1201.33 C 2400.764 1200.724 2402.037 1200.45 2403.31 1200.54 C 2403.81 1200.54 2404.31 1200.54 2404.71 1200.54 C 2405.11 1200.54 2405.64 1200.61 2406.19 1200.69 L 2406.19 1204.9 C 2405.99 1204.85 2405.77 1204.81 2405.54 1204.77 C 2405.309 1204.731 2405.075 1204.711 2404.84 1204.71 C 2404.401 1204.677 2403.972 1204.851 2403.68 1205.18 C 2403.396 1205.618 2403.265 1206.139 2403.31 1206.66 L 2403.31 1208.38 L 2406.19 1208.38 L 2406.19 1212.23 L 2403.31 1212.23 L 2403.31 1230.01 L 2397.66 1230.02 Z " fill="rgb(48,86,140)"/><path d=" M 2415.32 1230.39 C 2413.934 1230.437 2412.558 1230.134 2411.32 1229.51 C 2410.253 1228.934 2409.401 1228.029 2408.89 1226.93 C 2408.309 1225.643 2408.029 1224.241 2408.07 1222.83 L 2408.07 1215.57 C 2408.023 1214.149 2408.303 1212.736 2408.89 1211.44 C 2409.42 1210.348 2410.286 1209.455 2411.36 1208.89 C 2412.601 1208.275 2413.975 1207.976 2415.36 1208.02 C 2416.749 1207.956 2418.129 1208.263 2419.36 1208.91 C 2420.384 1209.51 2421.182 1210.431 2421.63 1211.53 C 2422.147 1212.865 2422.395 1214.289 2422.36 1215.72 L 2422.36 1219.5 L 2413.68 1219.5 L 2413.68 1223.69 C 2413.662 1224.211 2413.729 1224.731 2413.88 1225.23 C 2413.974 1225.567 2414.178 1225.863 2414.46 1226.07 C 2415.035 1226.39 2415.735 1226.39 2416.31 1226.07 C 2416.588 1225.889 2416.793 1225.617 2416.89 1225.3 C 2417.032 1224.854 2417.097 1224.388 2417.08 1223.92 L 2417.08 1221.9 L 2422.32 1221.9 L 2422.32 1223.7 C 2422.445 1225.545 2421.792 1227.358 2420.52 1228.7 C 2419.079 1229.93 2417.209 1230.538 2415.32 1230.39 L 2415.32 1230.39 Z  M 2413.64 1216.81 L 2417.04 1216.81 L 2417.04 1214.68 C 2417.057 1214.167 2416.993 1213.654 2416.85 1213.16 C 2416.765 1212.824 2416.558 1212.532 2416.27 1212.34 C 2415.969 1212.159 2415.621 1212.072 2415.27 1212.09 C 2414.942 1212.077 2414.619 1212.172 2414.35 1212.36 C 2414.079 1212.599 2413.89 1212.917 2413.81 1213.27 C 2413.672 1213.877 2413.612 1214.498 2413.63 1215.12 L 2413.64 1216.81 Z " fill="rgb(48,86,140)"/><path d=" M 2432.53 1230.39 C 2431.144 1230.44 2429.767 1230.137 2428.53 1229.51 C 2427.461 1228.937 2426.608 1228.031 2426.1 1226.93 C 2425.516 1225.644 2425.232 1224.242 2425.27 1222.83 L 2425.27 1215.57 C 2425.226 1214.148 2425.51 1212.735 2426.1 1211.44 C 2426.627 1210.346 2427.494 1209.452 2428.57 1208.89 C 2429.81 1208.272 2431.185 1207.973 2432.57 1208.02 C 2433.958 1207.959 2435.338 1208.266 2436.57 1208.91 C 2437.589 1209.514 2438.383 1210.434 2438.83 1211.53 C 2439.352 1212.864 2439.6 1214.289 2439.56 1215.72 L 2439.56 1219.5 L 2430.88 1219.5 L 2430.88 1223.69 C 2430.866 1224.211 2430.934 1224.73 2431.08 1225.23 C 2431.174 1225.567 2431.378 1225.863 2431.66 1226.07 C 2431.943 1226.24 2432.27 1226.323 2432.6 1226.31 C 2432.923 1226.316 2433.241 1226.233 2433.52 1226.07 C 2433.795 1225.886 2433.999 1225.615 2434.1 1225.3 C 2434.234 1224.853 2434.294 1224.387 2434.28 1223.92 L 2434.28 1221.9 L 2439.52 1221.9 L 2439.52 1223.7 C 2439.644 1225.543 2438.995 1227.354 2437.73 1228.7 C 2436.288 1229.928 2434.419 1230.536 2432.53 1230.39 Z  M 2430.85 1216.81 L 2434.25 1216.81 L 2434.25 1214.68 C 2434.264 1214.167 2434.204 1213.655 2434.07 1213.16 C 2433.981 1212.826 2433.775 1212.535 2433.49 1212.34 C 2433.188 1212.163 2432.84 1212.076 2432.49 1212.09 C 2432.165 1212.075 2431.844 1212.17 2431.58 1212.36 C 2431.302 1212.595 2431.109 1212.915 2431.03 1213.27 C 2430.892 1213.877 2430.832 1214.498 2430.85 1215.12 L 2430.85 1216.81 Z " fill="rgb(48,86,140)"/></g></g></g><g style="isolation:isolate"><rect x="1738.44" y="1082.015" width="74.043" height="100.095" transform="matrix(1,0,0,1,0,0)" fill="rgb(41,225,255)"/><path d=" M 1766.542 1235.417 L 1766.542 1240.263 L 1747.493 1240.263 L 1747.493 1236.256 L 1754.333 1229.341 L 1754.333 1229.341 Q 1757.371 1226.228 1758.303 1225.026 L 1758.303 1225.026 L 1758.303 1225.026 Q 1759.235 1223.823 1759.645 1222.798 L 1759.645 1222.798 L 1759.645 1222.798 Q 1760.055 1221.773 1760.055 1220.673 L 1760.055 1220.673 L 1760.055 1220.673 Q 1760.055 1219.033 1759.151 1218.232 L 1759.151 1218.232 L 1759.151 1218.232 Q 1758.247 1217.43 1756.738 1217.43 L 1756.738 1217.43 L 1756.738 1217.43 Q 1755.153 1217.43 1753.662 1218.157 L 1753.662 1218.157 L 1753.662 1218.157 Q 1752.171 1218.884 1750.549 1220.226 L 1750.549 1220.226 L 1747.418 1216.517 L 1747.418 1216.517 Q 1749.431 1214.802 1750.754 1214.094 L 1750.754 1214.094 L 1750.754 1214.094 Q 1752.078 1213.385 1753.644 1213.003 L 1753.644 1213.003 L 1753.644 1213.003 Q 1755.209 1212.621 1757.148 1212.621 L 1757.148 1212.621 L 1757.148 1212.621 Q 1759.701 1212.621 1761.658 1213.553 L 1761.658 1213.553 L 1761.658 1213.553 Q 1763.616 1214.485 1764.697 1216.163 L 1764.697 1216.163 L 1764.697 1216.163 Q 1765.778 1217.84 1765.778 1220.002 L 1765.778 1220.002 L 1765.778 1220.002 Q 1765.778 1221.885 1765.116 1223.535 L 1765.116 1223.535 L 1765.116 1223.535 Q 1764.454 1225.184 1763.066 1226.918 L 1763.066 1226.918 L 1763.066 1226.918 Q 1761.677 1228.651 1758.173 1231.857 L 1758.173 1231.857 L 1754.669 1235.156 L 1754.669 1235.417 L 1766.542 1235.417 L 1766.542 1235.417 Z  M 1773.625 1221.177 L 1773.625 1221.177 L 1773.625 1221.177 Q 1773.625 1223.544 1774.044 1224.709 L 1774.044 1224.709 L 1774.044 1224.709 Q 1774.464 1225.874 1775.396 1225.874 L 1775.396 1225.874 L 1775.396 1225.874 Q 1777.185 1225.874 1777.185 1221.177 L 1777.185 1221.177 L 1777.185 1221.177 Q 1777.185 1216.517 1775.396 1216.517 L 1775.396 1216.517 L 1775.396 1216.517 Q 1774.464 1216.517 1774.044 1217.663 L 1774.044 1217.663 L 1774.044 1217.663 Q 1773.625 1218.809 1773.625 1221.177 Z  M 1781.882 1221.139 L 1781.882 1221.139 L 1781.882 1221.139 Q 1781.882 1225.426 1780.223 1227.579 L 1780.223 1227.579 L 1780.223 1227.579 Q 1778.564 1229.732 1775.358 1229.732 L 1775.358 1229.732 L 1775.358 1229.732 Q 1772.283 1229.732 1770.605 1227.523 L 1770.605 1227.523 L 1770.605 1227.523 Q 1768.928 1225.315 1768.928 1221.139 L 1768.928 1221.139 L 1768.928 1221.139 Q 1768.928 1212.621 1775.358 1212.621 L 1775.358 1212.621 L 1775.358 1212.621 Q 1778.508 1212.621 1780.195 1214.83 L 1780.195 1214.83 L 1780.195 1214.83 Q 1781.882 1217.039 1781.882 1221.139 Z  M 1790.232 1213.013 L 1794.706 1213.013 L 1779.589 1240.263 L 1775.116 1240.263 L 1790.232 1213.013 L 1790.232 1213.013 Z  M 1792.711 1232.062 L 1792.711 1232.062 L 1792.711 1232.062 Q 1792.711 1234.429 1793.131 1235.594 L 1793.131 1235.594 L 1793.131 1235.594 Q 1793.55 1236.759 1794.482 1236.759 L 1794.482 1236.759 L 1794.482 1236.759 Q 1796.272 1236.759 1796.272 1232.062 L 1796.272 1232.062 L 1796.272 1232.062 Q 1796.272 1227.402 1794.482 1227.402 L 1794.482 1227.402 L 1794.482 1227.402 Q 1793.55 1227.402 1793.131 1228.549 L 1793.131 1228.549 L 1793.131 1228.549 Q 1792.711 1229.695 1792.711 1232.062 Z  M 1800.969 1232.025 L 1800.969 1232.025 L 1800.969 1232.025 Q 1800.969 1236.293 1799.31 1238.446 L 1799.31 1238.446 L 1799.31 1238.446 Q 1797.651 1240.599 1794.445 1240.599 L 1794.445 1240.599 L 1794.445 1240.599 Q 1791.369 1240.599 1789.692 1238.39 L 1789.692 1238.39 L 1789.692 1238.39 Q 1788.014 1236.181 1788.014 1232.025 L 1788.014 1232.025 L 1788.014 1232.025 Q 1788.014 1223.507 1794.445 1223.507 L 1794.445 1223.507 L 1794.445 1223.507 Q 1797.595 1223.507 1799.282 1225.715 L 1799.282 1225.715 L 1799.282 1225.715 Q 1800.969 1227.924 1800.969 1232.025 Z " fill="rgb(48,86,140)"/><rect x="1831.679" y="977.807" width="74.043" height="204.304" transform="matrix(1,0,0,1,0,0)" fill="rgb(0,159,175)"/><path d=" M 1860.396 1230.142 L 1860.396 1234.616 L 1857.116 1234.616 L 1857.116 1240.263 L 1851.487 1240.263 L 1851.487 1234.616 L 1839.856 1234.616 L 1839.856 1230.608 L 1851.804 1213.013 L 1857.116 1213.013 L 1857.116 1230.142 L 1860.396 1230.142 L 1860.396 1230.142 Z  M 1844.926 1230.142 L 1851.487 1230.142 L 1851.487 1225.52 L 1851.487 1225.52 Q 1851.487 1224.364 1851.58 1222.165 L 1851.58 1222.165 L 1851.58 1222.165 Q 1851.673 1219.965 1851.729 1219.611 L 1851.729 1219.611 L 1851.58 1219.611 L 1851.58 1219.611 Q 1850.89 1221.139 1849.921 1222.593 L 1849.921 1222.593 L 1844.926 1230.142 L 1844.926 1230.142 Z  M 1866.864 1221.177 L 1866.864 1221.177 L 1866.864 1221.177 Q 1866.864 1223.544 1867.283 1224.709 L 1867.283 1224.709 L 1867.283 1224.709 Q 1867.703 1225.874 1868.635 1225.874 L 1868.635 1225.874 L 1868.635 1225.874 Q 1870.424 1225.874 1870.424 1221.177 L 1870.424 1221.177 L 1870.424 1221.177 Q 1870.424 1216.517 1868.635 1216.517 L 1868.635 1216.517 L 1868.635 1216.517 Q 1867.703 1216.517 1867.283 1217.663 L 1867.283 1217.663 L 1867.283 1217.663 Q 1866.864 1218.809 1866.864 1221.177 Z  M 1875.121 1221.139 L 1875.121 1221.139 L 1875.121 1221.139 Q 1875.121 1225.426 1873.462 1227.579 L 1873.462 1227.579 L 1873.462 1227.579 Q 1871.803 1229.732 1868.598 1229.732 L 1868.598 1229.732 L 1868.598 1229.732 Q 1865.522 1229.732 1863.845 1227.523 L 1863.845 1227.523 L 1863.845 1227.523 Q 1862.167 1225.315 1862.167 1221.139 L 1862.167 1221.139 L 1862.167 1221.139 Q 1862.167 1212.621 1868.598 1212.621 L 1868.598 1212.621 L 1868.598 1212.621 Q 1871.748 1212.621 1873.434 1214.83 L 1873.434 1214.83 L 1873.434 1214.83 Q 1875.121 1217.039 1875.121 1221.139 Z  M 1883.472 1213.013 L 1887.945 1213.013 L 1872.829 1240.263 L 1868.355 1240.263 L 1883.472 1213.013 L 1883.472 1213.013 Z  M 1885.951 1232.062 L 1885.951 1232.062 L 1885.951 1232.062 Q 1885.951 1234.429 1886.37 1235.594 L 1886.37 1235.594 L 1886.37 1235.594 Q 1886.789 1236.759 1887.721 1236.759 L 1887.721 1236.759 L 1887.721 1236.759 Q 1889.511 1236.759 1889.511 1232.062 L 1889.511 1232.062 L 1889.511 1232.062 Q 1889.511 1227.402 1887.721 1227.402 L 1887.721 1227.402 L 1887.721 1227.402 Q 1886.789 1227.402 1886.37 1228.549 L 1886.37 1228.549 L 1886.37 1228.549 Q 1885.951 1229.695 1885.951 1232.062 Z  M 1894.208 1232.025 L 1894.208 1232.025 L 1894.208 1232.025 Q 1894.208 1236.293 1892.549 1238.446 L 1892.549 1238.446 L 1892.549 1238.446 Q 1890.89 1240.599 1887.684 1240.599 L 1887.684 1240.599 L 1887.684 1240.599 Q 1884.609 1240.599 1882.931 1238.39 L 1882.931 1238.39 L 1882.931 1238.39 Q 1881.254 1236.181 1881.254 1232.025 L 1881.254 1232.025 L 1881.254 1232.025 Q 1881.254 1223.507 1887.684 1223.507 L 1887.684 1223.507 L 1887.684 1223.507 Q 1890.834 1223.507 1892.521 1225.715 L 1892.521 1225.715 L 1892.521 1225.715 Q 1894.208 1227.924 1894.208 1232.025 Z " fill="rgb(48,86,140)"/><path d=" M 1942.713 1240.263 L 1936.674 1240.263 L 1946.907 1217.896 L 1933.468 1217.896 L 1933.468 1213.05 L 1953.02 1213.05 L 1953.02 1216.666 L 1942.713 1240.263 L 1942.713 1240.263 Z  M 1960.103 1221.177 L 1960.103 1221.177 L 1960.103 1221.177 Q 1960.103 1223.544 1960.523 1224.709 L 1960.523 1224.709 L 1960.523 1224.709 Q 1960.942 1225.874 1961.874 1225.874 L 1961.874 1225.874 L 1961.874 1225.874 Q 1963.663 1225.874 1963.663 1221.177 L 1963.663 1221.177 L 1963.663 1221.177 Q 1963.663 1216.517 1961.874 1216.517 L 1961.874 1216.517 L 1961.874 1216.517 Q 1960.942 1216.517 1960.523 1217.663 L 1960.523 1217.663 L 1960.523 1217.663 Q 1960.103 1218.809 1960.103 1221.177 Z  M 1968.361 1221.139 L 1968.361 1221.139 L 1968.361 1221.139 Q 1968.361 1225.426 1966.702 1227.579 L 1966.702 1227.579 L 1966.702 1227.579 Q 1965.043 1229.732 1961.837 1229.732 L 1961.837 1229.732 L 1961.837 1229.732 Q 1958.761 1229.732 1957.084 1227.523 L 1957.084 1227.523 L 1957.084 1227.523 Q 1955.406 1225.315 1955.406 1221.139 L 1955.406 1221.139 L 1955.406 1221.139 Q 1955.406 1212.621 1961.837 1212.621 L 1961.837 1212.621 L 1961.837 1212.621 Q 1964.987 1212.621 1966.674 1214.83 L 1966.674 1214.83 L 1966.674 1214.83 Q 1968.361 1217.039 1968.361 1221.139 Z  M 1976.711 1213.013 L 1981.184 1213.013 L 1966.068 1240.263 L 1961.594 1240.263 L 1976.711 1213.013 L 1976.711 1213.013 Z  M 1979.19 1232.062 L 1979.19 1232.062 L 1979.19 1232.062 Q 1979.19 1234.429 1979.609 1235.594 L 1979.609 1235.594 L 1979.609 1235.594 Q 1980.029 1236.759 1980.961 1236.759 L 1980.961 1236.759 L 1980.961 1236.759 Q 1982.75 1236.759 1982.75 1232.062 L 1982.75 1232.062 L 1982.75 1232.062 Q 1982.75 1227.402 1980.961 1227.402 L 1980.961 1227.402 L 1980.961 1227.402 Q 1980.029 1227.402 1979.609 1228.549 L 1979.609 1228.549 L 1979.609 1228.549 Q 1979.19 1229.695 1979.19 1232.062 Z  M 1987.447 1232.025 L 1987.447 1232.025 L 1987.447 1232.025 Q 1987.447 1236.293 1985.788 1238.446 L 1985.788 1238.446 L 1985.788 1238.446 Q 1984.129 1240.599 1980.923 1240.599 L 1980.923 1240.599 L 1980.923 1240.599 Q 1977.848 1240.599 1976.17 1238.39 L 1976.17 1238.39 L 1976.17 1238.39 Q 1974.493 1236.181 1974.493 1232.025 L 1974.493 1232.025 L 1974.493 1232.025 Q 1974.493 1223.507 1980.923 1223.507 L 1980.923 1223.507 L 1980.923 1223.507 Q 1984.073 1223.507 1985.76 1225.715 L 1985.76 1225.715 L 1985.76 1225.715 Q 1987.447 1227.924 1987.447 1232.025 Z " fill="rgb(48,86,140)"/><rect x="1924.919" y="864" width="74.043" height="318.11" transform="matrix(1,0,0,1,0,0)" fill="rgb(131,223,255)"/><rect x="1645.201" y="1134.12" width="74.043" height="47.991" transform="matrix(1,0,0,1,0,0)" fill="rgb(77,201,255)"/><path d=" M 1668.494 1213.013 L 1668.494 1240.263 L 1662.734 1240.263 L 1662.734 1224.494 L 1662.79 1221.904 L 1662.883 1219.07 L 1662.883 1219.07 Q 1661.448 1220.506 1660.889 1220.953 L 1660.889 1220.953 L 1657.757 1223.469 L 1654.98 1220.002 L 1663.759 1213.013 L 1668.494 1213.013 L 1668.494 1213.013 Z  M 1680.386 1221.177 L 1680.386 1221.177 L 1680.386 1221.177 Q 1680.386 1223.544 1680.805 1224.709 L 1680.805 1224.709 L 1680.805 1224.709 Q 1681.224 1225.874 1682.156 1225.874 L 1682.156 1225.874 L 1682.156 1225.874 Q 1683.946 1225.874 1683.946 1221.177 L 1683.946 1221.177 L 1683.946 1221.177 Q 1683.946 1216.517 1682.156 1216.517 L 1682.156 1216.517 L 1682.156 1216.517 Q 1681.224 1216.517 1680.805 1217.663 L 1680.805 1217.663 L 1680.805 1217.663 Q 1680.386 1218.809 1680.386 1221.177 Z  M 1688.643 1221.139 L 1688.643 1221.139 L 1688.643 1221.139 Q 1688.643 1225.426 1686.984 1227.579 L 1686.984 1227.579 L 1686.984 1227.579 Q 1685.325 1229.732 1682.119 1229.732 L 1682.119 1229.732 L 1682.119 1229.732 Q 1679.044 1229.732 1677.366 1227.523 L 1677.366 1227.523 L 1677.366 1227.523 Q 1675.688 1225.315 1675.688 1221.139 L 1675.688 1221.139 L 1675.688 1221.139 Q 1675.688 1212.621 1682.119 1212.621 L 1682.119 1212.621 L 1682.119 1212.621 Q 1685.269 1212.621 1686.956 1214.83 L 1686.956 1214.83 L 1686.956 1214.83 Q 1688.643 1217.039 1688.643 1221.139 Z  M 1696.993 1213.013 L 1701.467 1213.013 L 1686.35 1240.263 L 1681.877 1240.263 L 1696.993 1213.013 L 1696.993 1213.013 Z  M 1699.472 1232.062 L 1699.472 1232.062 L 1699.472 1232.062 Q 1699.472 1234.429 1699.892 1235.594 L 1699.892 1235.594 L 1699.892 1235.594 Q 1700.311 1236.759 1701.243 1236.759 L 1701.243 1236.759 L 1701.243 1236.759 Q 1703.032 1236.759 1703.032 1232.062 L 1703.032 1232.062 L 1703.032 1232.062 Q 1703.032 1227.402 1701.243 1227.402 L 1701.243 1227.402 L 1701.243 1227.402 Q 1700.311 1227.402 1699.892 1228.549 L 1699.892 1228.549 L 1699.892 1228.549 Q 1699.472 1229.695 1699.472 1232.062 Z  M 1707.729 1232.025 L 1707.729 1232.025 L 1707.729 1232.025 Q 1707.729 1236.293 1706.07 1238.446 L 1706.07 1238.446 L 1706.07 1238.446 Q 1704.412 1240.599 1701.206 1240.599 L 1701.206 1240.599 L 1701.206 1240.599 Q 1698.13 1240.599 1696.453 1238.39 L 1696.453 1238.39 L 1696.453 1238.39 Q 1694.775 1236.181 1694.775 1232.025 L 1694.775 1232.025 L 1694.775 1232.025 Q 1694.775 1223.507 1701.206 1223.507 L 1701.206 1223.507 L 1701.206 1223.507 Q 1704.356 1223.507 1706.043 1225.715 L 1706.043 1225.715 L 1706.043 1225.715 Q 1707.729 1227.924 1707.729 1232.025 Z " fill="rgb(48,86,140)"/><rect x="2018.158" y="1134.12" width="74.043" height="47.991" transform="matrix(1,0,0,1,0,0)" fill="rgb(197,244,255)"/><rect x="1645.201" y="1186.737" width="447" height="8.097" transform="matrix(1,0,0,1,0,0)" fill="rgb(48,86,140)"/><path d=" M 2041.451 1213.013 L 2041.451 1240.263 L 2035.691 1240.263 L 2035.691 1224.494 L 2035.747 1221.904 L 2035.84 1219.07 L 2035.84 1219.07 Q 2034.405 1220.506 2033.846 1220.953 L 2033.846 1220.953 L 2030.715 1223.469 L 2027.937 1220.002 L 2036.716 1213.013 L 2041.451 1213.013 L 2041.451 1213.013 Z  M 2053.343 1221.177 L 2053.343 1221.177 L 2053.343 1221.177 Q 2053.343 1223.544 2053.762 1224.709 L 2053.762 1224.709 L 2053.762 1224.709 Q 2054.181 1225.874 2055.113 1225.874 L 2055.113 1225.874 L 2055.113 1225.874 Q 2056.903 1225.874 2056.903 1221.177 L 2056.903 1221.177 L 2056.903 1221.177 Q 2056.903 1216.517 2055.113 1216.517 L 2055.113 1216.517 L 2055.113 1216.517 Q 2054.181 1216.517 2053.762 1217.663 L 2053.762 1217.663 L 2053.762 1217.663 Q 2053.343 1218.809 2053.343 1221.177 Z  M 2061.6 1221.139 L 2061.6 1221.139 L 2061.6 1221.139 Q 2061.6 1225.426 2059.941 1227.579 L 2059.941 1227.579 L 2059.941 1227.579 Q 2058.282 1229.732 2055.076 1229.732 L 2055.076 1229.732 L 2055.076 1229.732 Q 2052.001 1229.732 2050.323 1227.523 L 2050.323 1227.523 L 2050.323 1227.523 Q 2048.646 1225.315 2048.646 1221.139 L 2048.646 1221.139 L 2048.646 1221.139 Q 2048.646 1212.621 2055.076 1212.621 L 2055.076 1212.621 L 2055.076 1212.621 Q 2058.226 1212.621 2059.913 1214.83 L 2059.913 1214.83 L 2059.913 1214.83 Q 2061.6 1217.039 2061.6 1221.139 Z  M 2069.95 1213.013 L 2074.424 1213.013 L 2059.307 1240.263 L 2054.834 1240.263 L 2069.95 1213.013 L 2069.95 1213.013 Z  M 2072.429 1232.062 L 2072.429 1232.062 L 2072.429 1232.062 Q 2072.429 1234.429 2072.849 1235.594 L 2072.849 1235.594 L 2072.849 1235.594 Q 2073.268 1236.759 2074.2 1236.759 L 2074.2 1236.759 L 2074.2 1236.759 Q 2075.989 1236.759 2075.989 1232.062 L 2075.989 1232.062 L 2075.989 1232.062 Q 2075.989 1227.402 2074.2 1227.402 L 2074.2 1227.402 L 2074.2 1227.402 Q 2073.268 1227.402 2072.849 1228.549 L 2072.849 1228.549 L 2072.849 1228.549 Q 2072.429 1229.695 2072.429 1232.062 Z  M 2080.686 1232.025 L 2080.686 1232.025 L 2080.686 1232.025 Q 2080.686 1236.293 2079.028 1238.446 L 2079.028 1238.446 L 2079.028 1238.446 Q 2077.369 1240.599 2074.163 1240.599 L 2074.163 1240.599 L 2074.163 1240.599 Q 2071.087 1240.599 2069.41 1238.39 L 2069.41 1238.39 L 2069.41 1238.39 Q 2067.732 1236.181 2067.732 1232.025 L 2067.732 1232.025 L 2067.732 1232.025 Q 2067.732 1223.507 2074.163 1223.507 L 2074.163 1223.507 L 2074.163 1223.507 Q 2077.313 1223.507 2079 1225.715 L 2079 1225.715 L 2079 1225.715 Q 2080.686 1227.924 2080.686 1232.025 Z " fill="rgb(48,86,140)"/></g></g></svg>