<svg width="121" height="121" viewBox="0 0 121 121" fill="none" xmlns="http://www.w3.org/2000/svg">
<g id="Group 45">
<g id="Asistant">
<g id="Asistant_2">
<g id="Group 40">
<g id="Group 34">
<circle id="Ellipse 10" cx="60.5" cy="60.5" r="59.5" fill="#FF3131" stroke="black" stroke-width="2"/>
</g>
</g>
</g>
</g>
<path id="Vector" d="M59.7494 23C43.6207 23 28.7158 33.1025 31.5184 57.1398C31.0191 57.5407 30.5371 57.9708 30.1647 58.5025C28.7129 60.5654 28 63.2472 28 66.1294C28 69.7468 30.1185 72.5303 32.3295 74.5729C33.9458 76.0692 35.5996 77.1123 37.47 77.6614C38.942 82.4265 41.6522 86.378 44.8676 89.1004C45.1536 89.3731 45.4921 89.584 45.8622 89.72C46.2322 89.856 46.626 89.9143 47.0193 89.8914C47.4126 89.8684 47.7971 89.7646 48.149 89.5864C48.501 89.4082 48.813 89.1594 49.0658 88.8552C49.3186 88.5511 49.5069 88.198 49.619 87.8178C49.7312 87.4377 49.7648 87.0384 49.7179 86.6447C49.671 86.2509 49.5445 85.871 49.3462 85.5283C49.1479 85.1856 48.882 84.8874 48.5649 84.6521C45.6613 82.1911 43.2339 78.905 42.342 74.6629C42.1992 74.0222 41.8449 73.4491 41.337 73.037C40.8291 72.6249 40.1975 72.3981 39.5452 72.3937C39.9002 72.3937 37.6807 71.6673 36.2087 70.3047C34.7366 68.942 33.7726 67.2393 33.7726 66.1294C33.7726 64.7813 34.093 63.6539 34.4942 62.7707C34.8862 63.2186 35.4058 63.5341 35.9823 63.6743C36.5587 63.8145 37.1641 63.7725 37.716 63.5541C38.2679 63.3357 38.7396 62.9514 39.0669 62.4535C39.3942 61.9557 39.5612 61.3684 39.5452 60.7717V58.3194C39.5495 58.2284 39.5495 58.1373 39.5452 58.0463C39.6607 55.9756 39.931 54.0696 40.3563 52.3282C44.3365 50.951 47.65 53.1854 51.0904 42.9754C56.1126 58.0056 69.1183 49.4082 78.0601 48.9695C79.1107 51.5409 79.763 54.5626 79.9535 58.0463C79.9492 58.1373 79.9492 58.2284 79.9535 58.3194V60.7717C79.9535 61.5423 80.2576 62.2813 80.7989 62.8262C81.3401 63.3711 82.0743 63.6772 82.8398 63.6772V70.8509C81.5871 71.8417 80.1988 72.3937 79.9535 72.3937C79.3012 72.3981 78.6696 72.6249 78.1617 73.037C77.6538 73.4491 77.2995 74.0222 77.1567 74.6629C76.5678 77.4697 75.2575 79.8318 73.6411 81.8366C73.3984 82.1346 73.2163 82.4778 73.1053 82.8467C72.9943 83.2155 72.9565 83.6028 72.9942 83.9863C73.0318 84.3698 73.1441 84.7421 73.3247 85.0819C73.5053 85.4217 73.7506 85.7224 74.0467 85.9668C74.3427 86.2112 74.6836 86.3945 75.05 86.5063C75.4164 86.618 75.8011 86.656 76.1821 86.6181C76.5631 86.5802 76.9329 86.4671 77.2705 86.2853C77.6081 86.1035 77.9068 85.8566 78.1495 85.5586C79.8813 83.4114 81.0301 80.6018 81.9393 77.6614C83.6552 77.228 85.256 76.4217 86.6295 75.2992H88.6124C87.9053 79.0212 86.6035 81.8308 85.2758 83.8356C83.3997 86.6685 81.7834 87.6593 81.6679 87.7377C81.5842 87.7813 80.5596 88.3479 77.6069 89.0103C75.3556 89.513 72.1143 90.0505 67.7762 90.2801C67.196 87.0404 63.8248 84.562 59.7494 84.562C55.264 84.562 51.6302 87.5692 51.6302 91.2795C51.6302 94.9899 55.2669 98 59.7494 98C62.552 98 65.0544 96.7913 66.5148 95.0015C71.8545 94.7865 75.9127 94.1705 78.6922 93.5488C82.1153 92.7846 83.8298 91.9159 83.8298 91.9159C83.9246 91.8601 84.0161 91.799 84.104 91.7328C84.104 91.7328 86.6786 89.975 89.0627 86.3779C90.9907 83.4666 92.9014 79.2449 93.574 73.6663C95.6752 72.0828 97 69.494 97 66.5827V60.7717C97 55.9572 93.3921 52.0551 88.6124 52.0551H88.1621C88.1737 31.7223 74.6831 23 59.7494 23ZM84.7332 51.6919C84.8198 51.814 84.9208 51.9244 85.0045 52.0551H84.7332C84.7101 51.936 84.7592 51.8111 84.7332 51.6919ZM48.2041 57.8662C46.6731 57.8662 45.2049 58.4784 44.1223 59.5682C43.0397 60.6579 42.4315 62.136 42.4315 63.6772C42.4315 65.2184 43.0397 66.6964 44.1223 67.7862C45.2049 68.876 46.6731 69.4882 48.2041 69.4882C49.7351 69.4882 51.2034 68.876 52.286 67.7862C53.3686 66.6964 53.9767 65.2184 53.9767 63.6772C53.9767 62.136 53.3686 60.6579 52.286 59.5682C51.2034 58.4784 49.7351 57.8662 48.2041 57.8662ZM71.2946 57.8662C69.7636 57.8662 68.2953 58.4784 67.2127 59.5682C66.1301 60.6579 65.522 62.136 65.522 63.6772C65.522 65.2184 66.1301 66.6964 67.2127 67.7862C68.2953 68.876 69.7636 69.4882 71.2946 69.4882C72.8256 69.4882 74.2938 68.876 75.3764 67.7862C76.459 66.6964 77.0672 65.2184 77.0672 63.6772C77.0672 62.136 76.459 60.6579 75.3764 59.5682C74.2938 58.4784 72.8256 57.8662 71.2946 57.8662Z" fill="#FFEA2F"/>
</g>
</svg>
