<svg width="121" height="121" viewBox="0 0 121 121" fill="none" xmlns="http://www.w3.org/2000/svg">
<g id="cashier">
<g id="cashier_2">
<g id="Group 41">
<circle id="Ellipse 10" cx="60.5" cy="60.5" r="59.5" fill="#FF3131" stroke="black" stroke-width="2"/>
</g>
</g>
<g id="Group">
<path id="Vector" d="M84.7273 66.5227L83.4924 55.4087C82.6368 47.7081 82.209 43.8547 79.6178 41.5366C77.0206 39.2155 73.1491 39.2155 65.3999 39.2155H55.5087C47.7595 39.2155 43.8849 39.2155 41.2908 41.5366C38.6996 43.8547 38.2718 47.7081 37.4162 55.4087L36.1813 66.5227M58.9372 30.1132H66.5225M66.5225 30.1132H74.1079M66.5225 30.1132V39.2155M74.6146 66.5227H46.294C39.6614 66.5227 36.3451 66.5227 33.9937 68.1702C33.1259 68.777 32.3674 69.5356 31.7606 70.4033C30.113 72.7548 30.113 76.0711 30.113 82.7037C30.113 86.02 30.113 87.6796 30.9353 88.8538C31.2407 89.2928 31.6139 89.666 32.0549 89.9734C33.2291 90.7957 34.8887 90.7957 38.205 90.7957H82.7035C86.0198 90.7957 87.6795 90.7957 88.8537 89.9734C89.2926 89.666 89.6658 89.2928 89.9733 88.8538C90.7955 87.6796 90.7955 86.02 90.7955 82.7037C90.7955 76.0711 90.7955 72.7548 89.148 70.4033C88.5412 69.5356 87.7827 68.777 86.9149 68.1702C84.5635 66.5227 81.2472 66.5227 74.6146 66.5227Z" stroke="#FFEA2F" stroke-width="5" stroke-linecap="round" stroke-linejoin="round"/>
<path id="Vector_2" d="M51.352 77.1421L54.374 79.1568C55.3713 79.8218 56.5432 80.1765 57.7419 80.1762H63.1669C64.3656 80.1765 65.5375 79.8218 66.5348 79.1568L69.5567 77.1421M48.3179 48.3179H54.3861" stroke="#FFEA2F" stroke-width="5" stroke-linecap="round" stroke-linejoin="round"/>
</g>
</g>
</svg>
