<svg width="121" height="121" viewBox="0 0 121 121" fill="none" xmlns="http://www.w3.org/2000/svg">
<g id="bread">
<g id="Group 41">
<circle id="Ellipse 10" cx="60.5" cy="60.5" r="59.5" fill="#FF3131" stroke="black" stroke-width="2"/>
</g>
<path id="Vector" d="M96.2373 46.0625C96.2334 42.5993 94.8559 39.2791 92.4071 36.8303C89.9582 34.3814 86.638 33.0039 83.1748 33H38.0498C35.1188 33.0028 32.2738 33.9914 29.9725 35.8067C27.6712 37.622 26.0474 40.1586 25.3621 43.0084C24.6768 45.8582 24.9698 48.8558 26.1942 51.5189C27.4186 54.182 29.503 56.3559 32.1123 57.6911V81.6875C32.1123 83.2622 32.7379 84.7724 33.8514 85.8859C34.9649 86.9994 36.4751 87.625 38.0498 87.625H83.1748C84.7496 87.625 86.2598 86.9994 87.3733 85.8859C88.4868 84.7724 89.1123 83.2622 89.1123 81.6875V57.6911C91.2559 56.5972 93.0556 54.9324 94.3129 52.8805C95.5702 50.8285 96.2361 48.469 96.2373 46.0625ZM39.2373 58.9172C40.0268 58.6351 40.6915 58.0835 41.1144 57.3597C41.5373 56.6358 41.6914 55.786 41.5496 54.9597C41.4077 54.1334 40.979 53.3837 40.3389 52.8423C39.6987 52.3009 38.8882 52.0027 38.0498 52C36.4751 52 34.9649 51.3744 33.8514 50.2609C32.7379 49.1474 32.1123 47.6372 32.1123 46.0625C32.1123 44.4878 32.7379 42.9776 33.8514 41.8641C34.9649 40.7506 36.4751 40.125 38.0498 40.125H65.3623C66.9371 40.125 68.4473 40.7506 69.5608 41.8641C70.6743 42.9776 71.2998 44.4878 71.2998 46.0625C71.2998 47.6372 70.6743 49.1474 69.5608 50.2609C68.4473 51.3744 66.9371 52 65.3623 52C64.524 52.0027 63.7134 52.3009 63.0733 52.8423C62.4332 53.3837 62.0044 54.1334 61.8626 54.9597C61.7207 55.786 61.8748 56.6358 62.2978 57.3597C62.7207 58.0835 63.3854 58.6351 64.1748 58.9172V80.5H39.2373V58.9172ZM83.1748 52C82.3365 52.0027 81.5259 52.3009 80.8858 52.8423C80.2457 53.3837 79.8169 54.1334 79.6751 54.9597C79.5332 55.786 79.6873 56.6358 80.1103 57.3597C80.5332 58.0835 81.1979 58.6351 81.9873 58.9172V80.5H71.2998V57.6911C72.8286 56.9132 74.1888 55.8413 75.3026 54.5368C76.4164 53.2323 77.2619 51.7208 77.7905 50.089C78.3192 48.4572 78.5207 46.7371 78.3835 45.0273C78.2463 43.3175 77.7731 41.6516 76.9909 40.125H83.1748C84.7496 40.125 86.2598 40.7506 87.3733 41.8641C88.4868 42.9776 89.1123 44.4878 89.1123 46.0625C89.1123 47.6372 88.4868 49.1474 87.3733 50.2609C86.2598 51.3744 84.7496 52 83.1748 52Z" fill="#FFEA2F"/>
</g>
</svg>
