<svg width="121" height="121" viewBox="0 0 121 121" fill="none" xmlns="http://www.w3.org/2000/svg">
<circle cx="60.5" cy="60.5" r="59.5" fill="#FF3131" stroke="black" stroke-width="2"/>
<path d="M73 61C80.7155 64.8447 86 72.8625 86 83.75V96.75H34V83.75C34 72.8495 39.3008 64.8187 47 61M79.5 44.75C79.5 47.3108 78.9956 49.8465 78.0157 52.2123C77.0357 54.5782 75.5993 56.7278 73.7886 58.5386C71.9778 60.3493 69.8282 61.7857 67.4623 62.7656C65.0965 63.7456 62.5608 64.25 60 64.25C54.8283 64.25 49.8684 62.1955 46.2114 58.5386C42.5545 54.8816 40.5 49.9217 40.5 44.75M79.5 44.75C79.5 42.1892 78.9956 39.6535 78.0157 37.2877C77.0357 34.9218 75.5993 32.7722 73.7886 30.9614C71.9778 29.1507 69.8282 27.7143 67.4623 26.7343C65.0965 25.7544 62.5608 25.25 60 25.25C54.8283 25.25 49.8684 27.3045 46.2114 30.9614C42.5545 34.6184 40.5 39.5783 40.5 44.75M79.5 44.75C74.625 44.75 69.75 45.92 63.25 38.25C56.75 45.92 48.625 48 40.5 44.75M43.75 64.25L60.0812 81.3352L76.25 64.25M60 80.5V96.75" stroke="#FFEA2F" stroke-width="5"/>
</svg>
