<?xml version="1.0" standalone="no"?>
<!DOCTYPE svg PUBLIC "-//W3C//DTD SVG 20010904//EN"
 "http://www.w3.org/TR/2001/REC-SVG-20010904/DTD/svg10.dtd">
<svg version="1.0" xmlns="http://www.w3.org/2000/svg"
 width="348.000000pt" height="348.000000pt" viewBox="0 0 348.000000 348.000000"
 preserveAspectRatio="xMidYMid meet">
<metadata>
Created by potrace 1.14, written by Peter Selinger 2001-2017
</metadata>
<g transform="translate(0.000000,348.000000) scale(0.100000,-0.100000)"
fill="#000000" stroke="none">
<path d="M1588 3475 c-2 -2 -30 -6 -63 -10 -92 -10 -240 -44 -340 -77 -198
-66 -462 -219 -586 -338 -15 -14 -44 -41 -65 -61 -47 -43 -120 -123 -154 -168
-14 -18 -35 -45 -47 -60 -120 -150 -267 -484 -299 -681 -2 -14 -6 -34 -9 -45
-20 -92 -27 -352 -13 -495 51 -511 378 -1018 832 -1289 118 -70 312 -159 386
-176 8 -2 51 -13 95 -24 82 -21 99 -24 215 -40 95 -13 391 -6 489 13 102 19
256 61 325 87 223 88 470 248 616 400 64 66 108 117 135 154 17 22 33 42 36
45 4 3 31 43 61 90 109 169 198 383 238 571 28 132 34 191 35 354 0 167 -7
256 -31 360 -8 39 -17 81 -20 93 -32 155 -203 511 -296 616 -24 26 -63 71 -88
99 -233 263 -544 451 -885 536 -44 11 -99 22 -122 26 -23 3 -57 8 -75 11 -35
6 -365 14 -370 9z"/>
</g>
</svg>
