<?xml version="1.0" standalone="no"?>
<!DOCTYPE svg PUBLIC "-//W3C//DTD SVG 20010904//EN"
 "http://www.w3.org/TR/2001/REC-SVG-20010904/DTD/svg10.dtd">
<svg version="1.0" xmlns="http://www.w3.org/2000/svg"
 width="830.000000pt" height="830.000000pt" viewBox="0 0 830.000000 830.000000"
 preserveAspectRatio="xMidYMid meet">
<metadata>
Created by potrace 1.14, written by Peter Selinger 2001-2017
</metadata>
<g transform="translate(0.000000,830.000000) scale(0.100000,-0.100000)"
fill="#000000" stroke="none">
<path d="M3959 8296 c-2 -2 -26 -6 -54 -10 -27 -3 -68 -8 -90 -11 -22 -3 -71
-12 -110 -21 -38 -9 -81 -18 -95 -20 -14 -3 -36 -9 -50 -14 -14 -5 -45 -14
-70 -20 -138 -35 -415 -153 -580 -247 -85 -49 -166 -99 -195 -120 -6 -5 -33
-23 -60 -42 -206 -142 -463 -381 -640 -596 -22 -26 -44 -53 -50 -59 -5 -6 -30
-38 -55 -71 -25 -33 -48 -62 -51 -65 -3 -3 -14 -20 -24 -37 -11 -18 -23 -33
-27 -33 -4 0 -8 -6 -8 -14 0 -8 -3 -16 -7 -18 -8 -3 -143 -204 -143 -212 0 -2
-18 -34 -40 -70 -22 -36 -40 -70 -40 -75 0 -5 -4 -11 -8 -13 -9 -3 -174 -332
-224 -443 -34 -78 -100 -237 -103 -250 -1 -5 -6 -21 -12 -35 -6 -14 -25 -65
-43 -115 -18 -49 -43 -120 -57 -157 -17 -46 -34 -74 -56 -91 -65 -50 -243
-239 -322 -343 -18 -23 -37 -48 -43 -55 -26 -31 -112 -168 -112 -178 0 -6 -4
-11 -8 -11 -10 0 -131 -240 -166 -330 -30 -77 -75 -215 -82 -250 -3 -14 -9
-39 -14 -55 -11 -35 -38 -169 -46 -230 -3 -22 -7 -51 -10 -65 -19 -112 -26
-560 -11 -675 8 -60 18 -149 22 -190 1 -16 5 -41 9 -55 6 -26 13 -62 22 -120
3 -19 8 -44 11 -55 3 -11 8 -29 9 -40 2 -11 8 -38 14 -60 5 -22 13 -56 16 -75
3 -19 8 -38 11 -42 2 -5 6 -16 8 -25 2 -10 18 -65 36 -123 17 -58 32 -109 33
-115 6 -35 128 -341 178 -448 l51 -107 19 52 c29 84 76 193 147 340 62 130 70
139 81 93 1 -5 7 -19 13 -30 6 -11 12 -25 13 -31 4 -23 67 -190 96 -254 188
-415 436 -741 763 -1002 138 -111 148 -118 157 -118 22 0 2 -18 -50 -45 -68
-35 -124 -72 -134 -88 -4 -7 -8 -9 -8 -4 0 8 -40 -25 -110 -93 -112 -108 -211
-269 -269 -442 -11 -32 -18 -58 -16 -58 2 0 40 18 84 40 117 59 119 59 251 89
112 26 301 21 405 -9 39 -11 75 -22 81 -23 24 -6 174 -83 174 -89 0 -5 5 -8
11 -8 9 0 73 -43 89 -60 3 -3 17 -13 33 -23 28 -18 56 -12 74 16 11 17 108 79
183 117 148 75 259 99 425 94 105 -3 170 -9 170 -14 0 -1 9 -3 19 -5 17 -3 58
-14 76 -20 3 -1 19 -7 35 -14 35 -14 53 -20 60 -21 2 -1 32 -16 66 -35 33 -19
62 -35 64 -35 8 0 -24 112 -37 127 -19 23 2 35 51 29 216 -28 628 -28 920 0
48 4 53 3 46 -13 -20 -46 -47 -135 -42 -139 3 -3 22 5 44 18 59 37 188 89 253
102 14 3 36 8 50 11 53 14 249 13 326 -2 83 -15 191 -50 200 -64 3 -5 12 -9
20 -9 18 0 180 -101 216 -134 15 -14 31 -26 35 -26 4 1 37 23 73 50 63 48 244
147 285 155 11 2 36 9 55 15 103 32 298 34 435 5 73 -15 218 -74 268 -108 16
-11 30 -17 33 -14 9 9 -46 158 -87 237 -38 73 -94 153 -154 221 -74 84 -228
201 -311 235 -42 18 -42 25 -4 47 17 10 30 22 30 28 0 5 5 9 10 9 13 0 92 62
184 144 108 96 205 196 286 296 25 30 48 56 53 58 4 2 7 10 7 17 0 8 6 18 13
22 12 7 123 169 141 203 4 8 18 33 31 55 24 39 127 245 158 315 22 50 83 218
98 268 7 23 15 42 19 42 9 0 70 -119 70 -136 0 -7 4 -14 8 -16 8 -3 112 -232
112 -246 0 -5 9 -27 20 -50 11 -22 20 -46 20 -52 0 -23 21 -8 27 20 3 17 9 30
14 30 5 0 9 7 9 16 0 9 7 28 15 42 21 39 75 163 75 173 0 5 9 28 20 52 16 36
105 295 116 337 2 8 13 51 25 95 11 44 23 87 24 95 2 8 4 15 6 15 1 0 3 9 5
20 4 29 14 74 25 120 6 22 12 51 14 65 3 27 14 89 21 124 2 11 7 48 10 81 3
33 7 63 10 66 8 14 17 206 18 374 0 167 -8 332 -20 387 -2 13 -7 40 -9 62 -7
58 -45 238 -55 261 -5 11 -11 34 -14 50 -6 36 -15 64 -54 170 -53 142 -89 220
-154 333 -26 46 -48 86 -48 88 0 2 -12 22 -27 43 -16 21 -35 49 -43 61 -21 31
-83 114 -89 120 -4 3 -19 23 -35 45 -17 22 -94 104 -172 182 -125 125 -145
149 -162 200 -22 61 -64 177 -102 278 -32 84 -37 99 -40 110 -2 6 -14 31 -27
56 -13 26 -23 50 -23 53 0 7 -47 111 -101 222 -21 44 -39 85 -39 91 0 6 -3 13
-7 15 -5 2 -26 37 -47 78 -61 117 -95 176 -172 300 -32 52 -64 101 -71 108 -7
7 -13 16 -13 20 0 4 -11 20 -25 36 -14 16 -25 33 -25 38 0 4 -8 17 -17 27 -20
22 -21 23 -82 106 -25 33 -47 62 -50 65 -4 3 -26 30 -51 60 -91 111 -248 273
-364 375 -38 33 -74 65 -80 70 -6 6 -29 24 -51 40 -22 17 -49 38 -60 47 -18
16 -195 137 -240 165 -99 61 -296 162 -395 203 -90 37 -178 70 -196 73 -11 2
-31 9 -45 15 -46 19 -237 65 -319 78 -19 2 -48 8 -65 11 -16 3 -43 8 -60 10
-41 5 -432 13 -436 9z"/>
</g>
</svg>
