<?xml version="1.0" standalone="no"?>
<!DOCTYPE svg PUBLIC "-//W3C//DTD SVG 20010904//EN"
 "http://www.w3.org/TR/2001/REC-SVG-20010904/DTD/svg10.dtd">
<svg version="1.0" xmlns="http://www.w3.org/2000/svg"
 width="689.000000pt" height="689.000000pt" viewBox="0 0 689.000000 689.000000"
 preserveAspectRatio="xMidYMid meet">
<metadata>
Created by potrace 1.14, written by Peter Selinger 2001-2017
</metadata>
<g transform="translate(0.000000,689.000000) scale(0.100000,-0.100000)"
fill="#000000" stroke="none">
<path d="M6348 6884 c-2 -1 -29 -5 -59 -8 -63 -6 -95 -11 -224 -31 -49 -8
-103 -17 -120 -19 -16 -2 -30 -5 -30 -6 0 -2 -27 -7 -85 -15 -51 -8 -272 -55
-400 -86 -47 -12 -92 -23 -100 -25 -8 -2 -40 -10 -70 -19 -30 -9 -77 -22 -105
-30 -102 -28 -253 -77 -365 -116 -117 -42 -397 -152 -428 -169 -9 -5 -44 -21
-77 -36 -197 -88 -477 -239 -667 -360 -71 -45 -248 -166 -272 -185 -6 -5 -68
-53 -138 -107 -216 -167 -463 -397 -629 -587 -24 -27 -51 -56 -59 -65 -15 -16
-90 -106 -120 -144 -8 -10 -26 -33 -40 -50 -14 -17 -38 -48 -54 -69 -28 -39
-28 -39 -85 -32 -31 3 -132 7 -226 9 -224 5 -319 -13 -470 -87 -95 -47 -179
-120 -456 -398 -289 -289 -303 -306 -261 -341 9 -8 31 -20 47 -27 39 -17 228
-94 335 -138 47 -18 103 -42 125 -52 22 -10 104 -44 182 -76 118 -48 140 -61
133 -74 -23 -42 -108 -298 -150 -446 -34 -123 -90 -359 -90 -381 0 -21 1155
-1174 1176 -1174 33 0 326 71 458 112 72 22 147 44 166 50 19 6 40 13 45 16 6
4 46 19 89 34 74 26 80 27 92 10 7 -9 14 -23 14 -30 0 -7 4 -20 10 -30 5 -9
78 -181 161 -382 83 -201 156 -368 162 -372 38 -24 59 -6 349 284 314 316 363
376 418 520 50 130 60 200 55 388 -3 91 -7 192 -10 225 l-6 60 123 98 c133
104 153 121 270 228 159 145 353 347 468 489 25 30 47 57 50 60 3 3 28 34 55
70 27 36 52 67 55 70 32 27 291 426 380 585 91 162 293 586 306 640 1 6 10 28
19 50 129 298 296 895 370 1316 14 81 55 354 60 404 4 33 8 71 10 84 6 34 -11
114 -35 166 -52 113 -169 192 -297 199 -29 2 -54 2 -55 0z m-1678 -1418 c200
-36 419 -180 565 -371 73 -97 144 -241 161 -329 2 -11 7 -34 11 -51 9 -42 5
-180 -7 -245 -20 -97 -91 -227 -167 -303 -38 -37 -85 -79 -106 -93 -160 -108
-385 -136 -629 -79 -32 7 -58 10 -58 5 0 -4 7 -26 15 -49 8 -22 12 -41 9 -41
-3 0 -2 -6 2 -12 5 -7 9 -19 10 -28 1 -8 9 -53 17 -100 16 -93 15 -245 -3
-323 -27 -122 -89 -229 -184 -320 -74 -71 -122 -105 -207 -144 -106 -49 -152
-58 -304 -58 -128 0 -147 3 -225 29 -164 56 -291 137 -426 271 -82 82 -194
229 -194 255 0 5 -4 10 -9 10 -5 0 -11 8 -14 18 -3 9 -17 45 -31 79 -144 342
-44 704 249 909 132 92 300 126 505 101 62 -7 197 -41 247 -62 38 -16 45 -9
38 37 -3 18 -9 57 -14 86 -16 101 -5 269 23 357 76 240 278 417 517 453 58 8
153 7 209 -2z"/>
<path d="M4579 5130 c-145 -27 -299 -188 -328 -342 -18 -100 -2 -250 40 -384
11 -36 40 -50 174 -84 148 -39 298 -24 404 38 62 36 143 123 177 190 25 49 29
68 29 142 0 77 -3 92 -34 155 -60 121 -219 260 -321 280 -49 10 -106 12 -141
5z"/>
<path d="M3503 4250 c-87 -24 -121 -46 -193 -119 -140 -143 -175 -315 -102
-490 53 -126 184 -265 305 -324 85 -41 111 -48 194 -52 195 -10 399 140 449
327 13 51 13 197 -1 263 -15 74 -57 221 -74 260 -18 41 -20 42 -128 78 -215
71 -340 87 -450 57z"/>
<path d="M837 2224 c-1 -1 -15 -4 -32 -7 -44 -8 -134 -41 -178 -66 -147 -83
-295 -249 -413 -465 -56 -103 -65 -135 -48 -169 20 -37 53 -48 110 -38 96 18
309 0 368 -32 19 -9 19 -10 -5 -29 -49 -40 -151 -141 -201 -201 -142 -171
-224 -349 -263 -572 -11 -60 -13 -251 -4 -328 5 -37 20 -116 34 -175 23 -97
29 -110 56 -126 39 -23 73 -12 131 45 165 161 547 296 978 344 52 6 74 9 145
21 70 11 187 62 268 117 119 79 221 200 267 316 30 78 35 108 34 221 -1 90 -5
118 -31 193 -45 129 -165 317 -202 317 -5 0 -33 -25 -62 -55 -121 -126 -290
-220 -434 -239 -127 -17 -157 -18 -185 -6 -37 15 -42 31 -36 124 13 191 93
364 237 509 38 38 69 75 69 82 0 47 -251 177 -402 208 -58 12 -192 19 -201 11z"/>
</g>
</svg>
