<?xml version="1.0" standalone="no"?>
<!DOCTYPE svg PUBLIC "-//W3C//DTD SVG 20010904//EN"
 "http://www.w3.org/TR/2001/REC-SVG-20010904/DTD/svg10.dtd">
<svg version="1.0" xmlns="http://www.w3.org/2000/svg"
 width="700.000000pt" height="700.000000pt" viewBox="0 0 700.000000 700.000000"
 preserveAspectRatio="xMidYMid meet">
<metadata>
Created by potrace 1.14, written by Peter Selinger 2001-2017
</metadata>
<g transform="translate(0.000000,700.000000) scale(0.100000,-0.100000)"
fill="#000000" stroke="none">
<path d="M3278 6995 c-1 -1 -41 -6 -88 -9 -80 -6 -115 -10 -185 -21 -16 -3
-48 -7 -70 -10 -215 -30 -574 -132 -760 -215 -22 -9 -50 -21 -63 -24 -36 -12
-280 -135 -351 -178 -34 -21 -65 -38 -67 -38 -11 0 -258 -170 -339 -233 -227
-178 -490 -441 -630 -632 -17 -22 -32 -42 -36 -45 -13 -11 -121 -172 -184
-275 -135 -217 -279 -536 -355 -784 -17 -57 -33 -111 -35 -120 -2 -9 -13 -54
-24 -101 -11 -47 -22 -96 -25 -110 -2 -14 -11 -63 -20 -110 -36 -194 -44 -302
-44 -595 0 -143 4 -291 9 -330 22 -187 24 -198 45 -315 108 -583 385 -1161
776 -1617 179 -209 425 -436 608 -563 19 -13 37 -27 40 -30 14 -14 100 -70
109 -70 6 0 11 -3 11 -8 0 -4 9 -12 19 -17 11 -6 66 -37 123 -71 241 -143 511
-258 803 -343 39 -11 81 -22 95 -25 14 -3 34 -7 45 -10 18 -5 150 -34 185 -41
13 -2 85 -13 205 -30 190 -27 670 -26 855 1 361 54 625 124 915 246 132 55
337 157 401 200 23 16 45 28 49 28 19 0 295 194 410 289 174 143 433 402 503
502 9 13 24 32 34 43 38 41 180 248 248 359 224 371 398 838 455 1222 4 22 8
47 10 55 2 8 7 42 10 75 3 33 8 71 11 85 22 121 21 632 -1 750 -1 8 -6 40 -9
70 -4 30 -9 69 -12 85 -22 127 -38 209 -51 260 -8 33 -17 69 -19 79 -8 40 -58
204 -89 291 -242 677 -677 1256 -1259 1676 -278 200 -596 365 -919 474 -125
42 -361 106 -437 119 -19 3 -46 8 -60 10 -24 5 -198 30 -290 42 -47 6 -546 15
-552 9z"/>
</g>
</svg>
